SplineFontDB: 3.0
FontName: FiraCodemScript-Retina
FullName: Fira Code mScript Retina
FamilyName: Fira Code mScript Retina
Weight: Medium
Copyright: Copyright (c) 2015 by Nikita Prokopov
Version: 1.205
ItalicAngle: 0
UnderlinePosition: -100
UnderlineWidth: 50
Ascent: 800
Descent: 200
InvalidEm: 0
sfntRevision: 0x0001347a
LayerCount: 2
Layer: 0 1 "Back" 1
Layer: 1 1 "Fore" 0
XUID: [1021 102 -1850447114 29994]
StyleMap: 0x0040
FSType: 0
OS2Version: 4
OS2_WeightWidthSlopeOnly: 0
OS2_UseTypoMetrics: 1
CreationTime: 1519723474
ModificationTime: 1530244344
PfmFamily: 49
TTFWeight: 450
TTFWidth: 5
LineGap: 0
VLineGap: 0
Panose: 2 11 5 9 5 0 0 2 0 4
OS2TypoAscent: 935
OS2TypoAOffset: 0
OS2TypoDescent: -265
OS2TypoDOffset: 0
OS2TypoLinegap: 0
OS2WinAscent: 935
OS2WinAOffset: 0
OS2WinDescent: 265
OS2WinDOffset: 0
HheadAscent: 935
HheadAOffset: 0
HheadDescent: -265
HheadDOffset: 0
OS2SubXSize: 650
OS2SubYSize: 600
OS2SubXOff: 0
OS2SubYOff: 75
OS2SupXSize: 650
OS2SupYSize: 600
OS2SupXOff: 0
OS2SupYOff: 350
OS2StrikeYSize: 50
OS2StrikeYPos: 316
OS2CapHeight: 689
OS2XHeight: 527
OS2Vendor: 'CTDB'
OS2CodePages: 6000009f.00000000
OS2UnicodeRanges: 40000287.02003801.00000000.00000000
Lookup: 1 0 0 "'aalt' Access All Alternates lookup 0" { "'aalt' Access All Alternates lookup 0 subtable"  } ['aalt' ('DFLT' <'dflt' > 'cyrl' <'dflt' > 'grek' <'dflt' > 'latn' <'AFK ' 'AZE ' 'CAT ' 'CRT ' 'KAZ ' 'MOL ' 'PLK ' 'ROM ' 'TAT ' 'TRK ' 'dflt' > 'zinh' <'dflt' > 'zyyy' <'dflt' > ) ]
Lookup: 3 0 0 "'aalt' Access All Alternates lookup 1" { "'aalt' Access All Alternates lookup 1 subtable"  } ['aalt' ('DFLT' <'dflt' > 'cyrl' <'dflt' > 'grek' <'dflt' > 'latn' <'AFK ' 'AZE ' 'CAT ' 'CRT ' 'KAZ ' 'MOL ' 'PLK ' 'ROM ' 'TAT ' 'TRK ' 'dflt' > 'zinh' <'dflt' > 'zyyy' <'dflt' > ) ]

StartChar: .notdef
Encoding: 1114112 -1 0
Width: 600
Flags: W
LayerCount: 2
Fore
SplineSet
90 1050 m 1,0,-1
 510 1050 l 1,1,-1
 510 -350 l 1,2,-1
 90 -350 l 1,3,-1
 90 1050 l 1,0,-1
456 -298 m 1,4,-1
 456 998 l 1,5,-1
 145 998 l 1,6,-1
 145 -298 l 1,7,-1
 456 -298 l 1,4,-1
299.5 155.5 m 128,-1,9
 292 149 292 149 282 149 c 256,10,11
 272 149 272 149 264.5 155.5 c 128,-1,12
 257 162 257 162 257 173 c 2,13,-1
 257 257 l 1,14,15
 310 260 310 260 329 276.5 c 128,-1,16
 348 293 348 293 348 334 c 0,17,18
 348 367 348 367 335 385 c 128,-1,19
 322 403 322 403 287 403 c 0,20,21
 258 403 258 403 235 392 c 0,22,23
 228 389 228 389 222 389 c 0,24,25
 211 389 211 389 204.5 395.5 c 128,-1,26
 198 402 198 402 198 412 c 0,27,28
 198 431 198 431 227.5 441 c 128,-1,29
 257 451 257 451 291 451 c 0,30,31
 351 451 351 451 376.5 419 c 128,-1,32
 402 387 402 387 402 336 c 0,33,34
 402 283 402 283 379.5 254 c 128,-1,35
 357 225 357 225 307 218 c 1,36,-1
 307 173 l 2,37,8
 307 162 307 162 299.5 155.5 c 128,-1,9
257 110 m 128,-1,39
 267 120 267 120 282 120 c 256,40,41
 297 120 297 120 307 110 c 128,-1,42
 317 100 317 100 317 85 c 0,43,44
 317 69 317 69 307 58.5 c 128,-1,45
 297 48 297 48 282 48 c 256,46,47
 267 48 267 48 257 58.5 c 128,-1,48
 247 69 247 69 247 85 c 0,49,38
 247 100 247 100 257 110 c 128,-1,39
EndSplineSet
EndChar

StartChar: A
Encoding: 65 65 4
Width: 600
GlyphClass: 2
Flags: W
AnchorPoint: "Anchor-7" 300 689 basechar 0
AnchorPoint: "Anchor-6" 298 0 basechar 0
LayerCount: 2
Fore
SplineSet
428 172 m 1,0,-1
 167 172 l 1,1,-1
 115 0 l 1,2,-1
 15 0 l 1,3,-1
 238 689 l 1,4,-1
 362 689 l 1,5,-1
 585 0 l 1,6,-1
 480 0 l 1,7,-1
 428 172 l 1,0,-1
190 251 m 1,8,-1
 405 251 l 1,9,-1
 298 609 l 1,10,-1
 190 251 l 1,8,-1
EndSplineSet
Substitution2: "Single Substitution lookup 159 subtable" ordfeminine
Substitution2: "'aalt' Access All Alternates lookup 0 subtable" ordfeminine
EndChar

StartChar: Aogonek
Encoding: 260 260 11
Width: 600
GlyphClass: 2
Flags: W
AnchorPoint: "Anchor-7" 300 689 basechar 0
AnchorPoint: "Anchor-6" 298 0 basechar 0
LayerCount: 2
Fore
SplineSet
441 -56.5 m 128,-1,1
 415 -83 415 -83 415 -114 c 0,2,3
 415 -162 415 -162 471 -162 c 0,4,5
 498 -162 498 -162 532 -155 c 1,6,-1
 523 -226 l 1,7,8
 488 -233 488 -233 460 -233 c 0,9,10
 402 -233 402 -233 367.5 -204.5 c 128,-1,11
 333 -176 333 -176 333 -131 c 0,12,13
 333 -82 333 -82 368 -45.5 c 128,-1,14
 403 -9 403 -9 475 18 c 1,15,-1
 428 172 l 1,16,-1
 167 172 l 1,17,-1
 115 0 l 1,18,-1
 15 0 l 1,19,-1
 238 689 l 1,20,-1
 362 689 l 1,21,-1
 585 0 l 1,22,-1
 538 0 l 1,23,0
 467 -30 467 -30 441 -56.5 c 128,-1,1
190 251 m 1,24,-1
 405 251 l 1,25,-1
 298 609 l 1,26,-1
 190 251 l 1,24,-1
EndSplineSet
EndChar

StartChar: AE
Encoding: 198 198 14
Width: 600
GlyphClass: 2
Flags: W
AnchorPoint: "Anchor-7" 359 689 basechar 0
AnchorPoint: "Anchor-6" 300 0 basechar 0
LayerCount: 2
Fore
SplineSet
327 172 m 1,0,-1
 134 172 l 1,1,-1
 88 0 l 1,2,-1
 -12 0 l 1,3,-1
 186 689 l 1,4,-1
 566 689 l 1,5,-1
 555 612 l 1,6,-1
 327 612 l 1,7,-1
 376 388 l 1,8,-1
 557 388 l 1,9,-1
 557 311 l 1,10,-1
 390 311 l 1,11,-1
 439 77 l 1,12,-1
 607 77 l 1,13,-1
 607 0 l 1,14,-1
 361 0 l 1,15,-1
 327 172 l 1,0,-1
155 251 m 1,16,-1
 311 251 l 1,17,-1
 241 614 l 1,18,-1
 155 251 l 1,16,-1
EndSplineSet
EndChar

StartChar: B
Encoding: 66 66 16
Width: 600
GlyphClass: 2
Flags: W
AnchorPoint: "Anchor-7" 300 689 basechar 0
AnchorPoint: "Anchor-6" 300 0 basechar 0
LayerCount: 2
Fore
SplineSet
470 46.5 m 128,-1,1
 395 0 395 0 282 0 c 2,2,-1
 90 0 l 1,3,-1
 90 689 l 1,4,-1
 268 689 l 2,5,6
 375 689 375 689 445 648.5 c 128,-1,7
 515 608 515 608 515 515 c 0,8,9
 515 453 515 453 478.5 415 c 128,-1,10
 442 377 442 377 387 365 c 1,11,12
 545 338 545 338 545 197 c 0,13,0
 545 93 545 93 470 46.5 c 128,-1,1
380.5 587 m 128,-1,15
 347 612 347 612 283 612 c 2,16,-1
 189 612 l 1,17,-1
 189 399 l 1,18,-1
 291 399 l 2,19,20
 414 399 414 399 414 508 c 0,21,14
 414 562 414 562 380.5 587 c 128,-1,15
402.5 293 m 128,-1,23
 364 321 364 321 298 321 c 2,24,-1
 189 321 l 1,25,-1
 189 80 l 1,26,-1
 294 80 l 2,27,28
 441 80 441 80 441 196 c 0,29,22
 441 265 441 265 402.5 293 c 128,-1,23
EndSplineSet
EndChar

StartChar: C
Encoding: 67 67 17
Width: 600
GlyphClass: 2
Flags: W
AnchorPoint: "Anchor-7" 365 689 basechar 0
AnchorPoint: "Anchor-6" 350 0 basechar 0
LayerCount: 2
Fore
SplineSet
470.5 685 m 128,-1,1
 517 668 517 668 561 633 c 1,2,-1
 508 570 l 1,3,4
 447 621 447 621 364 621 c 0,5,6
 274 621 274 621 218 555 c 128,-1,7
 162 489 162 489 162 345 c 0,8,9
 162 203 162 203 216.5 137 c 128,-1,10
 271 71 271 71 363 71 c 0,11,12
 415 71 415 71 451 86.5 c 128,-1,13
 487 102 487 102 522 129 c 1,14,-1
 571 66 l 1,15,16
 536 31 536 31 483.5 9.5 c 128,-1,17
 431 -12 431 -12 361 -12 c 0,18,19
 274 -12 274 -12 205.5 29.5 c 128,-1,20
 137 71 137 71 97.5 151.5 c 128,-1,21
 58 232 58 232 58 345 c 0,22,23
 58 457 58 457 98 538 c 128,-1,24
 138 619 138 619 206.5 660.5 c 128,-1,25
 275 702 275 702 358 702 c 0,26,0
 424 702 424 702 470.5 685 c 128,-1,1
EndSplineSet
EndChar

StartChar: Ccedilla
Encoding: 199 199 20
Width: 600
GlyphClass: 2
Flags: W
AnchorPoint: "Anchor-7" 365 689 basechar 0
AnchorPoint: "Anchor-6" 350 0 basechar 0
LayerCount: 2
Fore
SplineSet
442.5 -84 m 128,-1,1
 466 -108 466 -108 466 -141 c 0,2,3
 466 -189 466 -189 430 -215.5 c 128,-1,4
 394 -242 394 -242 340 -242 c 0,5,6
 309 -242 309 -242 281 -235.5 c 128,-1,7
 253 -229 253 -229 233 -217 c 1,8,-1
 261 -165 l 1,9,10
 293 -181 293 -181 328 -181 c 0,11,12
 387 -181 387 -181 387 -141 c 0,13,14
 387 -117 387 -117 365.5 -108.5 c 128,-1,15
 344 -100 344 -100 300 -100 c 1,16,-1
 307 -8 l 1,17,18
 234 4 234 4 177.5 48.5 c 128,-1,19
 121 93 121 93 89.5 168.5 c 128,-1,20
 58 244 58 244 58 345 c 0,21,22
 58 457 58 457 98 538 c 128,-1,23
 138 619 138 619 206.5 660.5 c 128,-1,24
 275 702 275 702 358 702 c 0,25,26
 424 702 424 702 470.5 685 c 128,-1,27
 517 668 517 668 561 633 c 1,28,-1
 508 570 l 1,29,30
 447 621 447 621 364 621 c 0,31,32
 274 621 274 621 218 555 c 128,-1,33
 162 489 162 489 162 345 c 0,34,35
 162 203 162 203 216.5 137 c 128,-1,36
 271 71 271 71 363 71 c 0,37,38
 415 71 415 71 451 86.5 c 128,-1,39
 487 102 487 102 522 129 c 1,40,-1
 571 66 l 1,41,42
 537 32 537 32 487.5 11 c 128,-1,43
 438 -10 438 -10 372 -12 c 1,44,-1
 372 -56 l 1,45,0
 419 -60 419 -60 442.5 -84 c 128,-1,1
EndSplineSet
EndChar

StartChar: D
Encoding: 68 68 23
Width: 600
GlyphClass: 2
Flags: W
AnchorPoint: "Anchor-7" 284 689 basechar 0
AnchorPoint: "Anchor-6" 300 0 basechar 0
LayerCount: 2
Fore
SplineSet
465.5 76 m 128,-1,1
 375 0 375 0 241 0 c 2,2,-1
 78 0 l 1,3,-1
 78 689 l 1,4,-1
 230 689 l 2,5,6
 377 689 377 689 466.5 616 c 128,-1,7
 556 543 556 543 556 348 c 0,8,0
 556 152 556 152 465.5 76 c 128,-1,1
395.5 557.5 m 128,-1,10
 340 611 340 611 251 611 c 2,11,-1
 177 611 l 1,12,-1
 177 78 l 1,13,-1
 252 78 l 2,14,15
 339 78 339 78 395 137.5 c 128,-1,16
 451 197 451 197 451 348 c 0,17,9
 451 504 451 504 395.5 557.5 c 128,-1,10
EndSplineSet
EndChar

StartChar: Eth
Encoding: 208 208 24
Width: 600
GlyphClass: 2
Flags: W
AnchorPoint: "Anchor-7" 294 689 basechar 0
AnchorPoint: "Anchor-6" 310 0 basechar 0
LayerCount: 2
Fore
SplineSet
476.5 616 m 128,-1,1
 566 543 566 543 566 348 c 0,2,3
 566 152 566 152 475.5 76 c 128,-1,4
 385 0 385 0 251 0 c 2,5,-1
 88 0 l 1,6,-1
 88 317 l 1,7,-1
 18 317 l 1,8,-1
 18 389 l 1,9,-1
 88 389 l 1,10,-1
 88 689 l 1,11,-1
 240 689 l 2,12,0
 387 689 387 689 476.5 616 c 128,-1,1
405 137.5 m 128,-1,14
 461 197 461 197 461 348 c 0,15,16
 461 504 461 504 405.5 557.5 c 128,-1,17
 350 611 350 611 261 611 c 2,18,-1
 187 611 l 1,19,-1
 187 389 l 1,20,-1
 340 389 l 1,21,-1
 340 317 l 1,22,-1
 187 317 l 1,23,-1
 187 78 l 1,24,-1
 262 78 l 2,25,13
 349 78 349 78 405 137.5 c 128,-1,14
EndSplineSet
EndChar

StartChar: E
Encoding: 69 69 27
Width: 600
GlyphClass: 2
Flags: W
AnchorPoint: "Anchor-7" 321 689 basechar 0
AnchorPoint: "Anchor-6" 325 0 basechar 0
LayerCount: 2
Fore
SplineSet
219 611 m 1,0,-1
 219 389 l 1,1,-1
 473 389 l 1,2,-1
 473 311 l 1,3,-1
 219 311 l 1,4,-1
 219 78 l 1,5,-1
 529 78 l 1,6,-1
 529 0 l 1,7,-1
 120 0 l 1,8,-1
 120 689 l 1,9,-1
 522 689 l 1,10,-1
 510 611 l 1,11,-1
 219 611 l 1,0,-1
EndSplineSet
EndChar

StartChar: Eogonek
Encoding: 280 280 36
Width: 600
GlyphClass: 2
Flags: W
AnchorPoint: "Anchor-7" 321 689 basechar 0
AnchorPoint: "Anchor-6" 325 0 basechar 0
LayerCount: 2
Fore
SplineSet
529 78 m 1,0,-1
 529 0 l 1,1,-1
 468 0 l 1,2,3
 397 -30 397 -30 371 -56.5 c 128,-1,4
 345 -83 345 -83 345 -114 c 0,5,6
 345 -162 345 -162 401 -162 c 0,7,8
 428 -162 428 -162 462 -155 c 1,9,-1
 453 -226 l 1,10,11
 418 -233 418 -233 390 -233 c 0,12,13
 332 -233 332 -233 297.5 -204.5 c 128,-1,14
 263 -176 263 -176 263 -131 c 0,15,16
 263 -49 263 -49 363 0 c 1,17,-1
 120 0 l 1,18,-1
 120 689 l 1,19,-1
 522 689 l 1,20,-1
 510 611 l 1,21,-1
 219 611 l 1,22,-1
 219 389 l 1,23,-1
 473 389 l 1,24,-1
 473 311 l 1,25,-1
 219 311 l 1,26,-1
 219 78 l 1,27,-1
 529 78 l 1,0,-1
EndSplineSet
EndChar

StartChar: F
Encoding: 70 70 37
Width: 600
GlyphClass: 2
Flags: W
AnchorPoint: "Anchor-7" 300 689 basechar 0
AnchorPoint: "Anchor-6" 300 0 basechar 0
LayerCount: 2
Fore
SplineSet
233 611 m 1,0,-1
 233 379 l 1,1,-1
 498 379 l 1,2,-1
 498 301 l 1,3,-1
 233 301 l 1,4,-1
 233 0 l 1,5,-1
 133 0 l 1,6,-1
 133 689 l 1,7,-1
 547 689 l 1,8,-1
 536 611 l 1,9,-1
 233 611 l 1,0,-1
EndSplineSet
EndChar

StartChar: G
Encoding: 71 71 38
Width: 600
GlyphClass: 2
Flags: W
AnchorPoint: "Anchor-7" 330 689 basechar 0
AnchorPoint: "Anchor-6" 330 0 basechar 0
LayerCount: 2
Fore
SplineSet
114.5 79 m 128,-1,1
 42 170 42 170 42 345 c 0,2,3
 42 459 42 459 82.5 539.5 c 128,-1,4
 123 620 123 620 190 661 c 128,-1,5
 257 702 257 702 336 702 c 0,6,7
 401 702 401 702 447 683 c 128,-1,8
 493 664 493 664 536 624 c 1,9,-1
 478 564 l 1,10,11
 446 593 446 593 412.5 607 c 128,-1,12
 379 621 379 621 337 621 c 0,13,14
 254 621 254 621 200.5 555 c 128,-1,15
 147 489 147 489 147 345 c 0,16,17
 147 200 147 200 190.5 134 c 128,-1,18
 234 68 234 68 322 68 c 0,19,20
 390 68 390 68 446 100 c 1,21,-1
 446 301 l 1,22,-1
 318 301 l 1,23,-1
 307 380 l 1,24,-1
 544 380 l 1,25,-1
 544 49 l 1,26,27
 490 19 490 19 436.5 3.5 c 128,-1,28
 383 -12 383 -12 316 -12 c 0,29,0
 187 -12 187 -12 114.5 79 c 128,-1,1
EndSplineSet
EndChar

StartChar: H
Encoding: 72 72 43
Width: 600
GlyphClass: 2
Flags: W
AnchorPoint: "Anchor-7" 300 689 basechar 0
AnchorPoint: "Anchor-6" 300 0 basechar 0
LayerCount: 2
Fore
SplineSet
423 0 m 1,0,-1
 423 321 l 1,1,-1
 177 321 l 1,2,-1
 177 0 l 1,3,-1
 78 0 l 1,4,-1
 78 689 l 1,5,-1
 177 689 l 1,6,-1
 177 403 l 1,7,-1
 423 403 l 1,8,-1
 423 689 l 1,9,-1
 522 689 l 1,10,-1
 522 0 l 1,11,-1
 423 0 l 1,0,-1
EndSplineSet
EndChar

StartChar: Hbar
Encoding: 294 294 44
Width: 600
Flags: W
LayerCount: 2
Fore
SplineSet
598 578 m 1,0,-1
 598 508 l 1,1,-1
 521 508 l 1,2,-1
 521 0 l 1,3,-1
 422 0 l 1,4,-1
 422 321 l 1,5,-1
 178 321 l 1,6,-1
 178 0 l 1,7,-1
 79 0 l 1,8,-1
 79 508 l 1,9,-1
 2 508 l 1,10,-1
 2 578 l 1,11,-1
 79 578 l 1,12,-1
 79 689 l 1,13,-1
 178 689 l 1,14,-1
 178 578 l 1,15,-1
 422 578 l 1,16,-1
 422 689 l 1,17,-1
 521 689 l 1,18,-1
 521 578 l 1,19,-1
 598 578 l 1,0,-1
422 402 m 1,20,-1
 422 508 l 1,21,-1
 178 508 l 1,22,-1
 178 402 l 1,23,-1
 422 402 l 1,20,-1
EndSplineSet
EndChar

StartChar: I
Encoding: 73 73 46
Width: 600
GlyphClass: 2
Flags: W
AnchorPoint: "Anchor-7" 300 689 basechar 0
AnchorPoint: "Anchor-6" 300 0 basechar 0
LayerCount: 2
Fore
SplineSet
502 689 m 1,0,-1
 502 612 l 1,1,-1
 350 612 l 1,2,-1
 350 78 l 1,3,-1
 502 78 l 1,4,-1
 502 0 l 1,5,-1
 98 0 l 1,6,-1
 98 78 l 1,7,-1
 250 78 l 1,8,-1
 250 612 l 1,9,-1
 98 612 l 1,10,-1
 98 689 l 1,11,-1
 502 689 l 1,0,-1
EndSplineSet
EndChar

StartChar: IJ
Encoding: 306 306 47
Width: 600
Flags: W
LayerCount: 2
Fore
SplineSet
342.5 -27.5 m 128,-1,1
 396 5 396 5 416.5 57.5 c 128,-1,2
 437 110 437 110 437 188 c 2,3,-1
 437 613 l 1,4,-1
 206 613 l 1,5,-1
 206 77 l 1,6,-1
 281 77 l 1,7,-1
 281 0 l 1,8,-1
 11 0 l 1,9,-1
 11 77 l 1,10,-1
 106 77 l 1,11,-1
 106 613 l 1,12,-1
 11 613 l 1,13,-1
 11 689 l 1,14,-1
 536 689 l 1,15,-1
 536 185 l 2,16,17
 536 48 536 48 462.5 -38.5 c 128,-1,18
 389 -125 389 -125 204 -144 c 1,19,-1
 192 -71 l 1,20,0
 289 -60 289 -60 342.5 -27.5 c 128,-1,1
EndSplineSet
EndChar

StartChar: Iogonek
Encoding: 302 302 55
Width: 600
GlyphClass: 2
Flags: W
AnchorPoint: "Anchor-7" 300 689 basechar 0
AnchorPoint: "Anchor-6" 300 0 basechar 0
LayerCount: 2
Fore
SplineSet
350 612 m 1,0,-1
 350 78 l 1,1,-1
 502 78 l 1,2,-1
 502 0 l 1,3,-1
 350 0 l 1,4,5
 279 -30 279 -30 253 -56.5 c 128,-1,6
 227 -83 227 -83 227 -114 c 0,7,8
 227 -162 227 -162 283 -162 c 0,9,10
 310 -162 310 -162 344 -155 c 1,11,-1
 335 -226 l 1,12,13
 300 -233 300 -233 272 -233 c 0,14,15
 214 -233 214 -233 179.5 -204.5 c 128,-1,16
 145 -176 145 -176 145 -131 c 0,17,18
 145 -49 145 -49 245 0 c 1,19,-1
 98 0 l 1,20,-1
 98 78 l 1,21,-1
 250 78 l 1,22,-1
 250 612 l 1,23,-1
 98 612 l 1,24,-1
 98 689 l 1,25,-1
 502 689 l 1,26,-1
 502 612 l 1,27,-1
 350 612 l 1,0,-1
EndSplineSet
EndChar

StartChar: J
Encoding: 74 74 57
Width: 600
GlyphClass: 2
Flags: W
AnchorPoint: "Anchor-7" 350 689 basechar 0
AnchorPoint: "Anchor-6" 300 0 basechar 0
LayerCount: 2
Fore
SplineSet
502 232 m 2,0,1
 502 129 502 129 443.5 58.5 c 128,-1,2
 385 -12 385 -12 259 -12 c 0,3,4
 152 -12 152 -12 67 51 c 1,5,-1
 109 115 l 1,6,7
 185 68 185 68 257 68 c 0,8,9
 325 68 325 68 363.5 112.5 c 128,-1,10
 402 157 402 157 402 236 c 2,11,-1
 402 611 l 1,12,-1
 197 611 l 1,13,-1
 197 689 l 1,14,-1
 502 689 l 1,15,-1
 502 232 l 2,0,1
EndSplineSet
EndChar

StartChar: K
Encoding: 75 75 59
Width: 600
GlyphClass: 2
Flags: W
AnchorPoint: "Anchor-7" 323 689 basechar 0
AnchorPoint: "Anchor-6" 319 0 basechar 0
LayerCount: 2
Fore
SplineSet
197 0 m 1,0,-1
 98 0 l 1,1,-1
 98 689 l 1,2,-1
 197 689 l 1,3,-1
 197 0 l 1,0,-1
202 368 m 1,4,-1
 459 689 l 1,5,-1
 571 689 l 1,6,-1
 314 374 l 1,7,-1
 590 0 l 1,8,-1
 469 0 l 1,9,-1
 202 368 l 1,4,-1
EndSplineSet
EndChar

StartChar: L
Encoding: 76 76 61
Width: 600
GlyphClass: 2
Flags: W
AnchorPoint: "Anchor-7" 179 689 basechar 0
AnchorPoint: "Anchor-6" 329 0 basechar 0
LayerCount: 2
Fore
SplineSet
129 0 m 1,0,-1
 129 689 l 1,1,-1
 228 689 l 1,2,-1
 228 86 l 1,3,-1
 540 86 l 1,4,-1
 529 0 l 1,5,-1
 129 0 l 1,0,-1
EndSplineSet
EndChar

StartChar: Lslash
Encoding: 321 321 66
Width: 600
GlyphClass: 2
Flags: W
AnchorPoint: "Anchor-7" 180 689 basechar 0
AnchorPoint: "Anchor-6" 330 0 basechar 0
LayerCount: 2
Fore
SplineSet
229 86 m 1,0,-1
 541 86 l 1,1,-1
 530 0 l 1,2,-1
 130 0 l 1,3,-1
 130 262 l 1,4,-1
 74 227 l 1,5,-1
 35 289 l 1,6,-1
 130 346 l 1,7,-1
 130 689 l 1,8,-1
 229 689 l 1,9,-1
 229 408 l 1,10,-1
 387 506 l 1,11,-1
 427 446 l 1,12,-1
 229 323 l 1,13,-1
 229 86 l 1,0,-1
EndSplineSet
EndChar

StartChar: M
Encoding: 77 77 67
Width: 600
GlyphClass: 2
Flags: W
AnchorPoint: "Anchor-7" 300 689 basechar 0
AnchorPoint: "Anchor-6" 300 0 basechar 0
LayerCount: 2
Fore
SplineSet
572 0 m 1,0,-1
 478 0 l 1,1,-1
 459 350 l 2,2,3
 455 426 455 426 455 519 c 2,4,-1
 456 600 l 1,5,-1
 346 123 l 1,6,-1
 253 123 l 1,7,-1
 135 600 l 1,8,9
 138 558 138 558 138 463 c 0,10,11
 138 385 138 385 136 349 c 2,12,-1
 119 0 l 1,13,-1
 28 0 l 1,14,-1
 67 689 l 1,15,-1
 196 689 l 1,16,-1
 302 222 l 1,17,-1
 403 689 l 1,18,-1
 533 689 l 1,19,-1
 572 0 l 1,0,-1
EndSplineSet
EndChar

StartChar: N
Encoding: 78 78 68
Width: 600
GlyphClass: 2
Flags: W
AnchorPoint: "Anchor-7" 301 689 basechar 0
AnchorPoint: "Anchor-6" 300 0 basechar 0
LayerCount: 2
Fore
SplineSet
155 597 m 1,0,-1
 157 567 l 2,1,2
 168 424 168 424 168 331 c 2,3,-1
 168 0 l 1,4,-1
 78 0 l 1,5,-1
 78 689 l 1,6,-1
 210 689 l 1,7,-1
 445 90 l 1,8,-1
 443 120 l 2,9,10
 432 255 432 255 432 358 c 2,11,-1
 432 689 l 1,12,-1
 522 689 l 1,13,-1
 522 0 l 1,14,-1
 388 0 l 1,15,-1
 155 597 l 1,0,-1
EndSplineSet
EndChar

StartChar: Eng
Encoding: 330 330 72
Width: 600
GlyphClass: 2
Flags: W
AnchorPoint: "Anchor-7" 301 689 basechar 0
AnchorPoint: "Anchor-6" 300 0 basechar 0
LayerCount: 2
Fore
SplineSet
522 689 m 1,0,-1
 522 -56 l 2,1,2
 522 -134 522 -134 481 -174.5 c 128,-1,3
 440 -215 440 -215 368 -215 c 0,4,5
 301 -215 301 -215 252 -176 c 1,6,-1
 289 -114 l 1,7,8
 309 -126 309 -126 324.5 -131 c 128,-1,9
 340 -136 340 -136 362 -136 c 0,10,11
 423 -136 423 -136 423 -63 c 2,12,-1
 423 0 l 1,13,-1
 388 0 l 1,14,-1
 155 597 l 1,15,-1
 157 567 l 2,16,17
 168 424 168 424 168 331 c 2,18,-1
 168 0 l 1,19,-1
 78 0 l 1,20,-1
 78 689 l 1,21,-1
 210 689 l 1,22,-1
 445 90 l 1,23,-1
 443 120 l 2,24,25
 432 255 432 255 432 358 c 2,26,-1
 432 689 l 1,27,-1
 522 689 l 1,0,-1
EndSplineSet
EndChar

StartChar: O
Encoding: 79 79 74
Width: 600
GlyphClass: 2
Flags: W
AnchorPoint: "Anchor-7" 300 689 basechar 0
AnchorPoint: "Anchor-6" 300 0 basechar 0
LayerCount: 2
Fore
SplineSet
490.5 85 m 128,-1,1
 424 -12 424 -12 300 -12 c 0,2,3
 175 -12 175 -12 109 83.5 c 128,-1,4
 43 179 43 179 43 343 c 0,5,6
 43 506 43 506 109.5 604 c 128,-1,7
 176 702 176 702 300 702 c 0,8,9
 425 702 425 702 491 605.5 c 128,-1,10
 557 509 557 509 557 344 c 0,11,0
 557 182 557 182 490.5 85 c 128,-1,1
417.5 552 m 128,-1,13
 381 621 381 621 300 621 c 256,14,15
 219 621 219 621 182.5 552 c 128,-1,16
 146 483 146 483 146 343 c 0,17,18
 146 205 146 205 183.5 136.5 c 128,-1,19
 221 68 221 68 300 68 c 0,20,21
 381 68 381 68 417.5 136.5 c 128,-1,22
 454 205 454 205 454 344 c 256,23,12
 454 483 454 483 417.5 552 c 128,-1,13
EndSplineSet
Substitution2: "Single Substitution lookup 159 subtable" ordmasculine
Substitution2: "'aalt' Access All Alternates lookup 0 subtable" ordmasculine
EndChar

StartChar: Oslash
Encoding: 216 216 82
Width: 600
GlyphClass: 2
Flags: W
AnchorPoint: "Anchor-7" 300 689 basechar 0
AnchorPoint: "Anchor-6" 300 0 basechar 0
LayerCount: 2
Fore
SplineSet
526.5 535.5 m 128,-1,1
 557 454 557 454 557 344 c 0,2,3
 557 182 557 182 490.5 85 c 128,-1,4
 424 -12 424 -12 300 -12 c 0,5,6
 266 -12 266 -12 239 -5 c 1,7,-1
 207 -110 l 1,8,-1
 126 -88 l 1,9,-1
 163 30 l 1,10,11
 104 72 104 72 73.5 152.5 c 128,-1,12
 43 233 43 233 43 343 c 0,13,14
 43 506 43 506 109.5 604 c 128,-1,15
 176 702 176 702 300 702 c 0,16,17
 328 702 328 702 363 695 c 1,18,-1
 394 803 l 1,19,-1
 475 781 l 1,20,-1
 437 660 l 1,21,0
 496 617 496 617 526.5 535.5 c 128,-1,1
182.5 552 m 128,-1,23
 146 483 146 483 146 343 c 0,24,25
 146 253 146 253 159 195.5 c 128,-1,26
 172 138 172 138 199 107 c 1,27,-1
 346 616 l 1,28,29
 323 621 323 621 300 621 c 0,30,22
 219 621 219 621 182.5 552 c 128,-1,23
417.5 136.5 m 128,-1,32
 454 205 454 205 454 344 c 0,33,34
 454 436 454 436 441.5 494 c 128,-1,35
 429 552 429 552 401 582 c 1,36,-1
 254 74 l 1,37,38
 275 68 275 68 300 68 c 0,39,31
 381 68 381 68 417.5 136.5 c 128,-1,32
EndSplineSet
EndChar

StartChar: OE
Encoding: 338 338 85
Width: 600
GlyphClass: 2
Flags: W
AnchorPoint: "Anchor-7" 300 689 basechar 0
AnchorPoint: "Anchor-6" 300 0 basechar 0
LayerCount: 2
Fore
SplineSet
289 689 m 1,1,-1
 606 689 l 1,2,-1
 595 612 l 1,3,-1
 361 612 l 1,4,5
 415 544 415 544 422 388 c 1,6,-1
 570 388 l 1,7,-1
 570 311 l 1,8,-1
 422 311 l 1,9,10
 418 152 418 152 357 77 c 1,11,-1
 614 77 l 1,12,-1
 614 0 l 1,13,-1
 286 0 l 1,14,15
 247 -12 247 -12 214 -12 c 0,16,17
 106 -12 106 -12 53.5 77 c 128,-1,18
 1 166 1 166 1 343 c 0,19,20
 1 518 1 518 54 610 c 128,-1,21
 107 702 107 702 214 702 c 0,22,0
 248 702 248 702 289 689 c 1,1,-1
128 557.5 m 128,-1,24
 101 492 101 492 101 343 c 0,25,26
 101 195 101 195 128.5 130 c 128,-1,27
 156 65 156 65 214 65 c 0,28,29
 274 65 274 65 301 130 c 128,-1,30
 328 195 328 195 328 344 c 0,31,32
 328 494 328 494 301.5 558.5 c 128,-1,33
 275 623 275 623 214 623 c 0,34,23
 155 623 155 623 128 557.5 c 128,-1,24
EndSplineSet
EndChar

StartChar: P
Encoding: 80 80 86
Width: 600
GlyphClass: 2
Flags: W
AnchorPoint: "Anchor-7" 300 689 basechar 0
AnchorPoint: "Anchor-6" 300 0 basechar 0
LayerCount: 2
Fore
SplineSet
488.5 306 m 128,-1,1
 417 252 417 252 293 252 c 2,2,-1
 206 252 l 1,3,-1
 206 0 l 1,4,-1
 107 0 l 1,5,-1
 107 689 l 1,6,-1
 289 689 l 2,7,8
 419 689 419 689 489.5 635.5 c 128,-1,9
 560 582 560 582 560 475 c 0,10,0
 560 360 560 360 488.5 306 c 128,-1,1
413.5 580 m 128,-1,12
 372 613 372 613 299 613 c 2,13,-1
 206 613 l 1,14,-1
 206 329 l 1,15,-1
 298 329 l 2,16,17
 372 329 372 329 413.5 362 c 128,-1,18
 455 395 455 395 455 475 c 0,19,11
 455 547 455 547 413.5 580 c 128,-1,12
EndSplineSet
EndChar

StartChar: Thorn
Encoding: 222 222 87
Width: 600
GlyphClass: 2
Flags: W
AnchorPoint: "Anchor-7" 300 689 basechar 0
AnchorPoint: "Anchor-6" 300 0 basechar 0
LayerCount: 2
Fore
SplineSet
199 573 m 1,0,-1
 290 573 l 2,1,2
 420 573 420 573 489.5 519 c 128,-1,3
 559 465 559 465 559 355 c 0,4,5
 559 239 559 239 488 182.5 c 128,-1,6
 417 126 417 126 293 126 c 2,7,-1
 199 126 l 1,8,-1
 199 0 l 1,9,-1
 99 0 l 1,10,-1
 99 689 l 1,11,-1
 199 689 l 1,12,-1
 199 573 l 1,0,-1
199 497 m 1,13,-1
 199 204 l 1,14,-1
 301 204 l 2,15,16
 375 204 375 204 415 238 c 128,-1,17
 455 272 455 272 455 353 c 0,18,19
 455 427 455 427 414 462 c 128,-1,20
 373 497 373 497 300 497 c 2,21,-1
 199 497 l 1,13,-1
EndSplineSet
EndChar

StartChar: Q
Encoding: 81 81 88
Width: 600
GlyphClass: 2
Flags: W
AnchorPoint: "Anchor-7" 300 689 basechar 0
AnchorPoint: "Anchor-6" 300 0 basechar 0
LayerCount: 2
Fore
SplineSet
523.5 150.5 m 128,-1,1
 490 71 490 71 414 29 c 1,2,3
 489 15 489 15 531.5 -22 c 128,-1,4
 574 -59 574 -59 599 -135 c 1,5,-1
 501 -173 l 1,6,7
 467 -88 467 -88 421 -49 c 128,-1,8
 375 -10 375 -10 290 -10 c 0,9,10
 171 -10 171 -10 107 85 c 128,-1,11
 43 180 43 180 43 343 c 256,12,13
 43 506 43 506 109.5 604 c 128,-1,14
 176 702 176 702 300 702 c 0,15,16
 425 702 425 702 491 605.5 c 128,-1,17
 557 509 557 509 557 344 c 0,18,0
 557 230 557 230 523.5 150.5 c 128,-1,1
417.5 552 m 128,-1,20
 381 621 381 621 300 621 c 256,21,22
 219 621 219 621 183 551.5 c 128,-1,23
 147 482 147 482 147 343 c 0,24,25
 147 205 147 205 184 136.5 c 128,-1,26
 221 68 221 68 300 68 c 0,27,28
 381 68 381 68 417.5 136.5 c 128,-1,29
 454 205 454 205 454 344 c 256,30,19
 454 483 454 483 417.5 552 c 128,-1,20
EndSplineSet
EndChar

StartChar: R
Encoding: 82 82 89
Width: 600
GlyphClass: 2
Flags: W
AnchorPoint: "Anchor-7" 300 689 basechar 0
AnchorPoint: "Anchor-6" 301 0 basechar 0
LayerCount: 2
Fore
SplineSet
496 371.5 m 128,-1,1
 451 323 451 323 378 303 c 1,2,-1
 579 0 l 1,3,-1
 461 0 l 1,4,-1
 279 290 l 1,5,-1
 194 290 l 1,6,-1
 194 0 l 1,7,-1
 95 0 l 1,8,-1
 95 689 l 1,9,-1
 278 689 l 2,10,11
 408 689 408 689 474.5 639.5 c 128,-1,12
 541 590 541 590 541 493 c 0,13,0
 541 420 541 420 496 371.5 c 128,-1,1
399.5 584.5 m 128,-1,15
 363 613 363 613 286 613 c 2,16,-1
 194 613 l 1,17,-1
 194 366 l 1,18,-1
 288 366 l 2,19,20
 361 366 361 366 398.5 396 c 128,-1,21
 436 426 436 426 436 493 c 0,22,14
 436 556 436 556 399.5 584.5 c 128,-1,15
EndSplineSet
EndChar

StartChar: S
Encoding: 83 83 93
Width: 600
GlyphClass: 2
Flags: W
AnchorPoint: "Anchor-7" 306 689 basechar 0
AnchorPoint: "Anchor-6" 297 0 basechar 0
LayerCount: 2
Fore
SplineSet
511.5 86 m 128,-1,1
 481 40 481 40 423 14 c 128,-1,2
 365 -12 365 -12 285 -12 c 0,3,4
 207 -12 207 -12 144.5 11 c 128,-1,5
 82 34 82 34 38 77 c 1,6,-1
 95 141 l 1,7,8
 173 68 173 68 286 68 c 0,9,10
 351 68 351 68 394.5 99.5 c 128,-1,11
 438 131 438 131 438 189 c 0,12,13
 438 222 438 222 425 244.5 c 128,-1,14
 412 267 412 267 381 284 c 128,-1,15
 350 301 350 301 292 318 c 0,16,17
 179 352 179 352 124.5 397.5 c 128,-1,18
 70 443 70 443 70 520 c 0,19,20
 70 573 70 573 99 614.5 c 128,-1,21
 128 656 128 656 180.5 679 c 128,-1,22
 233 702 233 702 299 702 c 0,23,24
 369 702 369 702 423.5 681.5 c 128,-1,25
 478 661 478 661 523 621 c 1,26,-1
 468 559 l 1,27,28
 397 621 397 621 303 621 c 0,29,30
 245 621 245 621 208 596.5 c 128,-1,31
 171 572 171 572 171 525 c 0,32,33
 171 496 171 496 186.5 476 c 128,-1,34
 202 456 202 456 237.5 439 c 128,-1,35
 273 422 273 422 339 403 c 0,36,37
 437 374 437 374 489.5 328 c 128,-1,38
 542 282 542 282 542 193 c 0,39,0
 542 132 542 132 511.5 86 c 128,-1,1
EndSplineSet
EndChar

StartChar: Scedilla
Encoding: 350 350 96
Width: 600
GlyphClass: 2
Flags: W
AnchorPoint: "Anchor-7" 306 689 basechar 0
AnchorPoint: "Anchor-6" 297 0 basechar 0
LayerCount: 2
Fore
SplineSet
483 52.5 m 128,-1,1
 424 -3 424 -3 319 -11 c 1,2,-1
 319 -56 l 1,3,4
 366 -60 366 -60 389.5 -84 c 128,-1,5
 413 -108 413 -108 413 -141 c 0,6,7
 413 -189 413 -189 377 -215.5 c 128,-1,8
 341 -242 341 -242 287 -242 c 0,9,10
 256 -242 256 -242 228 -235.5 c 128,-1,11
 200 -229 200 -229 180 -217 c 1,12,-1
 208 -165 l 1,13,14
 240 -181 240 -181 275 -181 c 0,15,16
 334 -181 334 -181 334 -141 c 0,17,18
 334 -117 334 -117 312.5 -108.5 c 128,-1,19
 291 -100 291 -100 247 -100 c 1,20,-1
 254 -11 l 1,21,22
 120 -2 120 -2 38 77 c 1,23,-1
 95 141 l 1,24,25
 173 68 173 68 286 68 c 0,26,27
 351 68 351 68 394.5 99.5 c 128,-1,28
 438 131 438 131 438 189 c 0,29,30
 438 222 438 222 425 244.5 c 128,-1,31
 412 267 412 267 381 284 c 128,-1,32
 350 301 350 301 292 318 c 0,33,34
 179 352 179 352 124.5 397.5 c 128,-1,35
 70 443 70 443 70 520 c 0,36,37
 70 573 70 573 99 614.5 c 128,-1,38
 128 656 128 656 180.5 679 c 128,-1,39
 233 702 233 702 299 702 c 0,40,41
 369 702 369 702 423.5 681.5 c 128,-1,42
 478 661 478 661 523 621 c 1,43,-1
 468 559 l 1,44,45
 397 621 397 621 303 621 c 0,46,47
 245 621 245 621 208 596.5 c 128,-1,48
 171 572 171 572 171 525 c 0,49,50
 171 496 171 496 186.5 476 c 128,-1,51
 202 456 202 456 237.5 439 c 128,-1,52
 273 422 273 422 339 403 c 0,53,54
 437 374 437 374 489.5 328 c 128,-1,55
 542 282 542 282 542 193 c 0,56,0
 542 108 542 108 483 52.5 c 128,-1,1
EndSplineSet
Substitution2: "'locl' Localized Forms in Latin lookup 16 subtable" Scommaaccent
Substitution2: "'locl' Localized Forms in Latin lookup 15 subtable" Scommaaccent
Substitution2: "'aalt' Access All Alternates lookup 0 subtable" Scommaaccent
EndChar

StartChar: T
Encoding: 84 84 99
Width: 600
GlyphClass: 2
Flags: W
AnchorPoint: "Anchor-7" 299 689 basechar 0
AnchorPoint: "Anchor-6" 299 0 basechar 0
LayerCount: 2
Fore
SplineSet
348 606 m 1,0,-1
 348 0 l 1,1,-1
 249 0 l 1,2,-1
 249 606 l 1,3,-1
 37 606 l 1,4,-1
 37 689 l 1,5,-1
 563 689 l 1,6,-1
 553 606 l 1,7,-1
 348 606 l 1,0,-1
EndSplineSet
EndChar

StartChar: Tbar
Encoding: 358 358 100
Width: 600
GlyphClass: 2
Flags: W
AnchorPoint: "Anchor-7" 299 689 basechar 0
AnchorPoint: "Anchor-6" 299 0 basechar 0
LayerCount: 2
Fore
SplineSet
553 606 m 1,0,-1
 348 606 l 1,1,-1
 348 415 l 1,2,-1
 477 415 l 1,3,-1
 477 344 l 1,4,-1
 348 344 l 1,5,-1
 348 0 l 1,6,-1
 249 0 l 1,7,-1
 249 344 l 1,8,-1
 121 344 l 1,9,-1
 121 415 l 1,10,-1
 249 415 l 1,11,-1
 249 606 l 1,12,-1
 37 606 l 1,13,-1
 37 689 l 1,14,-1
 563 689 l 1,15,-1
 553 606 l 1,0,-1
EndSplineSet
EndChar

StartChar: uni0162
Encoding: 354 354 102
Width: 600
GlyphClass: 2
Flags: W
AnchorPoint: "Anchor-7" 299 689 basechar 0
AnchorPoint: "Anchor-6" 299 0 basechar 0
LayerCount: 2
Fore
SplineSet
331 0 m 1,0,-1
 331 -56 l 1,1,2
 378 -60 378 -60 401.5 -84 c 128,-1,3
 425 -108 425 -108 425 -141 c 0,4,5
 425 -189 425 -189 389 -215.5 c 128,-1,6
 353 -242 353 -242 299 -242 c 0,7,8
 268 -242 268 -242 240 -235.5 c 128,-1,9
 212 -229 212 -229 192 -217 c 1,10,-1
 220 -165 l 1,11,12
 252 -181 252 -181 287 -181 c 0,13,14
 346 -181 346 -181 346 -141 c 0,15,16
 346 -117 346 -117 324.5 -108.5 c 128,-1,17
 303 -100 303 -100 259 -100 c 1,18,-1
 267 0 l 1,19,-1
 249 0 l 1,20,-1
 249 606 l 1,21,-1
 37 606 l 1,22,-1
 37 689 l 1,23,-1
 563 689 l 1,24,-1
 553 606 l 1,25,-1
 348 606 l 1,26,-1
 348 0 l 1,27,-1
 331 0 l 1,0,-1
EndSplineSet
Substitution2: "'locl' Localized Forms in Latin lookup 16 subtable" uni021A
Substitution2: "'locl' Localized Forms in Latin lookup 15 subtable" uni021A
Substitution2: "'aalt' Access All Alternates lookup 0 subtable" uni021A
EndChar

StartChar: U
Encoding: 85 85 104
Width: 600
GlyphClass: 2
Flags: W
AnchorPoint: "Anchor-7" 300 689 basechar 0
AnchorPoint: "Anchor-6" 300 0 basechar 0
LayerCount: 2
Fore
SplineSet
533 224 m 2,0,1
 533 154 533 154 504.5 100.5 c 128,-1,2
 476 47 476 47 423 17.5 c 128,-1,3
 370 -12 370 -12 299 -12 c 0,4,5
 190 -12 190 -12 128.5 52.5 c 128,-1,6
 67 117 67 117 67 224 c 2,7,-1
 67 689 l 1,8,-1
 167 689 l 1,9,-1
 167 232 l 2,10,11
 167 70 167 70 299 70 c 0,12,13
 432 70 432 70 432 232 c 2,14,-1
 432 689 l 1,15,-1
 533 689 l 1,16,-1
 533 224 l 2,0,1
EndSplineSet
EndChar

StartChar: Uogonek
Encoding: 370 370 112
Width: 600
GlyphClass: 2
Flags: W
AnchorPoint: "Anchor-7" 300 689 basechar 0
AnchorPoint: "Anchor-6" 300 0 basechar 0
LayerCount: 2
Fore
SplineSet
533 689 m 1,0,-1
 533 224 l 2,1,2
 533 140 533 140 492.5 80.5 c 128,-1,3
 452 21 452 21 379 -1 c 1,4,5
 309 -31 309 -31 283.5 -57 c 128,-1,6
 258 -83 258 -83 258 -114 c 0,7,8
 258 -162 258 -162 314 -162 c 0,9,10
 341 -162 341 -162 375 -155 c 1,11,-1
 366 -226 l 1,12,13
 331 -233 331 -233 303 -233 c 0,14,15
 245 -233 245 -233 210.5 -204.5 c 128,-1,16
 176 -176 176 -176 176 -131 c 0,17,18
 176 -56 176 -56 259 -9 c 1,19,20
 168 3 168 3 117.5 65.5 c 128,-1,21
 67 128 67 128 67 224 c 2,22,-1
 67 689 l 1,23,-1
 167 689 l 1,24,-1
 167 232 l 2,25,26
 167 70 167 70 299 70 c 0,27,28
 432 70 432 70 432 232 c 2,29,-1
 432 689 l 1,30,-1
 533 689 l 1,0,-1
EndSplineSet
EndChar

StartChar: V
Encoding: 86 86 115
Width: 600
GlyphClass: 2
Flags: W
AnchorPoint: "Anchor-7" 300 689 basechar 0
AnchorPoint: "Anchor-6" 300 0 basechar 0
LayerCount: 2
Fore
SplineSet
302 104 m 1,0,-1
 479 689 l 1,1,-1
 579 689 l 1,2,-1
 354 0 l 1,3,-1
 246 0 l 1,4,-1
 21 689 l 1,5,-1
 127 689 l 1,6,-1
 302 104 l 1,0,-1
EndSplineSet
EndChar

StartChar: W
Encoding: 87 87 116
Width: 600
GlyphClass: 2
Flags: W
AnchorPoint: "Anchor-7" 300 689 basechar 0
AnchorPoint: "Anchor-6" 300 0 basechar 0
LayerCount: 2
Fore
SplineSet
596 689 m 1,0,-1
 496 0 l 1,1,-1
 373 0 l 1,2,-1
 298 516 l 1,3,-1
 222 0 l 1,4,-1
 96 0 l 1,5,-1
 4 689 l 1,6,-1
 101 689 l 1,7,-1
 166 102 l 1,8,-1
 245 609 l 1,9,-1
 357 609 l 1,10,-1
 432 102 l 1,11,-1
 506 689 l 1,12,-1
 596 689 l 1,0,-1
EndSplineSet
EndChar

StartChar: X
Encoding: 88 88 121
Width: 600
GlyphClass: 2
Flags: W
AnchorPoint: "Anchor-7" 300 689 basechar 0
AnchorPoint: "Anchor-6" 300 0 basechar 0
LayerCount: 2
Fore
SplineSet
44 689 m 1,0,-1
 157 689 l 1,1,-1
 300 432 l 1,2,-1
 445 689 l 1,3,-1
 551 689 l 1,4,-1
 357 372 l 1,5,-1
 574 0 l 1,6,-1
 461 0 l 1,7,-1
 298 303 l 1,8,-1
 133 0 l 1,9,-1
 27 0 l 1,10,-1
 239 367 l 1,11,-1
 44 689 l 1,0,-1
EndSplineSet
EndChar

StartChar: Y
Encoding: 89 89 122
Width: 600
GlyphClass: 2
Flags: W
AnchorPoint: "Anchor-7" 303 689 basechar 0
AnchorPoint: "Anchor-6" 300 0 basechar 0
LayerCount: 2
Fore
SplineSet
350 265 m 1,0,-1
 350 0 l 1,1,-1
 250 0 l 1,2,-1
 250 264 l 1,3,-1
 18 689 l 1,4,-1
 128 689 l 1,5,-1
 302 352 l 1,6,-1
 478 689 l 1,7,-1
 582 689 l 1,8,-1
 350 265 l 1,0,-1
EndSplineSet
EndChar

StartChar: Z
Encoding: 90 90 127
Width: 600
GlyphClass: 2
Flags: W
AnchorPoint: "Anchor-7" 318 689 basechar 0
AnchorPoint: "Anchor-6" 300 0 basechar 0
LayerCount: 2
Fore
SplineSet
178 84 m 1,0,-1
 533 84 l 1,1,-1
 522 0 l 1,2,-1
 66 0 l 1,3,-1
 66 79 l 1,4,-1
 424 606 l 1,5,-1
 102 606 l 1,6,-1
 102 689 l 1,7,-1
 532 689 l 1,8,-1
 532 609 l 1,9,-1
 178 84 l 1,0,-1
EndSplineSet
EndChar

StartChar: a
Encoding: 97 97 136
Width: 600
GlyphClass: 2
Flags: W
AnchorPoint: "Anchor-7" 292 527 basechar 0
AnchorPoint: "Anchor-6" 300 0 basechar 0
LayerCount: 2
Fore
SplineSet
493.5 75.5 m 128,-1,1
 503 61 503 61 526 54 c 1,2,-1
 503 -12 l 1,3,4
 424 -2 424 -2 401 62 c 1,5,6
 373 26 373 26 330 7 c 128,-1,7
 287 -12 287 -12 235 -12 c 0,8,9
 155 -12 155 -12 109 32.5 c 128,-1,10
 63 77 63 77 63 151 c 0,11,12
 63 233 63 233 127.5 277.5 c 128,-1,13
 192 322 192 322 312 322 c 2,14,-1
 388 322 l 1,15,-1
 388 361 l 2,16,17
 388 414 388 414 357 438 c 128,-1,18
 326 462 326 462 267 462 c 0,19,20
 205 462 205 462 128 435 c 1,21,-1
 103 505 l 1,22,23
 199 540 199 540 281 540 c 0,24,25
 381 540 381 540 432.5 494.5 c 128,-1,26
 484 449 484 449 484 367 c 2,27,-1
 484 121 l 2,28,0
 484 90 484 90 493.5 75.5 c 128,-1,1
332.5 78 m 128,-1,30
 366 97 366 97 388 131 c 1,31,-1
 388 259 l 1,32,-1
 318 259 l 2,33,34
 238 259 238 259 201.5 232 c 128,-1,35
 165 205 165 205 165 153 c 0,36,37
 165 107 165 107 189 83 c 128,-1,38
 213 59 213 59 261 59 c 0,39,29
 299 59 299 59 332.5 78 c 128,-1,30
EndSplineSet
Substitution2: "Single Substitution lookup 159 subtable" ordfeminine
Substitution2: "'aalt' Access All Alternates lookup 0 subtable" ordfeminine
EndChar

StartChar: aogonek
Encoding: 261 261 143
Width: 600
GlyphClass: 2
Flags: W
AnchorPoint: "Anchor-7" 292 527 basechar 0
AnchorPoint: "Anchor-6" 300 0 basechar 0
LayerCount: 2
Fore
SplineSet
406 -68.5 m 128,-1,1
 380 -95 380 -95 380 -126 c 0,2,3
 380 -174 380 -174 436 -174 c 0,4,5
 463 -174 463 -174 497 -167 c 1,6,-1
 488 -238 l 1,7,8
 453 -245 453 -245 425 -245 c 0,9,10
 367 -245 367 -245 332.5 -216.5 c 128,-1,11
 298 -188 298 -188 298 -143 c 0,12,13
 298 -93 298 -93 334 -56.5 c 128,-1,14
 370 -20 370 -20 444 7 c 1,15,16
 414 26 414 26 401 62 c 1,17,18
 373 26 373 26 330 7 c 128,-1,19
 287 -12 287 -12 235 -12 c 0,20,21
 155 -12 155 -12 109 32.5 c 128,-1,22
 63 77 63 77 63 151 c 0,23,24
 63 233 63 233 127.5 277.5 c 128,-1,25
 192 322 192 322 312 322 c 2,26,-1
 388 322 l 1,27,-1
 388 361 l 2,28,29
 388 414 388 414 357 438 c 128,-1,30
 326 462 326 462 267 462 c 0,31,32
 205 462 205 462 128 435 c 1,33,-1
 103 505 l 1,34,35
 199 540 199 540 281 540 c 0,36,37
 381 540 381 540 432.5 494.5 c 128,-1,38
 484 449 484 449 484 367 c 2,39,-1
 484 121 l 2,40,41
 484 90 484 90 493.5 75.5 c 128,-1,42
 503 61 503 61 526 54 c 1,43,-1
 503 -12 l 1,44,0
 432 -42 432 -42 406 -68.5 c 128,-1,1
388 259 m 1,45,-1
 318 259 l 2,46,47
 238 259 238 259 201.5 232 c 128,-1,48
 165 205 165 205 165 153 c 0,49,50
 165 107 165 107 189 83 c 128,-1,51
 213 59 213 59 261 59 c 0,52,53
 299 59 299 59 332.5 78 c 128,-1,54
 366 97 366 97 388 131 c 1,55,-1
 388 259 l 1,45,-1
EndSplineSet
EndChar

StartChar: ae
Encoding: 230 230 146
Width: 600
GlyphClass: 2
Flags: W
AnchorPoint: "Anchor-7" 308 527 basechar 0
AnchorPoint: "Anchor-6" 0 0 basechar 0
LayerCount: 2
Fore
SplineSet
564 472.5 m 128,-1,1
 606 405 606 405 606 279 c 0,2,3
 606 258 606 258 604 232 c 1,4,-1
 339 232 l 1,5,6
 346 145 346 145 372 104.5 c 128,-1,7
 398 64 398 64 449 64 c 0,8,9
 476 64 476 64 498.5 73 c 128,-1,10
 521 82 521 82 547 102 c 1,11,-1
 589 41 l 1,12,13
 557 15 557 15 522.5 1.5 c 128,-1,14
 488 -12 488 -12 447 -12 c 0,15,16
 395 -12 395 -12 358.5 10.5 c 128,-1,17
 322 33 322 33 296 76 c 1,18,19
 262 29 262 29 228.5 8.5 c 128,-1,20
 195 -12 195 -12 146 -12 c 0,21,22
 77 -12 77 -12 35.5 32.5 c 128,-1,23
 -6 77 -6 77 -6 151 c 0,24,25
 -6 234 -6 234 48 277.5 c 128,-1,26
 102 321 102 321 206 321 c 2,27,-1
 251 321 l 1,28,-1
 251 361 l 2,29,30
 251 465 251 465 160 465 c 0,31,32
 135 465 135 465 113.5 459 c 128,-1,33
 92 453 92 453 58 438 c 1,34,-1
 33 505 l 1,35,36
 106 540 106 540 170 540 c 0,37,38
 225 540 225 540 257.5 518 c 128,-1,39
 290 496 290 496 308 455 c 1,40,41
 323 495 323 495 355.5 517.5 c 128,-1,42
 388 540 388 540 434 540 c 0,43,0
 522 540 522 540 564 472.5 c 128,-1,1
366 428 m 128,-1,45
 345 391 345 391 339 301 c 1,46,-1
 518 301 l 1,47,48
 516 386 516 386 496.5 425.5 c 128,-1,49
 477 465 477 465 430 465 c 0,50,44
 387 465 387 465 366 428 c 128,-1,45
212 259 m 2,51,52
 147 259 147 259 119 232.5 c 128,-1,53
 91 206 91 206 91 156 c 0,54,55
 91 109 91 109 110 84 c 128,-1,56
 129 59 129 59 161 59 c 0,57,58
 191 59 191 59 214 80.5 c 128,-1,59
 237 102 237 102 264 150 c 1,60,61
 251 196 251 196 251 259 c 1,62,-1
 212 259 l 2,51,52
EndSplineSet
EndChar

StartChar: b
Encoding: 98 98 148
Width: 600
GlyphClass: 2
Flags: W
AnchorPoint: "Anchor-7" 300 739 basechar 0
AnchorPoint: "Anchor-6" 300 0 basechar 0
LayerCount: 2
Fore
SplineSet
258 519.5 m 128,-1,1
 296 540 296 540 340 540 c 0,2,3
 441 540 441 540 489 467.5 c 128,-1,4
 537 395 537 395 537 264 c 0,5,6
 537 141 537 141 481.5 64.5 c 128,-1,7
 426 -12 426 -12 327 -12 c 0,8,9
 237 -12 237 -12 186 54 c 1,10,-1
 180 0 l 1,11,-1
 95 0 l 1,12,-1
 95 739 l 1,13,-1
 191 751 l 1,14,-1
 191 461 l 1,15,0
 220 499 220 499 258 519.5 c 128,-1,1
400.5 113 m 128,-1,17
 434 163 434 163 434 264 c 0,18,19
 434 464 434 464 316 464 c 0,20,21
 278 464 278 464 246.5 441.5 c 128,-1,22
 215 419 215 419 191 383 c 1,23,-1
 191 128 l 1,24,25
 212 97 212 97 241 80 c 128,-1,26
 270 63 270 63 304 63 c 0,27,16
 367 63 367 63 400.5 113 c 128,-1,17
EndSplineSet
EndChar

StartChar: c
Encoding: 99 99 149
Width: 600
GlyphClass: 2
Flags: W
AnchorPoint: "Anchor-7" 344 518 basechar 0
AnchorPoint: "Anchor-6" 339 0 basechar 0
LayerCount: 2
Fore
SplineSet
475 114 m 1,1,-1
 520 52 l 1,2,3
 485 23 485 23 436.5 5.5 c 128,-1,4
 388 -12 388 -12 339 -12 c 0,5,6
 220 -12 220 -12 154 62 c 128,-1,7
 88 136 88 136 88 261 c 0,8,9
 88 341 88 341 118 404.5 c 128,-1,10
 148 468 148 468 205 504 c 128,-1,11
 262 540 262 540 340 540 c 0,12,13
 442 540 442 540 519 477 c 1,14,-1
 474 415 l 1,15,16
 407 461 407 461 341 461 c 0,17,18
 272 461 272 461 231.5 410.5 c 128,-1,19
 191 360 191 360 191 261 c 0,20,21
 191 163 191 163 231.5 116 c 128,-1,22
 272 69 272 69 341 69 c 0,23,0
 407 69 407 69 475 114 c 1,1,-1
EndSplineSet
EndChar

StartChar: ccedilla
Encoding: 231 231 152
Width: 600
GlyphClass: 2
Flags: W
AnchorPoint: "Anchor-7" 344 518 basechar 0
AnchorPoint: "Anchor-6" 339 0 basechar 0
LayerCount: 2
Fore
SplineSet
431.5 -84 m 128,-1,1
 455 -108 455 -108 455 -141 c 0,2,3
 455 -189 455 -189 419 -215.5 c 128,-1,4
 383 -242 383 -242 329 -242 c 0,5,6
 298 -242 298 -242 270 -235.5 c 128,-1,7
 242 -229 242 -229 222 -217 c 1,8,-1
 250 -165 l 1,9,10
 282 -181 282 -181 317 -181 c 0,11,12
 376 -181 376 -181 376 -141 c 0,13,14
 376 -117 376 -117 354.5 -108.5 c 128,-1,15
 333 -100 333 -100 289 -100 c 1,16,-1
 296 -9 l 1,17,18
 197 4 197 4 142.5 76 c 128,-1,19
 88 148 88 148 88 261 c 0,20,21
 88 341 88 341 118 404.5 c 128,-1,22
 148 468 148 468 205 504 c 128,-1,23
 262 540 262 540 340 540 c 0,24,25
 442 540 442 540 519 477 c 1,26,-1
 474 415 l 1,27,28
 407 461 407 461 341 461 c 0,29,30
 272 461 272 461 231.5 410.5 c 128,-1,31
 191 360 191 360 191 261 c 0,32,33
 191 163 191 163 231.5 116 c 128,-1,34
 272 69 272 69 341 69 c 0,35,36
 407 69 407 69 475 114 c 1,37,-1
 520 52 l 1,38,39
 490 26 490 26 447.5 9.5 c 128,-1,40
 405 -7 405 -7 361 -11 c 1,41,-1
 361 -56 l 1,42,0
 408 -60 408 -60 431.5 -84 c 128,-1,1
EndSplineSet
EndChar

StartChar: d
Encoding: 100 100 155
Width: 600
GlyphClass: 2
Flags: W
AnchorPoint: "Anchor-7" 300 739 basechar 0
AnchorPoint: "Anchor-6" 300 0 basechar 0
LayerCount: 2
Fore
SplineSet
505 739 m 1,0,-1
 505 0 l 1,1,-1
 420 0 l 1,2,-1
 412 67 l 1,3,4
 385 28 385 28 347 8 c 128,-1,5
 309 -12 309 -12 263 -12 c 0,6,7
 163 -12 163 -12 113 61.5 c 128,-1,8
 63 135 63 135 63 263 c 0,9,10
 63 343 63 343 88 406 c 128,-1,11
 113 469 113 469 160 504.5 c 128,-1,12
 207 540 207 540 271 540 c 0,13,14
 356 540 356 540 409 479 c 1,15,-1
 409 751 l 1,16,-1
 505 739 l 1,0,-1
199.5 413.5 m 128,-1,18
 166 363 166 363 166 263 c 0,19,20
 166 162 166 162 196.5 112.5 c 128,-1,21
 227 63 227 63 286 63 c 0,22,23
 357 63 357 63 409 143 c 1,24,-1
 409 400 l 1,25,26
 388 431 388 431 359 447.5 c 128,-1,27
 330 464 330 464 296 464 c 0,28,17
 233 464 233 464 199.5 413.5 c 128,-1,18
EndSplineSet
EndChar

StartChar: eth
Encoding: 240 240 156
Width: 600
Flags: W
LayerCount: 2
Fore
SplineSet
239 644 m 1,0,1
 194 666 194 666 127 678 c 1,2,-1
 147 750 l 1,3,4
 238 733 238 733 296 703 c 1,5,-1
 366 777 l 1,6,-1
 422 729 l 1,7,-1
 362 666 l 1,8,9
 451 605 451 605 493.5 507 c 128,-1,10
 536 409 536 409 536 266 c 0,11,12
 536 183 536 183 506.5 120 c 128,-1,13
 477 57 477 57 422.5 22.5 c 128,-1,14
 368 -12 368 -12 295 -12 c 0,15,16
 230 -12 230 -12 177 17 c 128,-1,17
 124 46 124 46 93.5 102 c 128,-1,18
 63 158 63 158 63 235 c 0,19,20
 63 307 63 307 92 363 c 128,-1,21
 121 419 121 419 170 450 c 128,-1,22
 219 481 219 481 276 481 c 0,23,24
 369 481 369 481 429 415 c 1,25,26
 415 476 415 476 382.5 524.5 c 128,-1,27
 350 573 350 573 304 607 c 1,28,-1
 229 531 l 1,29,-1
 163 563 l 1,30,-1
 239 644 l 1,0,1
436 332 m 1,32,33
 412 368 412 368 374.5 387.5 c 128,-1,34
 337 407 337 407 291 407 c 0,35,36
 235 407 235 407 198 364.5 c 128,-1,37
 161 322 161 322 161 239 c 0,38,39
 161 154 161 154 197 108.5 c 128,-1,40
 233 63 233 63 294 63 c 0,41,42
 363 63 363 63 401 115 c 128,-1,43
 439 167 439 167 439 265 c 0,44,31
 439 301 439 301 436 332 c 1,32,33
EndSplineSet
EndChar

StartChar: dcroat
Encoding: 273 273 158
Width: 600
GlyphClass: 2
Flags: W
AnchorPoint: "Anchor-7" 299 739 basechar 0
AnchorPoint: "Anchor-6" 299 0 basechar 0
LayerCount: 2
Fore
SplineSet
583 597 m 1,0,-1
 504 597 l 1,1,-1
 504 0 l 1,2,-1
 419 0 l 1,3,-1
 411 67 l 1,4,5
 384 28 384 28 346 8 c 128,-1,6
 308 -12 308 -12 262 -12 c 0,7,8
 162 -12 162 -12 112 61.5 c 128,-1,9
 62 135 62 135 62 263 c 0,10,11
 62 343 62 343 87 406 c 128,-1,12
 112 469 112 469 159 504.5 c 128,-1,13
 206 540 206 540 270 540 c 0,14,15
 355 540 355 540 408 479 c 1,16,-1
 408 597 l 1,17,-1
 244 597 l 1,18,-1
 244 668 l 1,19,-1
 408 668 l 1,20,-1
 408 751 l 1,21,-1
 504 739 l 1,22,-1
 504 668 l 1,23,-1
 583 668 l 1,24,-1
 583 597 l 1,0,-1
408 400 m 1,25,26
 387 431 387 431 358 447.5 c 128,-1,27
 329 464 329 464 295 464 c 0,28,29
 232 464 232 464 198.5 413.5 c 128,-1,30
 165 363 165 363 165 263 c 0,31,32
 165 162 165 162 195.5 112.5 c 128,-1,33
 226 63 226 63 285 63 c 0,34,35
 356 63 356 63 408 143 c 1,36,-1
 408 400 l 1,25,26
EndSplineSet
EndChar

StartChar: e
Encoding: 101 101 159
Width: 600
GlyphClass: 2
Flags: W
AnchorPoint: "Anchor-7" 310 527 basechar 0
AnchorPoint: "Anchor-6" 300 0 basechar 0
LayerCount: 2
Fore
SplineSet
218.5 106.5 m 128,-1,1
 260 65 260 65 323 65 c 0,2,3
 361 65 361 65 394 76.5 c 128,-1,4
 427 88 427 88 463 112 c 1,5,-1
 506 51 l 1,6,7
 469 21 469 21 420 4.5 c 128,-1,8
 371 -12 371 -12 320 -12 c 0,9,10
 203 -12 203 -12 138 63 c 128,-1,11
 73 138 73 138 73 263 c 0,12,13
 73 343 73 343 101.5 405.5 c 128,-1,14
 130 468 130 468 183.5 504 c 128,-1,15
 237 540 237 540 308 540 c 0,16,17
 410 540 410 540 469 470 c 128,-1,18
 528 400 528 400 528 279 c 0,19,20
 528 255 528 255 526 231 c 1,21,-1
 173 231 l 1,22,0
 177 148 177 148 218.5 106.5 c 128,-1,1
214.5 423.5 m 128,-1,24
 178 382 178 382 173 301 c 1,25,-1
 435 301 l 1,26,27
 434 380 434 380 400.5 422.5 c 128,-1,28
 367 465 367 465 309 465 c 256,29,23
 251 465 251 465 214.5 423.5 c 128,-1,24
EndSplineSet
EndChar

StartChar: eogonek
Encoding: 281 281 168
Width: 600
GlyphClass: 2
Flags: W
AnchorPoint: "Anchor-7" 310 527 basechar 0
AnchorPoint: "Anchor-6" 300 0 basechar 0
LayerCount: 2
Fore
SplineSet
526 231 m 1,1,-1
 173 231 l 1,2,3
 177 148 177 148 218.5 106.5 c 128,-1,4
 260 65 260 65 323 65 c 0,5,6
 361 65 361 65 394 76.5 c 128,-1,7
 427 88 427 88 463 112 c 1,8,-1
 506 51 l 1,9,10
 465 17 465 17 405 0 c 1,11,12
 334 -30 334 -30 308 -56.5 c 128,-1,13
 282 -83 282 -83 282 -114 c 0,14,15
 282 -162 282 -162 338 -162 c 0,16,17
 365 -162 365 -162 399 -155 c 1,18,-1
 390 -226 l 1,19,20
 355 -233 355 -233 327 -233 c 0,21,22
 269 -233 269 -233 234.5 -204.5 c 128,-1,23
 200 -176 200 -176 200 -131 c 0,24,25
 200 -54 200 -54 295 -11 c 1,26,27
 190 -3 190 -3 131.5 71 c 128,-1,28
 73 145 73 145 73 263 c 0,29,30
 73 343 73 343 101.5 405.5 c 128,-1,31
 130 468 130 468 183.5 504 c 128,-1,32
 237 540 237 540 308 540 c 0,33,34
 410 540 410 540 469 470 c 128,-1,35
 528 400 528 400 528 279 c 0,36,0
 528 255 528 255 526 231 c 1,1,-1
435 301 m 1,37,38
 434 380 434 380 400.5 422.5 c 128,-1,39
 367 465 367 465 309 465 c 256,40,41
 251 465 251 465 214.5 423.5 c 128,-1,42
 178 382 178 382 173 301 c 1,43,-1
 435 301 l 1,37,38
EndSplineSet
EndChar

StartChar: f
Encoding: 102 102 169
Width: 600
GlyphClass: 2
Flags: W
AnchorPoint: "Anchor-7" 370 739 basechar 0
AnchorPoint: "Anchor-6" 262 0 basechar 0
LayerCount: 2
Fore
SplineSet
560 721 m 1,1,-1
 530 652 l 1,2,3
 480 674 480 674 417 674 c 0,4,5
 310 674 310 674 310 589 c 2,6,-1
 310 488 l 1,7,-1
 488 488 l 1,8,-1
 477 414 l 1,9,-1
 310 414 l 1,10,-1
 310 0 l 1,11,-1
 214 0 l 1,12,-1
 214 414 l 1,13,-1
 91 414 l 1,14,-1
 91 488 l 1,15,-1
 214 488 l 1,16,-1
 214 588 l 2,17,18
 214 662 214 662 269 706.5 c 128,-1,19
 324 751 324 751 411 751 c 0,20,0
 490 751 490 751 560 721 c 1,1,-1
EndSplineSet
EndChar

StartChar: g
Encoding: 103 103 170
Width: 600
GlyphClass: 2
Flags: W
AnchorPoint: "Anchor-7" 294 527 basechar 0
AnchorPoint: "Anchor-6" 0 0 basechar 0
LayerCount: 2
Fore
SplineSet
558 503 m 1,0,1
 528 493 528 493 492.5 490 c 128,-1,2
 457 487 457 487 404 487 c 1,3,4
 451 465 451 465 474.5 432 c 128,-1,5
 498 399 498 399 498 353 c 0,6,7
 498 274 498 274 443.5 224 c 128,-1,8
 389 174 389 174 295 174 c 0,9,10
 250 174 250 174 219 184 c 1,11,12
 208 175 208 175 201 162.5 c 128,-1,13
 194 150 194 150 194 136 c 0,14,15
 194 94 194 94 262 94 c 2,16,-1
 356 94 l 2,17,18
 410 94 410 94 453 75 c 128,-1,19
 496 56 496 56 520.5 23 c 128,-1,20
 545 -10 545 -10 545 -51 c 0,21,22
 545 -129 545 -129 478.5 -171.5 c 128,-1,23
 412 -214 412 -214 288 -214 c 0,24,25
 202 -214 202 -214 152 -196.5 c 128,-1,26
 102 -179 102 -179 81 -144 c 128,-1,27
 60 -109 60 -109 60 -53 c 1,28,-1
 147 -53 l 1,29,30
 147 -84 147 -84 158.5 -102.5 c 128,-1,31
 170 -121 170 -121 200.5 -130.5 c 128,-1,32
 231 -140 231 -140 288 -140 c 0,33,34
 371 -140 371 -140 409.5 -119 c 128,-1,35
 448 -98 448 -98 448 -57 c 0,36,37
 448 -23 448 -23 417 -4 c 128,-1,38
 386 15 386 15 336 15 c 2,39,-1
 244 15 l 2,40,41
 176 15 176 15 141 43.5 c 128,-1,42
 106 72 106 72 106 115 c 0,43,44
 106 141 106 141 121 166 c 128,-1,45
 136 191 136 191 164 209 c 1,46,47
 118 233 118 233 96.5 268.5 c 128,-1,48
 75 304 75 304 75 355 c 0,49,50
 75 409 75 409 102 451 c 128,-1,51
 129 493 129 493 177.5 516.5 c 128,-1,52
 226 540 226 540 289 540 c 0,53,54
 378 539 378 539 427 550.5 c 128,-1,55
 476 562 476 562 531 588 c 1,56,-1
 558 503 l 1,0,1
202.5 439.5 m 128,-1,58
 173 408 173 408 173 355 c 0,59,60
 173 301 173 301 203 269.5 c 128,-1,61
 233 238 233 238 291 238 c 0,62,63
 344 238 344 238 372 268.5 c 128,-1,64
 400 299 400 299 400 356 c 0,65,66
 400 471 400 471 289 471 c 0,67,57
 232 471 232 471 202.5 439.5 c 128,-1,58
EndSplineSet
EndChar

StartChar: gcommaaccent
Encoding: 291 291 173
Width: 600
GlyphClass: 2
Flags: W
AnchorPoint: "Anchor-7" 294 527 basechar 0
AnchorPoint: "Anchor-6" 0 0 basechar 0
LayerCount: 2
Fore
SplineSet
249.5 613 m 128,-1,1
 233 629 233 629 233 654 c 0,2,3
 233 678 233 678 249 713 c 2,4,-1
 299 819 l 1,5,-1
 355 819 l 1,6,-1
 326 702 l 1,7,8
 349 684 349 684 349 654 c 0,9,10
 349 629 349 629 332.5 613 c 128,-1,11
 316 597 316 597 291 597 c 256,12,0
 266 597 266 597 249.5 613 c 128,-1,1
558 503 m 1,13,14
 528 493 528 493 492.5 490 c 128,-1,15
 457 487 457 487 404 487 c 1,16,17
 451 465 451 465 474.5 432 c 128,-1,18
 498 399 498 399 498 353 c 0,19,20
 498 274 498 274 443.5 224 c 128,-1,21
 389 174 389 174 295 174 c 0,22,23
 250 174 250 174 219 184 c 1,24,25
 208 175 208 175 201 162.5 c 128,-1,26
 194 150 194 150 194 136 c 0,27,28
 194 94 194 94 262 94 c 2,29,-1
 356 94 l 2,30,31
 410 94 410 94 453 75 c 128,-1,32
 496 56 496 56 520.5 23 c 128,-1,33
 545 -10 545 -10 545 -51 c 0,34,35
 545 -129 545 -129 478.5 -171.5 c 128,-1,36
 412 -214 412 -214 288 -214 c 0,37,38
 202 -214 202 -214 152 -196.5 c 128,-1,39
 102 -179 102 -179 81 -144 c 128,-1,40
 60 -109 60 -109 60 -53 c 1,41,-1
 147 -53 l 1,42,43
 147 -84 147 -84 158.5 -102.5 c 128,-1,44
 170 -121 170 -121 200.5 -130.5 c 128,-1,45
 231 -140 231 -140 288 -140 c 0,46,47
 371 -140 371 -140 409.5 -119 c 128,-1,48
 448 -98 448 -98 448 -57 c 0,49,50
 448 -23 448 -23 417 -4 c 128,-1,51
 386 15 386 15 336 15 c 2,52,-1
 244 15 l 2,53,54
 176 15 176 15 141 43.5 c 128,-1,55
 106 72 106 72 106 115 c 0,56,57
 106 141 106 141 121 166 c 128,-1,58
 136 191 136 191 164 209 c 1,59,60
 118 233 118 233 96.5 268.5 c 128,-1,61
 75 304 75 304 75 355 c 0,62,63
 75 409 75 409 102 451 c 128,-1,64
 129 493 129 493 177.5 516.5 c 128,-1,65
 226 540 226 540 289 540 c 0,66,67
 378 539 378 539 427 550.5 c 128,-1,68
 476 562 476 562 531 588 c 1,69,-1
 558 503 l 1,13,14
202.5 439.5 m 128,-1,71
 173 408 173 408 173 355 c 0,72,73
 173 301 173 301 203 269.5 c 128,-1,74
 233 238 233 238 291 238 c 0,75,76
 344 238 344 238 372 268.5 c 128,-1,77
 400 299 400 299 400 356 c 0,78,79
 400 471 400 471 289 471 c 0,80,70
 232 471 232 471 202.5 439.5 c 128,-1,71
EndSplineSet
EndChar

StartChar: h
Encoding: 104 104 175
Width: 600
GlyphClass: 2
Flags: W
AnchorPoint: "Anchor-7" 300 739 basechar 0
AnchorPoint: "Anchor-6" 300 0 basechar 0
LayerCount: 2
Fore
SplineSet
191 458 m 1,0,1
 223 498 223 498 267 519 c 128,-1,2
 311 540 311 540 358 540 c 0,3,4
 432 540 432 540 469 499.5 c 128,-1,5
 506 459 506 459 506 383 c 2,6,-1
 506 0 l 1,7,-1
 410 0 l 1,8,-1
 410 375 l 2,9,10
 410 422 410 422 389.5 443.5 c 128,-1,11
 369 465 369 465 325 465 c 0,12,13
 286 465 286 465 250.5 440.5 c 128,-1,14
 215 416 215 416 191 381 c 1,15,-1
 191 0 l 1,16,-1
 95 0 l 1,17,-1
 95 738 l 1,18,-1
 191 749 l 1,19,-1
 191 458 l 1,0,1
EndSplineSet
EndChar

StartChar: hbar
Encoding: 295 295 176
Width: 600
GlyphClass: 2
Flags: W
AnchorPoint: "Anchor-7" 300 739 basechar 0
AnchorPoint: "Anchor-6" 300 0 basechar 0
LayerCount: 2
Fore
SplineSet
469 499.5 m 128,-1,1
 506 459 506 459 506 383 c 2,2,-1
 506 0 l 1,3,-1
 410 0 l 1,4,-1
 410 375 l 2,5,6
 410 422 410 422 389.5 443.5 c 128,-1,7
 369 465 369 465 325 465 c 0,8,9
 286 465 286 465 250.5 440.5 c 128,-1,10
 215 416 215 416 191 381 c 1,11,-1
 191 0 l 1,12,-1
 95 0 l 1,13,-1
 95 597 l 1,14,-1
 17 597 l 1,15,-1
 17 668 l 1,16,-1
 95 668 l 1,17,-1
 95 738 l 1,18,-1
 191 749 l 1,19,-1
 191 668 l 1,20,-1
 356 668 l 1,21,-1
 356 597 l 1,22,-1
 191 597 l 1,23,-1
 191 458 l 1,24,25
 223 498 223 498 267 519 c 128,-1,26
 311 540 311 540 358 540 c 0,27,0
 432 540 432 540 469 499.5 c 128,-1,1
EndSplineSet
EndChar

StartChar: i
Encoding: 105 105 178
Width: 600
GlyphClass: 2
Flags: W
AnchorPoint: "Anchor-7" 0 0 basechar 0
AnchorPoint: "Anchor-6" 300 0 basechar 0
LayerCount: 2
Fore
SplineSet
348.5 760.5 m 128,-1,1
 367 742 367 742 367 715 c 0,2,3
 367 687 367 687 348.5 669 c 128,-1,4
 330 651 330 651 300 651 c 0,5,6
 271 651 271 651 252.5 669 c 128,-1,7
 234 687 234 687 234 715 c 0,8,9
 234 742 234 742 252.5 760.5 c 128,-1,10
 271 779 271 779 300 779 c 0,11,0
 330 779 330 779 348.5 760.5 c 128,-1,1
371 527 m 1,12,-1
 371 73 l 1,13,-1
 518 73 l 1,14,-1
 518 0 l 1,15,-1
 115 0 l 1,16,-1
 115 73 l 1,17,-1
 275 73 l 1,18,-1
 275 454 l 1,19,-1
 120 454 l 1,20,-1
 120 527 l 1,21,-1
 371 527 l 1,12,-1
EndSplineSet
Substitution2: "'locl' Localized Forms in Latin lookup 21 subtable" i.loclTRK
Substitution2: "'locl' Localized Forms in Latin lookup 19 subtable" i.loclTRK
Substitution2: "'locl' Localized Forms in Latin lookup 17 subtable" i.loclTRK
Substitution2: "'locl' Localized Forms in Latin lookup 14 subtable" i.loclTRK
Substitution2: "'locl' Localized Forms in Latin lookup 13 subtable" i.loclTRK
Substitution2: "'aalt' Access All Alternates lookup 0 subtable" i.loclTRK
EndChar

StartChar: dotlessi
Encoding: 305 305 179
Width: 600
GlyphClass: 2
Flags: W
AnchorPoint: "Anchor-7" 301 527 basechar 0
AnchorPoint: "Anchor-6" 0 0 basechar 0
LayerCount: 2
Fore
SplineSet
371 527 m 1,0,-1
 371 73 l 1,1,-1
 518 73 l 1,2,-1
 518 0 l 1,3,-1
 115 0 l 1,4,-1
 115 73 l 1,5,-1
 275 73 l 1,6,-1
 275 454 l 1,7,-1
 120 454 l 1,8,-1
 120 527 l 1,9,-1
 371 527 l 1,0,-1
EndSplineSet
EndChar

StartChar: ij
Encoding: 307 307 186
Width: 600
Flags: W
LayerCount: 2
Fore
SplineSet
232 760.5 m 128,-1,1
 251 742 251 742 251 715 c 0,2,3
 251 687 251 687 232 669 c 128,-1,4
 213 651 213 651 184 651 c 256,5,6
 155 651 155 651 136.5 669 c 128,-1,7
 118 687 118 687 118 715 c 0,8,9
 118 742 118 742 136.5 760.5 c 128,-1,10
 155 779 155 779 184 779 c 256,11,0
 213 779 213 779 232 760.5 c 128,-1,1
497 760.5 m 128,-1,13
 516 742 516 742 516 715 c 0,14,15
 516 687 516 687 497 669 c 128,-1,16
 478 651 478 651 449 651 c 256,17,18
 420 651 420 651 402 669 c 128,-1,19
 384 687 384 687 384 715 c 0,20,21
 384 742 384 742 402 760.5 c 128,-1,22
 420 779 420 779 449 779 c 256,23,12
 478 779 478 779 497 760.5 c 128,-1,13
507 66 m 2,24,25
 507 -43 507 -43 438 -108.5 c 128,-1,26
 369 -174 369 -174 245 -214 c 1,27,-1
 216 -140 l 1,28,29
 309 -106 309 -106 361 -62 c 128,-1,30
 413 -18 413 -18 413 59 c 2,31,-1
 413 456 l 1,32,-1
 229 456 l 1,33,-1
 229 73 l 1,34,-1
 318 73 l 1,35,-1
 318 0 l 1,36,-1
 46 0 l 1,37,-1
 46 73 l 1,38,-1
 136 73 l 1,39,-1
 136 456 l 1,40,-1
 51 456 l 1,41,-1
 51 527 l 1,42,-1
 507 527 l 1,43,-1
 507 66 l 2,24,25
EndSplineSet
EndChar

StartChar: iogonek
Encoding: 303 303 188
Width: 600
GlyphClass: 2
Flags: W
AnchorPoint: "Anchor-7" 301 527 basechar 0
AnchorPoint: "Anchor-6" 0 0 basechar 0
LayerCount: 2
Fore
SplineSet
252.5 669 m 128,-1,1
 234 687 234 687 234 715 c 0,2,3
 234 742 234 742 252.5 760.5 c 128,-1,4
 271 779 271 779 300 779 c 0,5,6
 330 779 330 779 348.5 760.5 c 128,-1,7
 367 742 367 742 367 715 c 0,8,9
 367 687 367 687 348.5 669 c 128,-1,10
 330 651 330 651 300 651 c 0,11,0
 271 651 271 651 252.5 669 c 128,-1,1
518 73 m 1,12,-1
 518 0 l 1,13,-1
 371 0 l 1,14,15
 300 -30 300 -30 274 -56.5 c 128,-1,16
 248 -83 248 -83 248 -114 c 0,17,18
 248 -162 248 -162 304 -162 c 0,19,20
 331 -162 331 -162 365 -155 c 1,21,-1
 356 -226 l 1,22,23
 321 -233 321 -233 293 -233 c 0,24,25
 235 -233 235 -233 200.5 -204.5 c 128,-1,26
 166 -176 166 -176 166 -131 c 0,27,28
 166 -49 166 -49 266 0 c 1,29,-1
 115 0 l 1,30,-1
 115 73 l 1,31,-1
 275 73 l 1,32,-1
 275 454 l 1,33,-1
 120 454 l 1,34,-1
 120 527 l 1,35,-1
 371 527 l 1,36,-1
 371 73 l 1,37,-1
 518 73 l 1,12,-1
EndSplineSet
EndChar

StartChar: j
Encoding: 106 106 190
Width: 600
GlyphClass: 2
Flags: W
AnchorPoint: "Anchor-7" 368 527 basechar 0
AnchorPoint: "Anchor-6" 0 0 basechar 0
LayerCount: 2
Fore
SplineSet
415.5 760.5 m 128,-1,1
 434 742 434 742 434 715 c 0,2,3
 434 687 434 687 415.5 669 c 128,-1,4
 397 651 397 651 367 651 c 0,5,6
 338 651 338 651 319.5 669 c 128,-1,7
 301 687 301 687 301 715 c 0,8,9
 301 742 301 742 319.5 760.5 c 128,-1,10
 338 779 338 779 367 779 c 0,11,0
 397 779 397 779 415.5 760.5 c 128,-1,1
449 96 m 2,12,13
 449 -38 449 -38 363 -111 c 128,-1,14
 277 -184 277 -184 107 -214 c 1,15,-1
 92 -140 l 1,16,17
 219 -117 219 -117 286 -64.5 c 128,-1,18
 353 -12 353 -12 353 90 c 2,19,-1
 353 454 l 1,20,-1
 139 454 l 1,21,-1
 139 527 l 1,22,-1
 449 527 l 1,23,-1
 449 96 l 2,12,13
EndSplineSet
EndChar

StartChar: uni0237
Encoding: 567 567 191
Width: 600
GlyphClass: 2
Flags: W
AnchorPoint: "Anchor-7" 368 527 basechar 0
AnchorPoint: "Anchor-6" 0 0 basechar 0
LayerCount: 2
Fore
SplineSet
449 96 m 2,0,1
 449 -38 449 -38 363 -111 c 128,-1,2
 277 -184 277 -184 107 -214 c 1,3,-1
 92 -140 l 1,4,5
 219 -117 219 -117 286 -64.5 c 128,-1,6
 353 -12 353 -12 353 90 c 2,7,-1
 353 454 l 1,8,-1
 139 454 l 1,9,-1
 139 527 l 1,10,-1
 449 527 l 1,11,-1
 449 96 l 2,0,1
EndSplineSet
EndChar

StartChar: k
Encoding: 107 107 193
Width: 600
GlyphClass: 2
Flags: W
AnchorPoint: "Anchor-7" 300 739 basechar 0
AnchorPoint: "Anchor-6" 305 0 basechar 0
LayerCount: 2
Fore
SplineSet
196 751 m 1,0,-1
 196 0 l 1,1,-1
 100 0 l 1,2,-1
 100 739 l 1,3,-1
 196 751 l 1,0,-1
547 527 m 1,4,-1
 320 290 l 1,5,-1
 572 0 l 1,6,-1
 450 0 l 1,7,-1
 205 288 l 1,8,-1
 429 527 l 1,9,-1
 547 527 l 1,4,-1
EndSplineSet
EndChar

StartChar: kgreenlandic
Encoding: 312 312 195
Width: 600
GlyphClass: 2
Flags: W
AnchorPoint: "Anchor-7" 300 527 basechar 0
AnchorPoint: "Anchor-6" 300 0 basechar 0
LayerCount: 2
Fore
SplineSet
191 527 m 1,0,-1
 191 0 l 1,1,-1
 95 0 l 1,2,-1
 95 527 l 1,3,-1
 191 527 l 1,0,-1
542 527 m 1,4,-1
 313 288 l 1,5,-1
 567 0 l 1,6,-1
 446 0 l 1,7,-1
 200 282 l 1,8,-1
 424 527 l 1,9,-1
 542 527 l 1,4,-1
EndSplineSet
EndChar

StartChar: l
Encoding: 108 108 196
Width: 600
GlyphClass: 2
Flags: W
AnchorPoint: "Anchor-7" 264 739 basechar 0
AnchorPoint: "Anchor-6" 360 0 basechar 0
LayerCount: 2
Fore
SplineSet
312 136 m 2,0,1
 312 67 312 67 396 67 c 0,2,3
 437 67 437 67 483 85 c 1,4,-1
 507 16 l 1,5,6
 453 -12 453 -12 378 -12 c 256,7,8
 303 -12 303 -12 259.5 29.5 c 128,-1,9
 216 71 216 71 216 143 c 2,10,-1
 216 666 l 1,11,-1
 56 666 l 1,12,-1
 56 739 l 1,13,-1
 312 739 l 1,14,-1
 312 136 l 2,0,1
EndSplineSet
EndChar

StartChar: lslash
Encoding: 322 322 201
Width: 600
GlyphClass: 2
Flags: W
AnchorPoint: "Anchor-7" 264 739 basechar 0
AnchorPoint: "Anchor-6" 360 0 basechar 0
LayerCount: 2
Fore
SplineSet
507 16 m 1,0,1
 453 -12 453 -12 378 -12 c 256,2,3
 303 -12 303 -12 259.5 29.5 c 128,-1,4
 216 71 216 71 216 143 c 2,5,-1
 216 298 l 1,6,-1
 152 259 l 1,7,-1
 113 319 l 1,8,-1
 216 381 l 1,9,-1
 216 666 l 1,10,-1
 56 666 l 1,11,-1
 56 739 l 1,12,-1
 312 739 l 1,13,-1
 312 441 l 1,14,-1
 398 494 l 1,15,-1
 437 434 l 1,16,-1
 312 357 l 1,17,-1
 312 136 l 2,18,19
 312 67 312 67 396 67 c 0,20,21
 437 67 437 67 483 85 c 1,22,-1
 507 16 l 1,0,1
EndSplineSet
EndChar

StartChar: m
Encoding: 109 109 202
Width: 600
GlyphClass: 2
Flags: W
AnchorPoint: "Anchor-7" 300 527 basechar 0
AnchorPoint: "Anchor-6" 300 0 basechar 0
LayerCount: 2
Fore
SplineSet
553 392 m 2,1,-1
 553 0 l 1,2,-1
 466 0 l 1,3,-1
 466 378 l 2,4,5
 466 428 466 428 459.5 446.5 c 128,-1,6
 453 465 453 465 428 465 c 0,7,8
 381 465 381 465 342 406 c 1,9,-1
 342 0 l 1,10,-1
 258 0 l 1,11,-1
 258 378 l 2,12,13
 258 428 258 428 251.5 446.5 c 128,-1,14
 245 465 245 465 220 465 c 0,15,16
 173 465 173 465 134 406 c 1,17,-1
 134 0 l 1,18,-1
 47 0 l 1,19,-1
 47 527 l 1,20,-1
 120 527 l 1,21,-1
 127 468 l 1,22,23
 152 503 152 503 178.5 521.5 c 128,-1,24
 205 540 205 540 241 540 c 0,25,26
 313 540 313 540 334 471 c 1,27,28
 358 505 358 505 385.5 522.5 c 128,-1,29
 413 540 413 540 450 540 c 0,30,0
 553 540 553 540 553 392 c 2,1,-1
EndSplineSet
EndChar

StartChar: n
Encoding: 110 110 203
Width: 600
GlyphClass: 2
Flags: W
AnchorPoint: "Anchor-7" 300 527 basechar 0
AnchorPoint: "Anchor-6" 301 0 basechar 0
LayerCount: 2
Fore
SplineSet
95 527 m 1,0,-1
 178 527 l 1,1,-1
 185 456 l 1,2,3
 217 496 217 496 263.5 518 c 128,-1,4
 310 540 310 540 358 540 c 0,5,6
 432 540 432 540 469 499.5 c 128,-1,7
 506 459 506 459 506 383 c 2,8,-1
 506 0 l 1,9,-1
 410 0 l 1,10,-1
 410 324 l 2,11,12
 410 379 410 379 404 408 c 128,-1,13
 398 437 398 437 380 451 c 128,-1,14
 362 465 362 465 326 465 c 0,15,16
 286 465 286 465 250.5 440.5 c 128,-1,17
 215 416 215 416 191 381 c 1,18,-1
 191 0 l 1,19,-1
 95 0 l 1,20,-1
 95 527 l 1,0,-1
EndSplineSet
EndChar

StartChar: napostrophe
Encoding: 329 329 205
Width: 600
GlyphClass: 2
Flags: W
AnchorPoint: "Anchor-7" 311 527 basechar 0
AnchorPoint: "Anchor-6" 312 0 basechar 0
LayerCount: 2
Fore
SplineSet
104 737.5 m 128,-1,1
 121 721 121 721 121 697 c 0,2,3
 121 683 121 683 115.5 667.5 c 128,-1,4
 110 652 110 652 95 620 c 2,5,-1
 54 534 l 1,6,-1
 0 534 l 1,7,-1
 28 649 l 1,8,9
 4 670 4 670 4 697 c 0,10,11
 4 721 4 721 21 737.5 c 128,-1,12
 38 754 38 754 63 754 c 0,13,0
 87 754 87 754 104 737.5 c 128,-1,1
106 527 m 1,14,-1
 189 527 l 1,15,-1
 196 456 l 1,16,17
 228 496 228 496 274.5 518 c 128,-1,18
 321 540 321 540 369 540 c 0,19,20
 443 540 443 540 480 499.5 c 128,-1,21
 517 459 517 459 517 383 c 2,22,-1
 517 0 l 1,23,-1
 421 0 l 1,24,-1
 421 324 l 2,25,26
 421 379 421 379 415 408 c 128,-1,27
 409 437 409 437 391 451 c 128,-1,28
 373 465 373 465 337 465 c 0,29,30
 297 465 297 465 261.5 440.5 c 128,-1,31
 226 416 226 416 202 381 c 1,32,-1
 202 0 l 1,33,-1
 106 0 l 1,34,-1
 106 527 l 1,14,-1
EndSplineSet
Ligature2: "'locl' Localized Forms in Latin lookup 22 subtable" quoteright n
Ligature2: "'locl' Localized Forms in Latin lookup 22 subtable" quotesingle n
EndChar

StartChar: eng
Encoding: 331 331 208
Width: 600
Flags: W
LayerCount: 2
Fore
SplineSet
488 -86.5 m 128,-1,1
 470 -132 470 -132 436 -159 c 128,-1,2
 402 -186 402 -186 342 -213 c 1,3,-1
 306 -143 l 1,4,5
 345 -125 345 -125 366.5 -107.5 c 128,-1,6
 388 -90 388 -90 399 -58.5 c 128,-1,7
 410 -27 410 -27 410 27 c 2,8,-1
 410 324 l 2,9,10
 410 379 410 379 404 408 c 128,-1,11
 398 437 398 437 380 451 c 128,-1,12
 362 465 362 465 325 465 c 0,13,14
 286 465 286 465 250.5 440.5 c 128,-1,15
 215 416 215 416 191 381 c 1,16,-1
 191 0 l 1,17,-1
 95 0 l 1,18,-1
 95 527 l 1,19,-1
 178 527 l 1,20,-1
 185 456 l 1,21,22
 217 496 217 496 263.5 518 c 128,-1,23
 310 540 310 540 358 540 c 0,24,25
 432 540 432 540 469 499.5 c 128,-1,26
 506 459 506 459 506 383 c 2,27,-1
 506 34 l 2,28,0
 506 -41 506 -41 488 -86.5 c 128,-1,1
EndSplineSet
EndChar

StartChar: o
Encoding: 111 111 210
Width: 600
GlyphClass: 2
Flags: W
AnchorPoint: "Anchor-7" 300 527 basechar 0
AnchorPoint: "Anchor-6" 300 0 basechar 0
LayerCount: 2
Fore
SplineSet
472 466 m 128,-1,1
 532 392 532 392 532 264 c 0,2,3
 532 138 532 138 471 63 c 128,-1,4
 410 -12 410 -12 300 -12 c 0,5,6
 188 -12 188 -12 128 61.5 c 128,-1,7
 68 135 68 135 68 263 c 0,8,9
 68 389 68 389 129 464.5 c 128,-1,10
 190 540 190 540 301 540 c 256,11,0
 412 540 412 540 472 466 c 128,-1,1
202.5 414 m 128,-1,13
 170 365 170 365 170 263 c 0,14,15
 170 162 170 162 202 113 c 128,-1,16
 234 64 234 64 300 64 c 256,17,18
 366 64 366 64 398 113 c 128,-1,19
 430 162 430 162 430 264 c 0,20,21
 430 365 430 365 398 414 c 128,-1,22
 366 463 366 463 301 463 c 0,23,12
 235 463 235 463 202.5 414 c 128,-1,13
EndSplineSet
Substitution2: "Single Substitution lookup 159 subtable" ordmasculine
Substitution2: "'aalt' Access All Alternates lookup 0 subtable" ordmasculine
EndChar

StartChar: oslash
Encoding: 248 248 218
Width: 600
GlyphClass: 2
Flags: W
AnchorPoint: "Anchor-7" 300 527 basechar 0
AnchorPoint: "Anchor-6" 0 0 basechar 0
LayerCount: 2
Fore
SplineSet
503 412.5 m 128,-1,1
 532 349 532 349 532 264 c 0,2,3
 532 138 532 138 471 63 c 128,-1,4
 410 -12 410 -12 300 -12 c 0,5,6
 273 -12 273 -12 253 -8 c 1,7,-1
 216 -131 l 1,8,-1
 139 -109 l 1,9,-1
 180 19 l 1,10,11
 126 51 126 51 97 114 c 128,-1,12
 68 177 68 177 68 263 c 0,13,14
 68 389 68 389 129 464.5 c 128,-1,15
 190 540 190 540 301 540 c 0,16,17
 327 540 327 540 347 536 c 1,18,-1
 385 655 l 1,19,-1
 462 633 l 1,20,-1
 421 509 l 1,21,0
 474 476 474 476 503 412.5 c 128,-1,1
202.5 414 m 128,-1,23
 170 365 170 365 170 263 c 0,24,25
 170 135 170 135 217 92 c 1,26,-1
 331 460 l 1,27,28
 317 463 317 463 301 463 c 0,29,22
 235 463 235 463 202.5 414 c 128,-1,23
398 113 m 128,-1,31
 430 162 430 162 430 264 c 0,32,33
 430 389 430 389 385 434 c 1,34,-1
 270 66 l 1,35,36
 290 64 290 64 300 64 c 0,37,30
 366 64 366 64 398 113 c 128,-1,31
EndSplineSet
EndChar

StartChar: oe
Encoding: 339 339 221
Width: 600
Flags: W
LayerCount: 2
Fore
SplineSet
614 279 m 0,1,2
 614 252 614 252 611 232 c 1,3,-1
 353 232 l 1,4,5
 360 144 360 144 385 104 c 128,-1,6
 410 64 410 64 460 64 c 0,7,8
 486 64 486 64 507 73 c 128,-1,9
 528 82 528 82 554 102 c 1,10,-1
 597 41 l 1,11,12
 565 15 565 15 531.5 1.5 c 128,-1,13
 498 -12 498 -12 458 -12 c 0,14,15
 350 -12 350 -12 308 86 c 1,16,17
 288 38 288 38 255.5 13 c 128,-1,18
 223 -12 223 -12 168 -12 c 0,19,20
 82 -12 82 -12 39.5 60.5 c 128,-1,21
 -3 133 -3 133 -3 263 c 0,22,23
 -3 392 -3 392 39 466 c 128,-1,24
 81 540 81 540 168 540 c 0,25,26
 225 540 225 540 257.5 514.5 c 128,-1,27
 290 489 290 489 309 440 c 1,28,29
 351 540 351 540 447 540 c 0,30,0
 614 540 614 540 614 279 c 0,1,2
380 428 m 128,-1,32
 359 391 359 391 353 301 c 1,33,-1
 526 301 l 1,34,35
 524 386 524 386 506.5 425.5 c 128,-1,36
 489 465 489 465 444 465 c 0,37,31
 401 465 401 465 380 428 c 128,-1,32
112.5 416 m 128,-1,39
 93 368 93 368 93 263 c 0,40,41
 93 156 93 156 112.5 110 c 128,-1,42
 132 64 132 64 178 64 c 0,43,44
 209 64 209 64 227.5 83.5 c 128,-1,45
 246 103 246 103 254 146 c 128,-1,46
 262 189 262 189 262 264 c 0,47,48
 262 368 262 368 242.5 416 c 128,-1,49
 223 464 223 464 178 464 c 0,50,38
 132 464 132 464 112.5 416 c 128,-1,39
EndSplineSet
EndChar

StartChar: p
Encoding: 112 112 222
Width: 600
GlyphClass: 2
Flags: W
AnchorPoint: "Anchor-7" 300 527 basechar 0
AnchorPoint: "Anchor-6" 300 0 basechar 0
LayerCount: 2
Fore
SplineSet
532 264 m 0,1,2
 532 140 532 140 479.5 64 c 128,-1,3
 427 -12 427 -12 329 -12 c 0,4,5
 244 -12 244 -12 191 47 c 1,6,-1
 191 -202 l 1,7,-1
 95 -214 l 1,8,-1
 95 527 l 1,9,-1
 178 527 l 1,10,-1
 185 456 l 1,11,12
 214 497 214 497 254.5 518.5 c 128,-1,13
 295 540 295 540 341 540 c 0,14,0
 532 540 532 540 532 264 c 0,1,2
246.5 441.5 m 128,-1,16
 215 419 215 419 191 383 c 1,17,-1
 191 128 l 1,18,19
 212 98 212 98 241 81.5 c 128,-1,20
 270 65 270 65 305 65 c 0,21,22
 367 65 367 65 398.5 113.5 c 128,-1,23
 430 162 430 162 430 264 c 256,24,25
 430 366 430 366 402 415 c 128,-1,26
 374 464 374 464 316 464 c 0,27,15
 278 464 278 464 246.5 441.5 c 128,-1,16
EndSplineSet
EndChar

StartChar: thorn
Encoding: 254 254 223
Width: 600
GlyphClass: 2
Flags: W
AnchorPoint: "Anchor-7" 300 739 basechar 0
AnchorPoint: "Anchor-6" 300 -203 basechar 0
LayerCount: 2
Fore
SplineSet
191 464 m 1,0,1
 220 501 220 501 258.5 520.5 c 128,-1,2
 297 540 297 540 341 540 c 0,3,4
 532 540 532 540 532 264 c 0,5,6
 532 140 532 140 479.5 64 c 128,-1,7
 427 -12 427 -12 329 -12 c 0,8,9
 244 -12 244 -12 191 47 c 1,10,-1
 191 -202 l 1,11,-1
 95 -214 l 1,12,-1
 95 739 l 1,13,-1
 191 751 l 1,14,-1
 191 464 l 1,0,1
246.5 441.5 m 128,-1,16
 215 419 215 419 191 383 c 1,17,-1
 191 128 l 1,18,19
 212 98 212 98 241 81.5 c 128,-1,20
 270 65 270 65 305 65 c 0,21,22
 367 65 367 65 398.5 113.5 c 128,-1,23
 430 162 430 162 430 264 c 256,24,25
 430 366 430 366 402 415 c 128,-1,26
 374 464 374 464 316 464 c 0,27,15
 278 464 278 464 246.5 441.5 c 128,-1,16
EndSplineSet
EndChar

StartChar: q
Encoding: 113 113 224
Width: 600
GlyphClass: 2
Flags: W
AnchorPoint: "Anchor-7" 300 527 basechar 0
AnchorPoint: "Anchor-6" 300 0 basechar 0
LayerCount: 2
Fore
SplineSet
415 472 m 1,1,-1
 422 527 l 1,2,-1
 505 527 l 1,3,-1
 505 -214 l 1,4,-1
 409 -202 l 1,5,-1
 409 63 l 1,6,7
 353 -12 353 -12 262 -12 c 0,8,9
 68 -12 68 -12 68 263 c 0,10,11
 68 386 68 386 121.5 463 c 128,-1,12
 175 540 175 540 271 540 c 0,13,0
 361 540 361 540 415 472 c 1,1,-1
170 263 m 0,15,16
 170 162 170 162 198.5 113.5 c 128,-1,17
 227 65 227 65 285 65 c 0,18,19
 358 65 358 65 409 143 c 1,20,-1
 409 400 l 1,21,22
 388 430 388 430 359 447 c 128,-1,23
 330 464 330 464 295 464 c 0,24,14
 170 464 170 464 170 263 c 0,15,16
EndSplineSet
EndChar

StartChar: r
Encoding: 114 114 225
Width: 600
GlyphClass: 2
Flags: W
AnchorPoint: "Anchor-7" 330 527 basechar 0
AnchorPoint: "Anchor-6" 229 0 basechar 0
LayerCount: 2
Fore
SplineSet
536 527 m 1,1,-1
 521 342 l 1,2,-1
 447 342 l 1,3,-1
 447 452 l 1,4,-1
 446 452 l 2,5,6
 327 452 327 452 277 282 c 1,7,-1
 277 71 l 1,8,-1
 384 71 l 1,9,-1
 384 0 l 1,10,-1
 100 0 l 1,11,-1
 100 71 l 1,12,-1
 181 71 l 1,13,-1
 181 456 l 1,14,-1
 100 456 l 1,15,-1
 100 527 l 1,16,-1
 254 527 l 1,17,-1
 271 404 l 1,18,19
 302 472 302 472 346.5 505.5 c 128,-1,20
 391 539 391 539 459 539 c 0,21,0
 495 539 495 539 536 527 c 1,1,-1
EndSplineSet
EndChar

StartChar: s
Encoding: 115 115 229
Width: 600
GlyphClass: 2
Flags: W
AnchorPoint: "Anchor-7" 308 527 basechar 0
AnchorPoint: "Anchor-6" 297 0 basechar 0
LayerCount: 2
Fore
SplineSet
371 85 m 128,-1,1
 404 106 404 106 404 142 c 0,2,3
 404 167 404 167 395 183 c 128,-1,4
 386 199 386 199 359 212 c 128,-1,5
 332 225 332 225 277 239 c 0,6,7
 187 262 187 262 143.5 295 c 128,-1,8
 100 328 100 328 100 392 c 0,9,10
 100 459 100 459 156 499.5 c 128,-1,11
 212 540 212 540 304 540 c 0,12,13
 419 540 419 540 500 480 c 1,14,-1
 458 417 l 1,15,16
 425 439 425 439 389 451.5 c 128,-1,17
 353 464 353 464 307 464 c 0,18,19
 199 464 199 464 199 400 c 0,20,21
 199 378 199 378 211 364 c 128,-1,22
 223 350 223 350 251.5 338 c 128,-1,23
 280 326 280 326 336 311 c 0,24,25
 422 288 422 288 464.5 252.5 c 128,-1,26
 507 217 507 217 507 148 c 0,27,28
 507 68 507 68 441.5 28 c 128,-1,29
 376 -12 376 -12 280 -12 c 0,30,31
 153 -12 153 -12 70 60 c 1,32,-1
 122 121 l 1,33,34
 154 94 154 94 194.5 79 c 128,-1,35
 235 64 235 64 280 64 c 0,36,0
 338 64 338 64 371 85 c 128,-1,1
EndSplineSet
EndChar

StartChar: scedilla
Encoding: 351 351 232
Width: 600
GlyphClass: 2
Flags: W
AnchorPoint: "Anchor-7" 308 527 basechar 0
AnchorPoint: "Anchor-6" 297 0 basechar 0
LayerCount: 2
Fore
SplineSet
454 37 m 128,-1,1
 401 -3 401 -3 319 -10 c 1,2,-1
 319 -56 l 1,3,4
 366 -60 366 -60 389.5 -84 c 128,-1,5
 413 -108 413 -108 413 -141 c 0,6,7
 413 -189 413 -189 377 -215.5 c 128,-1,8
 341 -242 341 -242 287 -242 c 0,9,10
 256 -242 256 -242 228 -235.5 c 128,-1,11
 200 -229 200 -229 180 -217 c 1,12,-1
 208 -165 l 1,13,14
 240 -181 240 -181 275 -181 c 0,15,16
 334 -181 334 -181 334 -141 c 0,17,18
 334 -117 334 -117 312.5 -108.5 c 128,-1,19
 291 -100 291 -100 247 -100 c 1,20,-1
 254 -11 l 1,21,22
 145 -4 145 -4 70 60 c 1,23,-1
 122 121 l 1,24,25
 154 94 154 94 194.5 79 c 128,-1,26
 235 64 235 64 280 64 c 0,27,28
 338 64 338 64 371 85 c 128,-1,29
 404 106 404 106 404 142 c 0,30,31
 404 167 404 167 395 183 c 128,-1,32
 386 199 386 199 359 212 c 128,-1,33
 332 225 332 225 277 239 c 0,34,35
 187 262 187 262 143.5 295 c 128,-1,36
 100 328 100 328 100 392 c 0,37,38
 100 459 100 459 156 499.5 c 128,-1,39
 212 540 212 540 304 540 c 0,40,41
 419 540 419 540 500 480 c 1,42,-1
 458 417 l 1,43,44
 425 439 425 439 389 451.5 c 128,-1,45
 353 464 353 464 307 464 c 0,46,47
 199 464 199 464 199 400 c 0,48,49
 199 378 199 378 211 364 c 128,-1,50
 223 350 223 350 251.5 338 c 128,-1,51
 280 326 280 326 336 311 c 0,52,53
 422 288 422 288 464.5 252.5 c 128,-1,54
 507 217 507 217 507 148 c 0,55,0
 507 77 507 77 454 37 c 128,-1,1
EndSplineSet
Substitution2: "'locl' Localized Forms in Latin lookup 16 subtable" scommaaccent
Substitution2: "'locl' Localized Forms in Latin lookup 15 subtable" scommaaccent
Substitution2: "'aalt' Access All Alternates lookup 0 subtable" scommaaccent
EndChar

StartChar: germandbls
Encoding: 223 223 235
Width: 600
Flags: W
LayerCount: 2
Fore
SplineSet
425 710 m 128,-1,1
 474 669 474 669 474 605 c 0,2,3
 474 569 474 569 457.5 546 c 128,-1,4
 441 523 441 523 410 496 c 0,5,6
 386 475 386 475 375 461.5 c 128,-1,7
 364 448 364 448 364 429 c 0,8,9
 364 406 364 406 381.5 388.5 c 128,-1,10
 399 371 399 371 438 346 c 0,11,12
 476 322 476 322 501 300.5 c 128,-1,13
 526 279 526 279 543.5 246 c 128,-1,14
 561 213 561 213 561 167 c 0,15,16
 561 111 561 111 535.5 70.5 c 128,-1,17
 510 30 510 30 467 9 c 128,-1,18
 424 -12 424 -12 372 -12 c 0,19,20
 297 -12 297 -12 243 22 c 1,21,-1
 280 87 l 1,22,23
 318 65 318 65 363 65 c 0,24,25
 411 65 411 65 437 89.5 c 128,-1,26
 463 114 463 114 463 163 c 0,27,28
 463 204 463 204 440 229.5 c 128,-1,29
 417 255 417 255 370 286 c 0,30,31
 337 308 337 308 318 323.5 c 128,-1,32
 299 339 299 339 286 362 c 128,-1,33
 273 385 273 385 273 416 c 0,34,35
 273 449 273 449 288.5 471.5 c 128,-1,36
 304 494 304 494 333 519 c 0,37,38
 358 541 358 541 370 557.5 c 128,-1,39
 382 574 382 574 382 597 c 0,40,41
 382 629 382 629 361 652.5 c 128,-1,42
 340 676 340 676 295 676 c 0,43,44
 240 676 240 676 213 643.5 c 128,-1,45
 186 611 186 611 186 539 c 2,46,-1
 186 0 l 1,47,-1
 90 0 l 1,48,-1
 90 533 l 2,49,50
 90 639 90 639 144 695 c 128,-1,51
 198 751 198 751 296 751 c 0,52,0
 376 751 376 751 425 710 c 128,-1,1
EndSplineSet
EndChar

StartChar: t
Encoding: 116 116 236
Width: 600
GlyphClass: 2
Flags: W
AnchorPoint: "Anchor-7" 243 652 basechar 0
AnchorPoint: "Anchor-6" 369 0 basechar 0
LayerCount: 2
Fore
SplineSet
456 -1.5 m 128,-1,1
 417 -12 417 -12 377 -12 c 0,2,3
 290 -12 290 -12 242.5 33 c 128,-1,4
 195 78 195 78 195 153 c 2,5,-1
 195 455 l 1,6,-1
 76 455 l 1,7,-1
 76 527 l 1,8,-1
 195 527 l 1,9,-1
 195 646 l 1,10,-1
 291 657 l 1,11,-1
 291 527 l 1,12,-1
 472 527 l 1,13,-1
 460 455 l 1,14,-1
 291 455 l 1,15,-1
 291 154 l 2,16,17
 291 110 291 110 314 88.5 c 128,-1,18
 337 67 337 67 388 67 c 0,19,20
 441 67 441 67 488 92 c 1,21,-1
 524 27 l 1,22,0
 495 9 495 9 456 -1.5 c 128,-1,1
EndSplineSet
EndChar

StartChar: tbar
Encoding: 359 359 237
Width: 600
GlyphClass: 2
Flags: W
AnchorPoint: "Anchor-7" 243 652 basechar 0
AnchorPoint: "Anchor-6" 369 0 basechar 0
LayerCount: 2
Fore
SplineSet
524 27 m 1,0,1
 495 9 495 9 456 -1.5 c 128,-1,2
 417 -12 417 -12 377 -12 c 0,3,4
 290 -12 290 -12 242.5 33 c 128,-1,5
 195 78 195 78 195 153 c 2,6,-1
 195 284 l 1,7,-1
 87 284 l 1,8,-1
 87 353 l 1,9,-1
 195 353 l 1,10,-1
 195 455 l 1,11,-1
 76 455 l 1,12,-1
 76 527 l 1,13,-1
 195 527 l 1,14,-1
 195 646 l 1,15,-1
 291 657 l 1,16,-1
 291 527 l 1,17,-1
 472 527 l 1,18,-1
 460 455 l 1,19,-1
 291 455 l 1,20,-1
 291 353 l 1,21,-1
 461 353 l 1,22,-1
 461 284 l 1,23,-1
 291 284 l 1,24,-1
 291 154 l 2,25,26
 291 110 291 110 314 88.5 c 128,-1,27
 337 67 337 67 388 67 c 0,28,29
 441 67 441 67 488 92 c 1,30,-1
 524 27 l 1,0,1
EndSplineSet
EndChar

StartChar: uni0163
Encoding: 355 355 239
Width: 600
GlyphClass: 2
Flags: W
AnchorPoint: "Anchor-7" 243 652 basechar 0
AnchorPoint: "Anchor-6" 369 0 basechar 0
LayerCount: 2
Fore
SplineSet
461.5 -84 m 128,-1,1
 485 -108 485 -108 485 -141 c 0,2,3
 485 -189 485 -189 449 -215.5 c 128,-1,4
 413 -242 413 -242 359 -242 c 0,5,6
 328 -242 328 -242 300 -235.5 c 128,-1,7
 272 -229 272 -229 252 -217 c 1,8,-1
 280 -165 l 1,9,10
 312 -181 312 -181 347 -181 c 0,11,12
 406 -181 406 -181 406 -141 c 0,13,14
 406 -117 406 -117 384.5 -108.5 c 128,-1,15
 363 -100 363 -100 319 -100 c 1,16,-1
 326 -7 l 1,17,18
 263 5 263 5 229 47.5 c 128,-1,19
 195 90 195 90 195 153 c 2,20,-1
 195 455 l 1,21,-1
 76 455 l 1,22,-1
 76 527 l 1,23,-1
 195 527 l 1,24,-1
 195 646 l 1,25,-1
 291 657 l 1,26,-1
 291 527 l 1,27,-1
 472 527 l 1,28,-1
 460 455 l 1,29,-1
 291 455 l 1,30,-1
 291 154 l 2,31,32
 291 110 291 110 314 88.5 c 128,-1,33
 337 67 337 67 388 67 c 0,34,35
 441 67 441 67 488 92 c 1,36,-1
 524 27 l 1,37,38
 498 11 498 11 463 0.5 c 128,-1,39
 428 -10 428 -10 391 -12 c 1,40,-1
 391 -56 l 1,41,0
 438 -60 438 -60 461.5 -84 c 128,-1,1
EndSplineSet
Substitution2: "'locl' Localized Forms in Latin lookup 16 subtable" uni021B
Substitution2: "'locl' Localized Forms in Latin lookup 15 subtable" uni021B
Substitution2: "'aalt' Access All Alternates lookup 0 subtable" uni021B
EndChar

StartChar: u
Encoding: 117 117 241
Width: 600
GlyphClass: 2
Flags: W
AnchorPoint: "Anchor-7" 300 527 basechar 0
AnchorPoint: "Anchor-6" 0 0 basechar 0
LayerCount: 2
Fore
SplineSet
191 156 m 2,0,1
 191 107 191 107 211.5 84.5 c 128,-1,2
 232 62 232 62 274 62 c 0,3,4
 313 62 313 62 350 85 c 128,-1,5
 387 108 387 108 409 142 c 1,6,-1
 409 527 l 1,7,-1
 505 527 l 1,8,-1
 505 0 l 1,9,-1
 422 0 l 1,10,-1
 415 70 l 1,11,12
 385 31 385 31 340 9.5 c 128,-1,13
 295 -12 295 -12 247 -12 c 0,14,15
 172 -12 172 -12 133.5 28.5 c 128,-1,16
 95 69 95 69 95 144 c 2,17,-1
 95 527 l 1,18,-1
 191 527 l 1,19,-1
 191 156 l 2,0,1
EndSplineSet
EndChar

StartChar: uogonek
Encoding: 371 371 249
Width: 600
GlyphClass: 2
Flags: W
AnchorPoint: "Anchor-7" 300 527 basechar 0
AnchorPoint: "Anchor-6" 0 0 basechar 0
LayerCount: 2
Fore
SplineSet
408 -56.5 m 128,-1,1
 382 -83 382 -83 382 -114 c 0,2,3
 382 -162 382 -162 438 -162 c 0,4,5
 465 -162 465 -162 499 -155 c 1,6,-1
 490 -226 l 1,7,8
 455 -233 455 -233 427 -233 c 0,9,10
 369 -233 369 -233 334.5 -204.5 c 128,-1,11
 300 -176 300 -176 300 -131 c 256,12,13
 300 -86 300 -86 330 -51 c 128,-1,14
 360 -16 360 -16 421 10 c 1,15,-1
 415 70 l 1,16,17
 385 31 385 31 340 9.5 c 128,-1,18
 295 -12 295 -12 247 -12 c 0,19,20
 172 -12 172 -12 133.5 28.5 c 128,-1,21
 95 69 95 69 95 144 c 2,22,-1
 95 527 l 1,23,-1
 191 527 l 1,24,-1
 191 156 l 2,25,26
 191 107 191 107 211.5 84.5 c 128,-1,27
 232 62 232 62 274 62 c 0,28,29
 313 62 313 62 350 85 c 128,-1,30
 387 108 387 108 409 142 c 1,31,-1
 409 527 l 1,32,-1
 505 527 l 1,33,-1
 505 0 l 1,34,0
 434 -30 434 -30 408 -56.5 c 128,-1,1
EndSplineSet
EndChar

StartChar: v
Encoding: 118 118 252
Width: 600
GlyphClass: 2
Flags: W
AnchorPoint: "Anchor-7" 300 527 basechar 0
AnchorPoint: "Anchor-6" 300 0 basechar 0
LayerCount: 2
Fore
SplineSet
545 527 m 1,0,-1
 355 0 l 1,1,-1
 244 0 l 1,2,-1
 55 527 l 1,3,-1
 158 527 l 1,4,-1
 302 83 l 1,5,-1
 446 527 l 1,6,-1
 545 527 l 1,0,-1
EndSplineSet
EndChar

StartChar: w
Encoding: 119 119 253
Width: 600
GlyphClass: 2
Flags: W
AnchorPoint: "Anchor-7" 300 527 basechar 0
AnchorPoint: "Anchor-6" 300 0 basechar 0
LayerCount: 2
Fore
SplineSet
496 0 m 1,0,-1
 368 0 l 1,1,-1
 303 381 l 1,2,-1
 233 0 l 1,3,-1
 108 0 l 1,4,-1
 15 527 l 1,5,-1
 110 527 l 1,6,-1
 173 60 l 1,7,-1
 252 460 l 1,8,-1
 357 460 l 1,9,-1
 431 60 l 1,10,-1
 494 527 l 1,11,-1
 585 527 l 1,12,-1
 496 0 l 1,0,-1
EndSplineSet
Substitution2: "Single Substitution lookup 174 subtable" LIG
Substitution2: "Single Substitution lookup 173 subtable" w_w_w.liga
AlternateSubs2: "'aalt' Access All Alternates lookup 1 subtable" w_w_w.liga LIG
EndChar

StartChar: x
Encoding: 120 120 258
Width: 600
GlyphClass: 2
Flags: W
AnchorPoint: "Anchor-7" 300 527 basechar 0
AnchorPoint: "Anchor-6" 300 0 basechar 0
LayerCount: 2
Fore
SplineSet
158 0 m 1,0,-1
 50 0 l 1,1,-1
 243 278 l 1,2,-1
 73 527 l 1,3,-1
 185 527 l 1,4,-1
 301 336 l 1,5,-1
 418 527 l 1,6,-1
 526 527 l 1,7,-1
 357 282 l 1,8,-1
 550 0 l 1,9,-1
 435 0 l 1,10,-1
 297 222 l 1,11,-1
 158 0 l 1,0,-1
EndSplineSet
Substitution2: "Single Substitution lookup 240 subtable" x.multiply
Substitution2: "'aalt' Access All Alternates lookup 0 subtable" x.multiply
EndChar

StartChar: y
Encoding: 121 121 259
Width: 600
GlyphClass: 2
Flags: W
AnchorPoint: "Anchor-7" 300 527 basechar 0
AnchorPoint: "Anchor-6" 0 0 basechar 0
LayerCount: 2
Fore
SplineSet
360 -3 m 2,0,1
 329 -96 329 -96 272.5 -150 c 128,-1,2
 216 -204 216 -204 115 -214 c 1,3,-1
 102 -139 l 1,4,5
 154 -130 154 -130 186 -113 c 128,-1,6
 218 -96 218 -96 236.5 -69.5 c 128,-1,7
 255 -43 255 -43 270 0 c 1,8,-1
 237 0 l 1,9,-1
 56 527 l 1,10,-1
 158 527 l 1,11,-1
 302 70 l 1,12,-1
 445 527 l 1,13,-1
 544 527 l 1,14,-1
 360 -3 l 2,0,1
EndSplineSet
EndChar

StartChar: z
Encoding: 122 122 264
Width: 600
GlyphClass: 2
Flags: W
AnchorPoint: "Anchor-7" 310 527 basechar 0
AnchorPoint: "Anchor-6" 300 0 basechar 0
LayerCount: 2
Fore
SplineSet
214 80 m 1,0,-1
 502 80 l 1,1,-1
 491 0 l 1,2,-1
 97 0 l 1,3,-1
 97 72 l 1,4,-1
 385 447 l 1,5,-1
 120 447 l 1,6,-1
 120 527 l 1,7,-1
 499 527 l 1,8,-1
 499 455 l 1,9,-1
 214 80 l 1,0,-1
EndSplineSet
EndChar

StartChar: x.multiply
Encoding: 1114125 -1 273
Width: 600
Flags: W
LayerCount: 2
Fore
SplineSet
445 529 m 1,0,-1
 504 470 l 1,1,-1
 359 325 l 1,2,-1
 504 178 l 1,3,-1
 445 119 l 1,4,-1
 300 266 l 1,5,-1
 153 119 l 1,6,-1
 94 178 l 1,7,-1
 241 325 l 1,8,-1
 94 470 l 1,9,-1
 153 529 l 1,10,-1
 300 384 l 1,11,-1
 445 529 l 1,0,-1
EndSplineSet
EndChar

StartChar: w_w_w.liga
Encoding: 1114126 -1 274
Width: 600
Flags: W
LayerCount: 2
Fore
SplineSet
414 527 m 1,0,-1
 505 527 l 1,1,-1
 416 0 l 1,2,-1
 288 0 l 1,3,-1
 223 381 l 1,4,-1
 143 0 l 1,5,-1
 20 0 l 1,6,-1
 -42 381 l 1,7,-1
 -106 0 l 1,8,-1
 -231 0 l 1,9,-1
 -297 381 l 1,10,-1
 -368 0 l 1,11,-1
 -490 0 l 1,12,-1
 -557 381 l 1,13,-1
 -626 0 l 1,14,-1
 -751 0 l 1,15,-1
 -817 381 l 1,16,-1
 -887 0 l 1,17,-1
 -1012 0 l 1,18,-1
 -1105 527 l 1,19,-1
 -1010 527 l 1,20,-1
 -948 60 l 1,21,-1
 -868 460 l 1,22,-1
 -763 460 l 1,23,-1
 -688 60 l 1,24,-1
 -609 460 l 1,25,-1
 -502 460 l 1,26,-1
 -428 60 l 1,27,-1
 -348 460 l 1,28,-1
 -243 460 l 1,29,-1
 -168 60 l 1,30,-1
 -94 460 l 1,31,-1
 13 460 l 1,32,-1
 83 60 l 1,33,-1
 172 460 l 1,34,-1
 277 460 l 1,35,-1
 352 60 l 1,36,-1
 414 527 l 1,0,-1
EndSplineSet
EndChar

StartChar: ordfeminine
Encoding: 170 170 275
Width: 600
Flags: W
LayerCount: 2
Fore
SplineSet
417.5 714 m 128,-1,1
 460 677 460 677 460 609 c 2,2,-1
 460 417 l 2,3,4
 460 395 460 395 468 383.5 c 128,-1,5
 476 372 476 372 493 367 c 1,6,-1
 473 307 l 1,7,8
 439 311 439 311 417.5 325 c 128,-1,9
 396 339 396 339 385 366 c 1,10,11
 361 338 361 338 325.5 322.5 c 128,-1,12
 290 307 290 307 251 307 c 0,13,14
 183 307 183 307 141 343.5 c 128,-1,15
 99 380 99 380 99 440 c 0,16,17
 99 506 99 506 156 542.5 c 128,-1,18
 213 579 213 579 316 579 c 2,19,-1
 374 579 l 1,20,-1
 374 606 l 2,21,22
 374 645 374 645 349.5 663 c 128,-1,23
 325 681 325 681 278 681 c 0,24,25
 255 681 255 681 223 675 c 128,-1,26
 191 669 191 669 157 657 c 1,27,-1
 132 720 l 1,28,29
 215 751 215 751 290 751 c 0,30,0
 375 751 375 751 417.5 714 c 128,-1,1
320 518 m 2,31,32
 254 518 254 518 223.5 499.5 c 128,-1,33
 193 481 193 481 193 444 c 0,34,35
 193 408 193 408 213.5 390 c 128,-1,36
 234 372 234 372 273 372 c 0,37,38
 302 372 302 372 328.5 386 c 128,-1,39
 355 400 355 400 374 426 c 1,40,-1
 374 518 l 1,41,-1
 320 518 l 2,31,32
501 81 m 1,42,-1
 501 0 l 1,43,-1
 105 0 l 1,44,-1
 105 81 l 1,45,-1
 501 81 l 1,42,-1
EndSplineSet
EndChar

StartChar: ordmasculine
Encoding: 186 186 276
Width: 600
Flags: W
LayerCount: 2
Fore
SplineSet
450.5 690.5 m 128,-1,1
 506 630 506 630 506 529 c 0,2,3
 506 464 506 464 480.5 413.5 c 128,-1,4
 455 363 455 363 408.5 335 c 128,-1,5
 362 307 362 307 300 307 c 0,6,7
 205 307 205 307 149 367.5 c 128,-1,8
 93 428 93 428 93 529 c 0,9,10
 93 594 93 594 118.5 644.5 c 128,-1,11
 144 695 144 695 191 723 c 128,-1,12
 238 751 238 751 300 751 c 0,13,0
 395 751 395 751 450.5 690.5 c 128,-1,1
216 643 m 128,-1,15
 186 605 186 605 186 529 c 0,16,17
 186 452 186 452 216 414.5 c 128,-1,18
 246 377 246 377 300 377 c 256,19,20
 354 377 354 377 383.5 414.5 c 128,-1,21
 413 452 413 452 413 529 c 0,22,23
 413 605 413 605 383.5 643 c 128,-1,24
 354 681 354 681 300 681 c 256,25,14
 246 681 246 681 216 643 c 128,-1,15
499 81 m 1,26,-1
 499 0 l 1,27,-1
 102 0 l 1,28,-1
 102 81 l 1,29,-1
 499 81 l 1,26,-1
EndSplineSet
EndChar

StartChar: uni207F
Encoding: 8319 8319 277
Width: 600
Flags: W
LayerCount: 2
Fore
SplineSet
436 620 m 2,1,-1
 436 378 l 1,2,-1
 357 378 l 1,3,-1
 357 584 l 2,4,5
 357 628 357 628 349 644.5 c 128,-1,6
 341 661 341 661 315 661 c 0,7,8
 296 661 296 661 276.5 648 c 128,-1,9
 257 635 257 635 243 616 c 1,10,-1
 243 378 l 1,11,-1
 165 378 l 1,12,-1
 165 716 l 1,13,-1
 235 716 l 1,14,-1
 238 676 l 1,15,16
 257 699 257 699 283 711 c 128,-1,17
 309 723 309 723 335 723 c 0,18,0
 436 723 436 723 436 620 c 2,1,-1
EndSplineSet
EndChar

StartChar: uni052C
Encoding: 1324 1324 278
Width: 600
GlyphClass: 2
Flags: W
AnchorPoint: "Anchor-3" 300 689 basechar 0
AnchorPoint: "Anchor-2" 300 -203 basechar 0
LayerCount: 2
Fore
SplineSet
566 81 m 1,0,-1
 566 -151 l 1,1,-1
 488 -151 l 1,2,-1
 473 0 l 1,3,-1
 146 0 l 1,4,-1
 131 -151 l 1,5,-1
 53 -151 l 1,6,-1
 53 81 l 1,7,-1
 91 81 l 1,8,9
 160 158 160 158 198 339 c 1,10,11
 124 356 124 356 89.5 408.5 c 128,-1,12
 55 461 55 461 54 555 c 2,13,-1
 54 689 l 1,14,-1
 150 689 l 1,15,-1
 150 558 l 2,16,17
 150 502 150 502 164.5 469 c 128,-1,18
 179 436 179 436 213 421 c 1,19,-1
 222 490 l 1,20,-1
 245 689 l 1,21,-1
 529 689 l 1,22,-1
 529 81 l 1,23,-1
 566 81 l 1,0,-1
318 485 m 2,24,25
 313 435 313 435 308 407 c 1,26,-1
 434 407 l 1,27,-1
 434 609 l 1,28,-1
 331 609 l 1,29,-1
 318 485 l 2,24,25
434 81 m 1,30,-1
 434 329 l 1,31,-1
 295 329 l 1,32,33
 275 232 275 232 249 175.5 c 128,-1,34
 223 119 223 119 186 81 c 1,35,-1
 434 81 l 1,30,-1
EndSplineSet
EndChar

StartChar: uni052A
Encoding: 1322 1322 279
Width: 600
GlyphClass: 2
Flags: W
AnchorPoint: "Anchor-3" 300 689 basechar 0
AnchorPoint: "Anchor-2" 300 -203 basechar 0
LayerCount: 2
Fore
SplineSet
612 0 m 1,0,-1
 526 0 l 1,1,-1
 452 323 l 1,2,-1
 426 323 l 1,3,-1
 426 0 l 1,4,-1
 365 0 l 1,5,-1
 365 -151 l 1,6,-1
 299 -151 l 1,7,-1
 284 0 l 1,8,-1
 68 0 l 1,9,-1
 53 -151 l 1,10,-1
 -13 -151 l 1,11,-1
 -13 70 l 1,12,-1
 20 70 l 1,13,14
 43 129 43 129 57.5 204.5 c 128,-1,15
 72 280 72 280 83 441 c 2,16,-1
 99 689 l 1,17,-1
 301 689 l 1,18,-1
 301 396 l 1,19,-1
 350 396 l 1,20,-1
 350 689 l 1,21,-1
 426 689 l 1,22,-1
 426 396 l 1,23,-1
 453 396 l 1,24,-1
 518 689 l 1,25,-1
 594 689 l 1,26,-1
 518 365 l 1,27,-1
 612 0 l 1,0,-1
224 619 m 1,28,-1
 173 619 l 1,29,-1
 163 437 l 2,30,31
 155 278 155 278 138.5 200 c 128,-1,32
 122 122 122 122 90 70 c 1,33,-1
 224 70 l 1,34,-1
 224 619 l 1,28,-1
350 323 m 1,35,-1
 301 323 l 1,36,-1
 301 70 l 1,37,-1
 350 70 l 1,38,-1
 350 323 l 1,35,-1
EndSplineSet
EndChar

StartChar: uni052E
Encoding: 1326 1326 280
Width: 600
Flags: W
LayerCount: 2
Fore
SplineSet
551 81 m 1,0,-1
 551 -151 l 1,1,-1
 473 -151 l 1,2,-1
 458 0 l 1,3,-1
 393 0 l 1,4,-1
 393 607 l 1,5,-1
 241 607 l 1,6,-1
 218 418 l 2,7,8
 200 260 200 260 178.5 179.5 c 128,-1,9
 157 99 157 99 128 61 c 128,-1,10
 99 23 99 23 44 -12 c 1,11,-1
 1 59 l 1,12,13
 31 83 31 83 49 110 c 128,-1,14
 67 137 67 137 84.5 204 c 128,-1,15
 102 271 102 271 118 400 c 2,16,-1
 154 689 l 1,17,-1
 492 689 l 1,18,-1
 492 81 l 1,19,-1
 551 81 l 1,0,-1
EndSplineSet
EndChar

StartChar: uni0528
Encoding: 1320 1320 281
Width: 600
GlyphClass: 2
Flags: W
AnchorPoint: "Anchor-3" 300 689 basechar 0
AnchorPoint: "Anchor-2" 300 0 basechar 0
LayerCount: 2
Fore
SplineSet
522 689 m 1,0,-1
 522 0 l 1,1,-1
 423 0 l 1,2,-1
 423 321 l 1,3,-1
 177 321 l 1,4,-1
 177 -56 l 2,5,6
 177 -134 177 -134 136 -174.5 c 128,-1,7
 95 -215 95 -215 23 -215 c 0,8,9
 -44 -215 -44 -215 -93 -176 c 1,10,-1
 -56 -114 l 1,11,12
 -36 -126 -36 -126 -20.5 -131 c 128,-1,13
 -5 -136 -5 -136 17 -136 c 0,14,15
 78 -136 78 -136 78 -63 c 2,16,-1
 78 689 l 1,17,-1
 177 689 l 1,18,-1
 177 403 l 1,19,-1
 423 403 l 1,20,-1
 423 689 l 1,21,-1
 522 689 l 1,0,-1
EndSplineSet
EndChar

StartChar: uni0411
Encoding: 1041 1041 283
Width: 600
GlyphClass: 2
Flags: W
AnchorPoint: "Anchor-3" 300 689 basechar 0
AnchorPoint: "Anchor-2" 300 0 basechar 0
LayerCount: 2
Fore
SplineSet
477 608 m 1,0,-1
 193 608 l 1,1,-1
 193 424 l 1,2,-1
 277 424 l 2,3,4
 406 424 406 424 476 373.5 c 128,-1,5
 546 323 546 323 546 217 c 0,6,7
 546 105 546 105 474.5 52.5 c 128,-1,8
 403 0 403 0 279 0 c 2,9,-1
 94 0 l 1,10,-1
 94 689 l 1,11,-1
 486 689 l 1,12,-1
 477 608 l 1,0,-1
193 348 m 1,13,-1
 193 79 l 1,14,-1
 286 79 l 2,15,16
 362 79 362 79 402.5 109 c 128,-1,17
 443 139 443 139 443 216 c 0,18,19
 443 285 443 285 401.5 316.5 c 128,-1,20
 360 348 360 348 286 348 c 2,21,-1
 193 348 l 1,13,-1
EndSplineSet
EndChar

StartChar: uni0413
Encoding: 1043 1043 285
Width: 600
GlyphClass: 2
Flags: W
AnchorPoint: "Anchor-3" 346 689 basechar 0
AnchorPoint: "Anchor-2" 179 0 basechar 0
LayerCount: 2
Fore
SplineSet
547 689 m 1,0,-1
 536 604 l 1,1,-1
 228 604 l 1,2,-1
 228 0 l 1,3,-1
 129 0 l 1,4,-1
 129 689 l 1,5,-1
 547 689 l 1,0,-1
EndSplineSet
EndChar

StartChar: uni0490
Encoding: 1168 1168 287
Width: 600
GlyphClass: 2
Flags: W
AnchorPoint: "Anchor-3" 346 689 basechar 0
AnchorPoint: "Anchor-2" 179 0 basechar 0
LayerCount: 2
Fore
SplineSet
451 837 m 1,0,-1
 547 837 l 1,1,-1
 547 689 l 1,2,-1
 536 604 l 1,3,-1
 228 604 l 1,4,-1
 228 0 l 1,5,-1
 129 0 l 1,6,-1
 129 689 l 1,7,-1
 451 689 l 1,8,-1
 451 837 l 1,0,-1
EndSplineSet
EndChar

StartChar: uni0414
Encoding: 1044 1044 288
Width: 600
GlyphClass: 2
Flags: W
AnchorPoint: "Anchor-3" 300 689 basechar 0
AnchorPoint: "Anchor-2" 300 -203 basechar 0
LayerCount: 2
Fore
SplineSet
567 81 m 1,0,-1
 567 -151 l 1,1,-1
 489 -151 l 1,2,-1
 474 0 l 1,3,-1
 91 0 l 1,4,-1
 76 -151 l 1,5,-1
 -2 -151 l 1,6,-1
 -2 81 l 1,7,-1
 40 81 l 1,8,9
 67 107 67 107 81.5 146.5 c 128,-1,10
 96 186 96 186 107 254 c 128,-1,11
 118 322 118 322 139 488 c 2,12,-1
 163 689 l 1,13,-1
 516 689 l 1,14,-1
 516 81 l 1,15,-1
 567 81 l 1,0,-1
417 609 m 1,16,-1
 250 609 l 1,17,-1
 236 485 l 2,18,19
 219 336 219 336 207.5 264 c 128,-1,20
 196 192 196 192 179.5 150.5 c 128,-1,21
 163 109 163 109 132 81 c 1,22,-1
 417 81 l 1,23,-1
 417 609 l 1,16,-1
EndSplineSet
EndChar

StartChar: uni0415
Encoding: 1045 1045 289
Width: 600
GlyphClass: 2
Flags: W
AnchorPoint: "Anchor-3" 321 689 basechar 0
AnchorPoint: "Anchor-2" 325 0 basechar 0
LayerCount: 2
Fore
SplineSet
219 611 m 1,0,-1
 219 389 l 1,1,-1
 473 389 l 1,2,-1
 473 311 l 1,3,-1
 219 311 l 1,4,-1
 219 78 l 1,5,-1
 529 78 l 1,6,-1
 529 0 l 1,7,-1
 120 0 l 1,8,-1
 120 689 l 1,9,-1
 522 689 l 1,10,-1
 510 611 l 1,11,-1
 219 611 l 1,0,-1
EndSplineSet
EndChar

StartChar: uni0416
Encoding: 1046 1046 292
Width: 600
GlyphClass: 2
Flags: W
AnchorPoint: "Anchor-3" 300 689 basechar 0
AnchorPoint: "Anchor-2" 300 0 basechar 0
LayerCount: 2
Fore
SplineSet
259 326 m 1,0,-1
 203 326 l 1,1,-1
 103 0 l 1,2,-1
 10 0 l 1,3,-1
 131 367 l 1,4,-1
 24 689 l 1,5,-1
 116 689 l 1,6,-1
 204 398 l 1,7,-1
 259 398 l 1,8,-1
 259 689 l 1,9,-1
 341 689 l 1,10,-1
 341 398 l 1,11,-1
 396 398 l 1,12,-1
 485 689 l 1,13,-1
 576 689 l 1,14,-1
 469 367 l 1,15,-1
 590 0 l 1,16,-1
 495 0 l 1,17,-1
 396 326 l 1,18,-1
 341 326 l 1,19,-1
 341 0 l 1,20,-1
 259 0 l 1,21,-1
 259 326 l 1,0,-1
EndSplineSet
EndChar

StartChar: uni0417
Encoding: 1047 1047 293
Width: 600
GlyphClass: 2
Flags: W
AnchorPoint: "Anchor-3" 297 689 basechar 0
AnchorPoint: "Anchor-2" 293 0 basechar 0
LayerCount: 2
Fore
SplineSet
408 679 m 128,-1,1
 462 656 462 656 491.5 615 c 128,-1,2
 521 574 521 574 521 521 c 0,3,4
 521 460 521 460 481 421.5 c 128,-1,5
 441 383 441 383 376 374 c 1,6,7
 448 368 448 368 496 323.5 c 128,-1,8
 544 279 544 279 544 204 c 0,9,10
 544 141 544 141 511.5 92 c 128,-1,11
 479 43 479 43 418.5 15.5 c 128,-1,12
 358 -12 358 -12 277 -12 c 0,13,14
 202 -12 202 -12 139 13 c 128,-1,15
 76 38 76 38 30 86 c 1,16,-1
 89 140 l 1,17,18
 172 68 172 68 276 68 c 0,19,20
 353 68 353 68 396 103.5 c 128,-1,21
 439 139 439 139 439 202 c 0,22,23
 439 266 439 266 396.5 297.5 c 128,-1,24
 354 329 354 329 283 329 c 2,25,-1
 162 329 l 1,26,-1
 174 409 l 1,27,-1
 277 409 l 2,28,29
 339 409 339 409 379.5 436.5 c 128,-1,30
 420 464 420 464 420 518 c 0,31,32
 420 568 420 568 380.5 595.5 c 128,-1,33
 341 623 341 623 277 623 c 0,34,35
 224 623 224 623 181.5 606.5 c 128,-1,36
 139 590 139 590 98 559 c 1,37,-1
 45 615 l 1,38,39
 149 702 149 702 281 702 c 0,40,0
 354 702 354 702 408 679 c 128,-1,1
EndSplineSet
EndChar

StartChar: uni0418
Encoding: 1048 1048 294
Width: 600
GlyphClass: 2
Flags: W
AnchorPoint: "Anchor-3" 300 689 basechar 0
AnchorPoint: "Anchor-2" 300 0 basechar 0
LayerCount: 2
Fore
SplineSet
78 689 m 1,0,-1
 175 689 l 1,1,-1
 175 359 l 2,2,3
 175 273 175 273 171 214 c 128,-1,4
 167 155 167 155 158 88 c 1,5,-1
 399 689 l 1,6,-1
 522 689 l 1,7,-1
 522 0 l 1,8,-1
 425 0 l 1,9,-1
 425 330 l 2,10,11
 425 472 425 472 442 597 c 1,12,-1
 203 0 l 1,13,-1
 78 0 l 1,14,-1
 78 689 l 1,0,-1
EndSplineSet
EndChar

StartChar: uni048A
Encoding: 1162 1162 297
Width: 600
GlyphClass: 2
Flags: W
AnchorPoint: "Anchor-3" 300 689 basechar 0
AnchorPoint: "Anchor-2" 300 0 basechar 0
LayerCount: 2
Fore
SplineSet
194.5 799 m 128,-1,1
 153 831 153 831 147 886 c 1,2,-1
 209 900 l 1,3,4
 219 868 219 868 240.5 853.5 c 128,-1,5
 262 839 262 839 298 839 c 0,6,7
 370 839 370 839 390 900 c 1,8,-1
 452 886 l 1,9,10
 446 831 446 831 403.5 799 c 128,-1,11
 361 767 361 767 298 767 c 0,12,0
 236 767 236 767 194.5 799 c 128,-1,1
612 82 m 1,13,-1
 530 -151 l 1,14,-1
 452 -151 l 1,15,-1
 487 0 l 1,16,-1
 425 0 l 1,17,-1
 425 330 l 2,18,19
 425 472 425 472 442 597 c 1,20,-1
 203 0 l 1,21,-1
 78 0 l 1,22,-1
 78 689 l 1,23,-1
 175 689 l 1,24,-1
 175 359 l 2,25,26
 175 273 175 273 171 214 c 128,-1,27
 167 155 167 155 158 88 c 1,28,-1
 399 689 l 1,29,-1
 522 689 l 1,30,-1
 522 82 l 1,31,-1
 612 82 l 1,13,-1
EndSplineSet
EndChar

StartChar: uni041A
Encoding: 1050 1050 298
Width: 600
GlyphClass: 2
Flags: W
AnchorPoint: "Anchor-3" 320 689 basechar 0
AnchorPoint: "Anchor-2" 300 0 basechar 0
LayerCount: 2
Fore
SplineSet
264 322 m 1,0,-1
 187 322 l 1,1,-1
 187 0 l 1,2,-1
 88 0 l 1,3,-1
 88 689 l 1,4,-1
 187 689 l 1,5,-1
 187 402 l 1,6,-1
 265 402 l 1,7,-1
 467 689 l 1,8,-1
 571 689 l 1,9,-1
 348 367 l 1,10,-1
 590 0 l 1,11,-1
 473 0 l 1,12,-1
 264 322 l 1,0,-1
EndSplineSet
EndChar

StartChar: uni041B
Encoding: 1051 1051 300
Width: 600
GlyphClass: 2
Flags: W
AnchorPoint: "Anchor-3" 300 689 basechar 0
AnchorPoint: "Anchor-2" 300 0 basechar 0
LayerCount: 2
Fore
SplineSet
522 0 m 1,0,-1
 423 0 l 1,1,-1
 423 607 l 1,2,-1
 250 607 l 1,3,-1
 227 418 l 2,4,5
 209 260 209 260 187.5 179 c 128,-1,6
 166 98 166 98 137 60.5 c 128,-1,7
 108 23 108 23 53 -12 c 1,8,-1
 11 59 l 1,9,10
 41 83 41 83 58.5 110 c 128,-1,11
 76 137 76 137 93.5 204.5 c 128,-1,12
 111 272 111 272 127 400 c 2,13,-1
 163 689 l 1,14,-1
 522 689 l 1,15,-1
 522 0 l 1,0,-1
EndSplineSet
EndChar

StartChar: uni041E
Encoding: 1054 1054 303
Width: 600
GlyphClass: 2
Flags: W
AnchorPoint: "Anchor-3" 300 689 basechar 0
AnchorPoint: "Anchor-2" 300 0 basechar 0
LayerCount: 2
Fore
SplineSet
490.5 85 m 128,-1,1
 424 -12 424 -12 300 -12 c 0,2,3
 175 -12 175 -12 109 83.5 c 128,-1,4
 43 179 43 179 43 343 c 0,5,6
 43 506 43 506 109.5 604 c 128,-1,7
 176 702 176 702 300 702 c 0,8,9
 425 702 425 702 491 605.5 c 128,-1,10
 557 509 557 509 557 344 c 0,11,0
 557 182 557 182 490.5 85 c 128,-1,1
417.5 552 m 128,-1,13
 381 621 381 621 300 621 c 256,14,15
 219 621 219 621 182.5 552 c 128,-1,16
 146 483 146 483 146 343 c 0,17,18
 146 205 146 205 183.5 136.5 c 128,-1,19
 221 68 221 68 300 68 c 0,20,21
 381 68 381 68 417.5 136.5 c 128,-1,22
 454 205 454 205 454 344 c 256,23,12
 454 483 454 483 417.5 552 c 128,-1,13
EndSplineSet
EndChar

StartChar: uni041F
Encoding: 1055 1055 304
Width: 600
GlyphClass: 2
Flags: W
AnchorPoint: "Anchor-3" 300 689 basechar 0
AnchorPoint: "Anchor-2" 300 0 basechar 0
LayerCount: 2
Fore
SplineSet
423 0 m 1,0,-1
 423 606 l 1,1,-1
 177 606 l 1,2,-1
 177 0 l 1,3,-1
 78 0 l 1,4,-1
 78 689 l 1,5,-1
 522 689 l 1,6,-1
 522 0 l 1,7,-1
 423 0 l 1,0,-1
EndSplineSet
EndChar

StartChar: uni0423
Encoding: 1059 1059 308
Width: 600
GlyphClass: 2
Flags: W
AnchorPoint: "Anchor-3" 310 689 basechar 0
AnchorPoint: "Anchor-2" 300 0 basechar 0
LayerCount: 2
Fore
SplineSet
379 189 m 2,0,1
 352 123 352 123 321 83 c 128,-1,2
 290 43 290 43 242 20 c 128,-1,3
 194 -3 194 -3 119 -12 c 1,4,-1
 105 64 l 1,5,6
 164 72 164 72 198.5 87.5 c 128,-1,7
 233 103 233 103 252 126.5 c 128,-1,8
 271 150 271 150 286 189 c 1,9,-1
 247 189 l 1,10,-1
 21 689 l 1,11,-1
 125 689 l 1,12,-1
 313 251 l 1,13,-1
 484 689 l 1,14,-1
 584 689 l 1,15,-1
 379 189 l 2,0,1
EndSplineSet
EndChar

StartChar: uni0424
Encoding: 1060 1060 310
Width: 600
GlyphClass: 2
Flags: W
AnchorPoint: "Anchor-3" 300 689 basechar 0
AnchorPoint: "Anchor-2" 300 0 basechar 0
LayerCount: 2
Fore
SplineSet
345 659 m 1,0,1
 469 650 469 650 528.5 573 c 128,-1,2
 588 496 588 496 588 347 c 0,3,4
 588 197 588 197 526 117.5 c 128,-1,5
 464 38 464 38 345 32 c 1,6,-1
 345 -31 l 1,7,-1
 255 -31 l 1,8,-1
 255 32 l 1,9,10
 136 38 136 38 74 117 c 128,-1,11
 12 196 12 196 12 347 c 0,12,13
 12 496 12 496 71.5 573 c 128,-1,14
 131 650 131 650 255 659 c 1,15,-1
 255 720 l 1,16,-1
 345 720 l 1,17,-1
 345 659 l 1,0,1
145.5 531.5 m 128,-1,19
 110 476 110 476 110 347 c 0,20,21
 110 223 110 223 144.5 165.5 c 128,-1,22
 179 108 179 108 258 101 c 1,23,-1
 258 591 l 1,24,18
 181 587 181 587 145.5 531.5 c 128,-1,19
342 101 m 1,25,26
 421 108 421 108 455.5 165.5 c 128,-1,27
 490 223 490 223 490 347 c 0,28,29
 490 476 490 476 454.5 531.5 c 128,-1,30
 419 587 419 587 342 591 c 1,31,-1
 342 101 l 1,25,26
EndSplineSet
EndChar

StartChar: uni0427
Encoding: 1063 1063 312
Width: 600
GlyphClass: 2
Flags: W
AnchorPoint: "Anchor-3" 289 689 basechar 0
AnchorPoint: "Anchor-2" 300 0 basechar 0
LayerCount: 2
Fore
SplineSet
522 689 m 1,0,-1
 522 0 l 1,1,-1
 423 0 l 1,2,-1
 423 276 l 1,3,4
 380 244 380 244 340.5 230 c 128,-1,5
 301 216 301 216 249 216 c 0,6,7
 157 216 157 216 102 272.5 c 128,-1,8
 47 329 47 329 47 425 c 2,9,-1
 47 689 l 1,10,-1
 146 689 l 1,11,-1
 146 431 l 2,12,13
 146 299 146 299 275 299 c 0,14,15
 362 299 362 299 423 356 c 1,16,-1
 423 689 l 1,17,-1
 522 689 l 1,0,-1
EndSplineSet
EndChar

StartChar: uni0426
Encoding: 1062 1062 313
Width: 600
GlyphClass: 2
Flags: W
AnchorPoint: "Anchor-3" 0 0 basechar 0
AnchorPoint: "Anchor-2" 300 0 basechar 0
LayerCount: 2
Fore
SplineSet
522 81 m 1,0,-1
 581 81 l 1,1,-1
 581 -151 l 1,2,-1
 503 -151 l 1,3,-1
 488 0 l 1,4,-1
 78 0 l 1,5,-1
 78 689 l 1,6,-1
 177 689 l 1,7,-1
 177 81 l 1,8,-1
 423 81 l 1,9,-1
 423 689 l 1,10,-1
 522 689 l 1,11,-1
 522 81 l 1,0,-1
EndSplineSet
EndChar

StartChar: uni0428
Encoding: 1064 1064 314
Width: 600
GlyphClass: 2
Flags: W
AnchorPoint: "Anchor-3" 300 689 basechar 0
AnchorPoint: "Anchor-2" 300 0 basechar 0
LayerCount: 2
Fore
SplineSet
556 689 m 1,0,-1
 556 0 l 1,1,-1
 44 0 l 1,2,-1
 44 689 l 1,3,-1
 134 689 l 1,4,-1
 134 79 l 1,5,-1
 258 79 l 1,6,-1
 258 689 l 1,7,-1
 342 689 l 1,8,-1
 342 79 l 1,9,-1
 466 79 l 1,10,-1
 466 689 l 1,11,-1
 556 689 l 1,0,-1
EndSplineSet
EndChar

StartChar: uni0429
Encoding: 1065 1065 315
Width: 600
GlyphClass: 2
Flags: W
AnchorPoint: "Anchor-3" 300 689 basechar 0
AnchorPoint: "Anchor-2" 300 0 basechar 0
LayerCount: 2
Fore
SplineSet
556 81 m 1,0,-1
 615 81 l 1,1,-1
 615 -151 l 1,2,-1
 537 -151 l 1,3,-1
 522 0 l 1,4,-1
 44 0 l 1,5,-1
 44 689 l 1,6,-1
 134 689 l 1,7,-1
 134 79 l 1,8,-1
 258 79 l 1,9,-1
 258 689 l 1,10,-1
 342 689 l 1,11,-1
 342 79 l 1,12,-1
 466 79 l 1,13,-1
 466 689 l 1,14,-1
 556 689 l 1,15,-1
 556 81 l 1,0,-1
EndSplineSet
EndChar

StartChar: uni040F
Encoding: 1039 1039 316
Width: 600
GlyphClass: 2
Flags: W
AnchorPoint: "Anchor-3" 0 0 basechar 0
AnchorPoint: "Anchor-2" 300 0 basechar 0
LayerCount: 2
Fore
SplineSet
522 689 m 1,0,-1
 522 0 l 1,1,-1
 347 0 l 1,2,-1
 347 -151 l 1,3,-1
 269 -151 l 1,4,-1
 254 0 l 1,5,-1
 78 0 l 1,6,-1
 78 689 l 1,7,-1
 177 689 l 1,8,-1
 177 81 l 1,9,-1
 423 81 l 1,10,-1
 423 689 l 1,11,-1
 522 689 l 1,0,-1
EndSplineSet
EndChar

StartChar: uni042C
Encoding: 1068 1068 317
Width: 600
GlyphClass: 2
Flags: W
AnchorPoint: "Anchor-3" 300 689 basechar 0
AnchorPoint: "Anchor-2" 300 0 basechar 0
LayerCount: 2
Fore
SplineSet
187 437 m 1,0,-1
 285 437 l 2,1,2
 415 437 415 437 485 385 c 128,-1,3
 555 333 555 333 555 224 c 0,4,5
 555 109 555 109 483.5 54.5 c 128,-1,6
 412 0 412 0 288 0 c 2,7,-1
 88 0 l 1,8,-1
 88 689 l 1,9,-1
 187 689 l 1,10,-1
 187 437 l 1,0,-1
187 361 m 1,11,-1
 187 79 l 1,12,-1
 295 79 l 2,13,14
 370 79 370 79 410 110.5 c 128,-1,15
 450 142 450 142 450 223 c 0,16,17
 450 361 450 361 294 361 c 2,18,-1
 187 361 l 1,11,-1
EndSplineSet
EndChar

StartChar: uni042A
Encoding: 1066 1066 318
Width: 600
Flags: W
LayerCount: 2
Fore
SplineSet
215 437 m 1,0,-1
 312 437 l 2,1,2
 442 437 442 437 512 385 c 128,-1,3
 582 333 582 333 582 224 c 0,4,5
 582 109 582 109 510.5 54.5 c 128,-1,6
 439 0 439 0 315 0 c 2,7,-1
 116 0 l 1,8,-1
 116 606 l 1,9,-1
 0 606 l 1,10,-1
 0 689 l 1,11,-1
 215 689 l 1,12,-1
 215 437 l 1,0,-1
215 361 m 1,13,-1
 215 78 l 1,14,-1
 322 78 l 2,15,16
 398 78 398 78 438.5 109.5 c 128,-1,17
 479 141 479 141 479 223 c 0,18,19
 479 361 479 361 323 361 c 2,20,-1
 215 361 l 1,13,-1
EndSplineSet
EndChar

StartChar: uni042B
Encoding: 1067 1067 319
Width: 600
GlyphClass: 2
Flags: W
AnchorPoint: "Anchor-3" 300 689 basechar 0
AnchorPoint: "Anchor-2" 300 0 basechar 0
LayerCount: 2
Fore
SplineSet
125 438 m 1,0,-1
 179 438 l 2,1,2
 303 438 303 438 365.5 383.5 c 128,-1,3
 428 329 428 329 428 224 c 0,4,5
 428 112 428 112 364 56 c 128,-1,6
 300 0 300 0 181 0 c 2,7,-1
 29 0 l 1,8,-1
 29 689 l 1,9,-1
 125 689 l 1,10,-1
 125 438 l 1,0,-1
571 689 m 1,11,-1
 571 0 l 1,12,-1
 475 0 l 1,13,-1
 475 689 l 1,14,-1
 571 689 l 1,11,-1
125 364 m 1,15,-1
 125 76 l 1,16,-1
 189 76 l 2,17,18
 258 76 258 76 293.5 110.5 c 128,-1,19
 329 145 329 145 329 223 c 0,20,21
 329 364 329 364 189 364 c 2,22,-1
 125 364 l 1,15,-1
EndSplineSet
EndChar

StartChar: uni0409
Encoding: 1033 1033 320
Width: 600
GlyphClass: 2
Flags: W
AnchorPoint: "Anchor-3" 300 689 basechar 0
AnchorPoint: "Anchor-2" 300 0 basechar 0
LayerCount: 2
Fore
SplineSet
356 437 m 1,0,1
 479 437 479 437 539.5 385 c 128,-1,2
 600 333 600 333 600 224 c 0,3,4
 600 0 600 0 363 0 c 2,5,-1
 264 0 l 1,6,-1
 264 612 l 1,7,-1
 176 612 l 1,8,-1
 155 310 l 2,9,10
 146 191 146 191 133 130.5 c 128,-1,11
 120 70 120 70 101 42.5 c 128,-1,12
 82 15 82 15 46 -12 c 1,13,-1
 -1 51 l 1,14,15
 17 70 17 70 28 94 c 128,-1,16
 39 118 39 118 48 169.5 c 128,-1,17
 57 221 57 221 64 314 c 2,18,-1
 93 689 l 1,19,-1
 356 689 l 1,20,-1
 356 437 l 1,0,1
356 364 m 1,21,-1
 356 76 l 1,22,-1
 371 76 l 2,23,24
 439 76 439 76 471 108.5 c 128,-1,25
 503 141 503 141 503 223 c 0,26,27
 503 298 503 298 470.5 331 c 128,-1,28
 438 364 438 364 371 364 c 2,29,-1
 356 364 l 1,21,-1
EndSplineSet
EndChar

StartChar: uni040A
Encoding: 1034 1034 321
Width: 600
GlyphClass: 2
Flags: W
AnchorPoint: "Anchor-3" 300 689 basechar 0
AnchorPoint: "Anchor-2" 300 0 basechar 0
LayerCount: 2
Fore
SplineSet
357 417 m 1,0,1
 479 417 479 417 539.5 368 c 128,-1,2
 600 319 600 319 600 215 c 0,3,4
 600 102 600 102 539 51 c 128,-1,5
 478 0 478 0 363 0 c 2,6,-1
 264 0 l 1,7,-1
 264 345 l 1,8,-1
 132 345 l 1,9,-1
 132 0 l 1,10,-1
 39 0 l 1,11,-1
 39 689 l 1,12,-1
 132 689 l 1,13,-1
 132 417 l 1,14,-1
 264 417 l 1,15,-1
 264 689 l 1,16,-1
 357 689 l 1,17,-1
 357 417 l 1,0,1
357 345 m 1,18,-1
 357 75 l 1,19,-1
 371 75 l 2,20,21
 417 76 417 76 445 87.5 c 128,-1,22
 473 99 473 99 488 129 c 128,-1,23
 503 159 503 159 503 214 c 0,24,25
 503 285 503 285 471 315 c 128,-1,26
 439 345 439 345 371 345 c 2,27,-1
 357 345 l 1,18,-1
EndSplineSet
EndChar

StartChar: uni0404
Encoding: 1028 1028 323
Width: 600
GlyphClass: 2
Flags: W
AnchorPoint: "Anchor-3" 300 689 basechar 0
AnchorPoint: "Anchor-2" 300 0 basechar 0
LayerCount: 2
Fore
SplineSet
465.5 685 m 128,-1,1
 513 668 513 668 557 633 c 1,2,-1
 507 574 l 1,3,4
 439 623 439 623 360 623 c 0,5,6
 277 623 277 623 222 567.5 c 128,-1,7
 167 512 167 512 158 394 c 1,8,-1
 454 394 l 1,9,-1
 454 314 l 1,10,-1
 156 314 l 1,11,12
 162 190 162 190 217 129 c 128,-1,13
 272 68 272 68 358 68 c 0,14,15
 449 68 449 68 516 127 c 1,16,-1
 566 65 l 1,17,18
 483 -12 483 -12 354 -12 c 0,19,20
 266 -12 266 -12 198 29.5 c 128,-1,21
 130 71 130 71 92 151.5 c 128,-1,22
 54 232 54 232 54 345 c 0,23,24
 54 457 54 457 94 538 c 128,-1,25
 134 619 134 619 202 660.5 c 128,-1,26
 270 702 270 702 353 702 c 0,27,0
 418 702 418 702 465.5 685 c 128,-1,1
EndSplineSet
EndChar

StartChar: uni042D
Encoding: 1069 1069 324
Width: 600
GlyphClass: 2
Flags: W
AnchorPoint: "Anchor-3" 287 689 basechar 0
AnchorPoint: "Anchor-2" 300 0 basechar 0
LayerCount: 2
Fore
SplineSet
469.5 613.5 m 128,-1,1
 542 525 542 525 542 353 c 0,2,3
 542 176 542 176 466 82 c 128,-1,4
 390 -12 390 -12 258 -12 c 0,5,6
 192 -12 192 -12 135 11.5 c 128,-1,7
 78 35 78 35 37 76 c 1,8,-1
 94 132 l 1,9,10
 130 100 130 100 168 84 c 128,-1,11
 206 68 206 68 253 68 c 0,12,13
 341 68 341 68 387.5 128 c 128,-1,14
 434 188 434 188 440 314 c 1,15,-1
 145 314 l 1,16,-1
 145 394 l 1,17,-1
 440 394 l 1,18,19
 433 515 433 515 388.5 569 c 128,-1,20
 344 623 344 623 262 623 c 0,21,22
 211 623 211 623 173.5 606.5 c 128,-1,23
 136 590 136 590 98 560 c 1,24,-1
 45 616 l 1,25,26
 91 656 91 656 145 679 c 128,-1,27
 199 702 199 702 268 702 c 0,28,0
 397 702 397 702 469.5 613.5 c 128,-1,1
EndSplineSet
EndChar

StartChar: uni040B
Encoding: 1035 1035 328
Width: 600
Flags: W
LayerCount: 2
Fore
SplineSet
407 610 m 1,0,-1
 250 610 l 1,1,-1
 250 396 l 1,2,3
 310 453 310 453 391 453 c 0,4,5
 569 453 569 453 569 247 c 2,6,-1
 569 0 l 1,7,-1
 471 0 l 1,8,-1
 471 244 l 2,9,10
 471 313 471 313 447.5 342 c 128,-1,11
 424 371 424 371 368 371 c 0,12,13
 329 371 329 371 301.5 357 c 128,-1,14
 274 343 274 343 250 321 c 1,15,-1
 250 0 l 1,16,-1
 153 0 l 1,17,-1
 153 610 l 1,18,-1
 -5 610 l 1,19,-1
 -5 689 l 1,20,-1
 417 689 l 1,21,-1
 407 610 l 1,0,-1
EndSplineSet
EndChar

StartChar: uni042E
Encoding: 1070 1070 329
Width: 600
GlyphClass: 2
Flags: W
AnchorPoint: "Anchor-3" 300 689 basechar 0
AnchorPoint: "Anchor-2" 300 0 basechar 0
LayerCount: 2
Fore
SplineSet
537 615 m 128,-1,1
 580 528 580 528 580 344 c 0,2,3
 580 166 580 166 535 77 c 128,-1,4
 490 -12 490 -12 389 -12 c 256,5,6
 288 -12 288 -12 244 73 c 128,-1,7
 200 158 200 158 198 318 c 1,8,-1
 134 318 l 1,9,-1
 134 0 l 1,10,-1
 44 0 l 1,11,-1
 44 689 l 1,12,-1
 134 689 l 1,13,-1
 134 396 l 1,14,-1
 199 396 l 1,15,16
 205 549 205 549 249.5 625.5 c 128,-1,17
 294 702 294 702 389 702 c 0,18,0
 494 702 494 702 537 615 c 128,-1,1
333.5 599 m 128,-1,20
 313 573 313 573 304 512.5 c 128,-1,21
 295 452 295 452 295 345 c 0,22,23
 295 239 295 239 304 178.5 c 128,-1,24
 313 118 313 118 333.5 91.5 c 128,-1,25
 354 65 354 65 389 65 c 0,26,27
 423 65 423 65 443.5 91 c 128,-1,28
 464 117 464 117 474 178 c 128,-1,29
 484 239 484 239 484 344 c 0,30,31
 484 450 484 450 474 511 c 128,-1,32
 464 572 464 572 443.5 598.5 c 128,-1,33
 423 625 423 625 389 625 c 0,34,19
 354 625 354 625 333.5 599 c 128,-1,20
EndSplineSet
EndChar

StartChar: uni042F
Encoding: 1071 1071 330
Width: 600
GlyphClass: 2
Flags: W
AnchorPoint: "Anchor-3" 300 689 basechar 0
AnchorPoint: "Anchor-2" 300 0 basechar 0
LayerCount: 2
Fore
SplineSet
522 0 m 1,0,-1
 423 0 l 1,1,-1
 423 273 l 1,2,-1
 280 273 l 1,3,-1
 139 0 l 1,4,-1
 28 0 l 1,5,-1
 189 294 l 1,6,7
 130 321 130 321 99.5 369 c 128,-1,8
 69 417 69 417 69 482 c 0,9,10
 69 582 69 582 136.5 635.5 c 128,-1,11
 204 689 204 689 333 689 c 2,12,-1
 522 689 l 1,13,-1
 522 0 l 1,0,-1
325 613 m 2,14,15
 248 613 248 613 211 581 c 128,-1,16
 174 549 174 549 174 482 c 0,17,18
 174 350 174 350 310 350 c 2,19,-1
 423 350 l 1,20,-1
 423 613 l 1,21,-1
 325 613 l 2,14,15
EndSplineSet
EndChar

StartChar: uni0402
Encoding: 1026 1026 331
Width: 600
GlyphClass: 2
Flags: W
AnchorPoint: "Anchor-3" 300 689 basechar 0
AnchorPoint: "Anchor-2" 300 -203 basechar 0
LayerCount: 2
Fore
SplineSet
250 396 m 1,0,1
 314 453 314 453 391 453 c 0,2,3
 569 453 569 453 569 247 c 2,4,-1
 569 96 l 2,5,6
 569 -5 569 -5 524.5 -58 c 128,-1,7
 480 -111 480 -111 390 -141 c 1,8,-1
 365 -65 l 1,9,10
 408 -47 408 -47 430.5 -27 c 128,-1,11
 453 -7 453 -7 462 21.5 c 128,-1,12
 471 50 471 50 471 96 c 2,13,-1
 471 244 l 2,14,15
 471 313 471 313 447.5 342 c 128,-1,16
 424 371 424 371 368 371 c 0,17,18
 329 371 329 371 301.5 357 c 128,-1,19
 274 343 274 343 250 321 c 1,20,-1
 250 0 l 1,21,-1
 153 0 l 1,22,-1
 153 610 l 1,23,-1
 -5 610 l 1,24,-1
 -5 689 l 1,25,-1
 417 689 l 1,26,-1
 407 610 l 1,27,-1
 250 610 l 1,28,-1
 250 396 l 1,0,1
EndSplineSet
EndChar

StartChar: uni0460
Encoding: 1120 1120 332
Width: 600
Flags: W
LayerCount: 2
Fore
SplineSet
564.5 516.5 m 128,-1,1
 585 426 585 426 585 299 c 0,2,3
 585 137 585 137 541.5 62.5 c 128,-1,4
 498 -12 498 -12 421 -12 c 0,5,6
 374 -12 374 -12 345.5 13.5 c 128,-1,7
 317 39 317 39 301 90 c 1,8,9
 285 39 285 39 257 13.5 c 128,-1,10
 229 -12 229 -12 182 -12 c 0,11,12
 137 -12 137 -12 99.5 19 c 128,-1,13
 62 50 62 50 39 119.5 c 128,-1,14
 16 189 16 189 16 299 c 0,15,16
 16 426 16 426 36 514 c 128,-1,17
 56 602 56 602 88 689 c 1,18,-1
 179 689 l 1,19,20
 145 594 145 594 128 506 c 128,-1,21
 111 418 111 418 111 302 c 0,22,23
 111 177 111 177 133.5 122 c 128,-1,24
 156 67 156 67 197 67 c 0,25,26
 223 67 223 67 239 91 c 128,-1,27
 255 115 255 115 255 168 c 2,28,-1
 255 398 l 1,29,-1
 346 398 l 1,30,-1
 346 168 l 2,31,32
 346 117 346 117 364 92 c 128,-1,33
 382 67 382 67 410 67 c 0,34,35
 448 67 448 67 469 116.5 c 128,-1,36
 490 166 490 166 490 300 c 0,37,38
 490 414 490 414 472.5 501.5 c 128,-1,39
 455 589 455 589 422 689 c 1,40,-1
 513 689 l 1,41,0
 544 607 544 607 564.5 516.5 c 128,-1,1
EndSplineSet
EndChar

StartChar: uni0462
Encoding: 1122 1122 333
Width: 600
GlyphClass: 2
Flags: W
AnchorPoint: "Anchor-3" 300 689 basechar 0
AnchorPoint: "Anchor-2" 300 0 basechar 0
LayerCount: 2
Fore
SplineSet
502 378 m 128,-1,1
 571 325 571 325 571 222 c 0,2,3
 571 110 571 110 499 55 c 128,-1,4
 427 0 427 0 305 0 c 2,5,-1
 149 0 l 1,6,-1
 149 528 l 1,7,-1
 10 528 l 1,8,-1
 10 598 l 1,9,-1
 149 598 l 1,10,-1
 149 689 l 1,11,-1
 249 689 l 1,12,-1
 249 598 l 1,13,-1
 397 598 l 1,14,-1
 397 528 l 1,15,-1
 249 528 l 1,16,-1
 249 431 l 1,17,-1
 313 431 l 2,18,0
 433 431 433 431 502 378 c 128,-1,1
425 111 m 128,-1,20
 466 143 466 143 466 221 c 0,21,22
 466 291 466 291 426.5 322.5 c 128,-1,23
 387 354 387 354 314 354 c 2,24,-1
 249 354 l 1,25,-1
 249 79 l 1,26,-1
 311 79 l 2,27,19
 384 79 384 79 425 111 c 128,-1,20
EndSplineSet
EndChar

StartChar: uni0464
Encoding: 1124 1124 334
Width: 600
GlyphClass: 2
Flags: W
AnchorPoint: "Anchor-3" 300 689 basechar 0
AnchorPoint: "Anchor-2" 300 0 basechar 0
LayerCount: 2
Fore
SplineSet
597 34 m 1,0,1
 567 12 567 12 532.5 0 c 128,-1,2
 498 -12 498 -12 450 -12 c 0,3,4
 338 -12 338 -12 273 72 c 128,-1,5
 208 156 208 156 202 314 c 1,6,-1
 136 314 l 1,7,-1
 136 0 l 1,8,-1
 37 0 l 1,9,-1
 37 689 l 1,10,-1
 136 689 l 1,11,-1
 136 396 l 1,12,-1
 203 396 l 1,13,14
 213 543 213 543 280.5 622.5 c 128,-1,15
 348 702 348 702 457 702 c 0,16,17
 501 702 501 702 531 692.5 c 128,-1,18
 561 683 561 683 591 662 c 1,19,-1
 548 599 l 1,20,21
 526 612 526 612 506 617.5 c 128,-1,22
 486 623 486 623 459 623 c 0,23,24
 392 623 392 623 352 569 c 128,-1,25
 312 515 312 515 303 394 c 1,26,-1
 520 394 l 1,27,-1
 520 314 l 1,28,-1
 301 314 l 1,29,30
 312 68 312 68 455 68 c 0,31,32
 487 68 487 68 509 76 c 128,-1,33
 531 84 531 84 555 98 c 1,34,-1
 597 34 l 1,0,1
EndSplineSet
EndChar

StartChar: uni0466
Encoding: 1126 1126 335
Width: 600
GlyphClass: 2
Flags: W
AnchorPoint: "Anchor-3" 300 689 basechar 0
AnchorPoint: "Anchor-2" 300 0 basechar 0
LayerCount: 2
Fore
SplineSet
481 0 m 1,0,-1
 396 283 l 1,1,-1
 342 283 l 1,2,-1
 342 0 l 1,3,-1
 254 0 l 1,4,-1
 254 283 l 1,5,-1
 200 283 l 1,6,-1
 115 0 l 1,7,-1
 15 0 l 1,8,-1
 238 689 l 1,9,-1
 362 689 l 1,10,-1
 585 0 l 1,11,-1
 481 0 l 1,0,-1
224 363 m 1,12,-1
 372 363 l 1,13,-1
 298 611 l 1,14,-1
 224 363 l 1,12,-1
EndSplineSet
EndChar

StartChar: uni0468
Encoding: 1128 1128 336
Width: 600
GlyphClass: 2
Flags: W
AnchorPoint: "Anchor-3" 300 689 basechar 0
AnchorPoint: "Anchor-2" 300 0 basechar 0
LayerCount: 2
Fore
SplineSet
511 0 m 1,0,-1
 449 287 l 1,1,-1
 416 287 l 1,2,-1
 416 0 l 1,3,-1
 339 0 l 1,4,-1
 339 287 l 1,5,-1
 305 287 l 1,6,-1
 243 0 l 1,7,-1
 155 0 l 1,8,-1
 222 287 l 1,9,-1
 123 287 l 1,10,-1
 123 0 l 1,11,-1
 31 0 l 1,12,-1
 31 689 l 1,13,-1
 123 689 l 1,14,-1
 123 360 l 1,15,-1
 240 360 l 1,16,-1
 317 689 l 1,17,-1
 442 689 l 1,18,-1
 603 0 l 1,19,-1
 511 0 l 1,0,-1
321 360 m 1,20,-1
 433 360 l 1,21,-1
 377 621 l 1,22,-1
 321 360 l 1,20,-1
EndSplineSet
EndChar

StartChar: uni046A
Encoding: 1130 1130 337
Width: 600
GlyphClass: 2
Flags: W
AnchorPoint: "Anchor-3" 300 689 basechar 0
AnchorPoint: "Anchor-2" 300 0 basechar 0
LayerCount: 2
Fore
SplineSet
462 382 m 1,0,-1
 568 0 l 1,1,-1
 479 0 l 1,2,-1
 398 311 l 1,3,-1
 346 311 l 1,4,-1
 346 0 l 1,5,-1
 255 0 l 1,6,-1
 255 311 l 1,7,-1
 202 311 l 1,8,-1
 121 0 l 1,9,-1
 32 0 l 1,10,-1
 144 382 l 1,11,-1
 216 382 l 1,12,-1
 89 627 l 1,13,-1
 89 689 l 1,14,-1
 515 689 l 1,15,-1
 515 627 l 1,16,-1
 384 382 l 1,17,-1
 462 382 l 1,0,-1
185 622 m 1,18,-1
 303 382 l 1,19,-1
 421 622 l 1,20,-1
 185 622 l 1,18,-1
EndSplineSet
EndChar

StartChar: uni046C
Encoding: 1132 1132 338
Width: 600
GlyphClass: 2
Flags: W
AnchorPoint: "Anchor-3" 300 689 basechar 0
AnchorPoint: "Anchor-2" 300 0 basechar 0
LayerCount: 2
Fore
SplineSet
533 382 m 1,0,-1
 625 0 l 1,1,-1
 537 0 l 1,2,-1
 469 311 l 1,3,-1
 426 311 l 1,4,-1
 426 0 l 1,5,-1
 336 0 l 1,6,-1
 336 311 l 1,7,-1
 293 311 l 1,8,-1
 223 0 l 1,9,-1
 135 0 l 1,10,-1
 216 311 l 1,11,-1
 108 311 l 1,12,-1
 108 0 l 1,13,-1
 16 0 l 1,14,-1
 16 689 l 1,15,-1
 108 689 l 1,16,-1
 108 382 l 1,17,-1
 300 382 l 1,18,-1
 190 627 l 1,19,-1
 190 689 l 1,20,-1
 574 689 l 1,21,-1
 574 627 l 1,22,-1
 460 382 l 1,23,-1
 533 382 l 1,0,-1
485 622 m 1,24,-1
 281 622 l 1,25,-1
 383 382 l 1,26,-1
 485 622 l 1,24,-1
EndSplineSet
EndChar

StartChar: uni046E
Encoding: 1134 1134 339
Width: 600
GlyphClass: 2
Flags: W
AnchorPoint: "Anchor-3" 283 689 basechar 0
AnchorPoint: "Anchor-2" 0 0 basechar 0
LayerCount: 2
Fore
SplineSet
315 754 m 1,0,-1
 252 754 l 1,1,-1
 116 865 l 1,2,-1
 157 911 l 1,3,-1
 283 830 l 1,4,-1
 410 911 l 1,5,-1
 450 865 l 1,6,-1
 315 754 l 1,0,-1
463.5 325.5 m 128,-1,8
 521 274 521 274 521 180 c 0,9,10
 521 89 521 89 461.5 36 c 128,-1,11
 402 -17 402 -17 310 -29 c 0,12,13
 238 -39 238 -39 213.5 -50 c 128,-1,14
 189 -61 189 -61 189 -82 c 0,15,16
 189 -101 189 -101 207 -117.5 c 128,-1,17
 225 -134 225 -134 263 -154 c 1,18,-1
 227 -216 l 1,19,20
 159 -187 159 -187 125 -152 c 128,-1,21
 91 -117 91 -117 91 -73 c 0,22,23
 91 -23 91 -23 131 5 c 128,-1,24
 171 33 171 33 257 44 c 0,25,26
 336 54 336 54 377 87 c 128,-1,27
 418 120 418 120 418 182 c 0,28,29
 418 248 418 248 382.5 277.5 c 128,-1,30
 347 307 347 307 274 307 c 2,31,-1
 165 307 l 1,32,-1
 165 375 l 1,33,-1
 371 609 l 1,34,-1
 79 609 l 1,35,-1
 79 689 l 1,36,-1
 487 689 l 1,37,-1
 487 610 l 1,38,-1
 273 378 l 1,39,-1
 296 378 l 2,40,7
 406 377 406 377 463.5 325.5 c 128,-1,8
EndSplineSet
EndChar

StartChar: uni0474
Encoding: 1140 1140 342
Width: 600
GlyphClass: 2
Flags: W
AnchorPoint: "Anchor-3" 290 689 basechar 0
AnchorPoint: "Anchor-2" 300 0 basechar 0
LayerCount: 2
Fore
SplineSet
537 627 m 0,1,2
 519 627 519 627 508 615 c 128,-1,3
 497 603 497 603 490 576 c 2,4,-1
 337 0 l 1,5,-1
 224 0 l 1,6,-1
 25 689 l 1,7,-1
 131 689 l 1,8,-1
 280 104 l 1,9,-1
 399 588 l 2,10,11
 414 648 414 648 444 675 c 128,-1,12
 474 702 474 702 524 702 c 0,13,14
 562 702 562 702 594 685 c 1,15,-1
 568 620 l 1,16,0
 549 627 549 627 537 627 c 0,1,2
EndSplineSet
EndChar

StartChar: uni0478
Encoding: 1144 1144 344
Width: 600
Flags: W
LayerCount: 2
Fore
SplineSet
43 78.5 m 128,-1,1
 6 169 6 169 6 343 c 0,2,3
 6 702 6 702 162 702 c 0,4,5
 245 702 245 702 282 610.5 c 128,-1,6
 319 519 319 519 319 344 c 256,7,8
 319 169 319 169 282 78.5 c 128,-1,9
 245 -12 245 -12 162 -12 c 0,10,0
 80 -12 80 -12 43 78.5 c 128,-1,1
205.5 89 m 128,-1,12
 221 118 221 118 227 179 c 128,-1,13
 233 240 233 240 233 344 c 256,14,15
 233 448 233 448 227 509.5 c 128,-1,16
 221 571 221 571 205.5 600.5 c 128,-1,17
 190 630 190 630 162 630 c 0,18,19
 135 630 135 630 119.5 600.5 c 128,-1,20
 104 571 104 571 98 509 c 128,-1,21
 92 447 92 447 92 343 c 0,22,23
 92 191 92 191 107.5 125.5 c 128,-1,24
 123 60 123 60 162 60 c 0,25,11
 190 60 190 60 205.5 89 c 128,-1,12
335 -148 m 1,26,27
 380 -134 380 -134 405.5 -100 c 128,-1,28
 431 -66 431 -66 441 0 c 1,29,-1
 404 0 l 1,30,-1
 322 527 l 1,31,-1
 402 527 l 1,32,-1
 460 70 l 1,33,-1
 514 527 l 1,34,-1
 594 527 l 1,35,-1
 512 -3 l 2,36,37
 498 -93 498 -93 457 -143.5 c 128,-1,38
 416 -194 416 -194 349 -214 c 1,39,-1
 335 -148 l 1,26,27
EndSplineSet
EndChar

StartChar: uni0492
Encoding: 1170 1170 345
Width: 600
GlyphClass: 2
Flags: W
AnchorPoint: "Anchor-3" 376 689 basechar 0
AnchorPoint: "Anchor-2" 209 0 basechar 0
LayerCount: 2
Fore
SplineSet
566 604 m 1,0,-1
 258 604 l 1,1,-1
 258 433 l 1,2,-1
 413 433 l 1,3,-1
 413 361 l 1,4,-1
 258 361 l 1,5,-1
 258 0 l 1,6,-1
 159 0 l 1,7,-1
 159 361 l 1,8,-1
 61 361 l 1,9,-1
 61 433 l 1,10,-1
 159 433 l 1,11,-1
 159 689 l 1,12,-1
 577 689 l 1,13,-1
 566 604 l 1,0,-1
EndSplineSet
EndChar

StartChar: uni0494
Encoding: 1172 1172 346
Width: 600
GlyphClass: 2
Flags: W
AnchorPoint: "Anchor-3" 300 689 basechar 0
AnchorPoint: "Anchor-2" 300 -203 basechar 0
LayerCount: 2
Fore
SplineSet
552 1 m 1,0,-1
 552 -55 l 2,1,2
 552 -133 552 -133 511 -173.5 c 128,-1,3
 470 -214 470 -214 398 -214 c 0,4,5
 331 -214 331 -214 282 -175 c 1,6,-1
 319 -113 l 1,7,8
 339 -125 339 -125 354.5 -130 c 128,-1,9
 370 -135 370 -135 392 -135 c 0,10,11
 453 -135 453 -135 453 -62 c 2,12,-1
 453 0 l 1,13,-1
 452 0 l 1,14,-1
 452 234 l 2,15,16
 452 370 452 370 333 370 c 0,17,18
 283 370 283 370 246 351.5 c 128,-1,19
 209 333 209 333 176 296 c 1,20,-1
 176 0 l 1,21,-1
 77 0 l 1,22,-1
 77 689 l 1,23,-1
 472 689 l 1,24,-1
 459 608 l 1,25,-1
 177 608 l 1,26,-1
 176 609 l 1,27,-1
 176 382 l 1,28,29
 247 453 247 453 353 453 c 0,30,31
 446 453 446 453 498.5 395 c 128,-1,32
 551 337 551 337 551 235 c 2,33,-1
 551 1 l 1,34,-1
 552 1 l 1,0,-1
EndSplineSet
EndChar

StartChar: uni0496
Encoding: 1174 1174 347
Width: 600
GlyphClass: 2
Flags: W
AnchorPoint: "Anchor-3" 300 689 basechar 0
AnchorPoint: "Anchor-2" 300 0 basechar 0
LayerCount: 2
Fore
SplineSet
563 81 m 1,0,-1
 610 81 l 1,1,-1
 610 -151 l 1,2,-1
 533 -151 l 1,3,-1
 518 0 l 1,4,-1
 495 0 l 1,5,-1
 396 326 l 1,6,-1
 341 326 l 1,7,-1
 341 0 l 1,8,-1
 259 0 l 1,9,-1
 259 326 l 1,10,-1
 203 326 l 1,11,-1
 103 0 l 1,12,-1
 10 0 l 1,13,-1
 131 367 l 1,14,-1
 24 689 l 1,15,-1
 116 689 l 1,16,-1
 204 398 l 1,17,-1
 259 398 l 1,18,-1
 259 689 l 1,19,-1
 341 689 l 1,20,-1
 341 398 l 1,21,-1
 396 398 l 1,22,-1
 485 689 l 1,23,-1
 576 689 l 1,24,-1
 469 367 l 1,25,-1
 563 81 l 1,0,-1
EndSplineSet
EndChar

StartChar: uni0498
Encoding: 1176 1176 348
Width: 600
GlyphClass: 2
Flags: W
AnchorPoint: "Anchor-3" 297 689 basechar 0
AnchorPoint: "Anchor-2" 293 0 basechar 0
LayerCount: 2
Fore
SplineSet
482.5 58.5 m 128,-1,1
 421 0 421 0 315 -10 c 1,2,-1
 315 -56 l 1,3,4
 362 -60 362 -60 385.5 -84 c 128,-1,5
 409 -108 409 -108 409 -141 c 0,6,7
 409 -189 409 -189 373 -215.5 c 128,-1,8
 337 -242 337 -242 283 -242 c 0,9,10
 252 -242 252 -242 224 -235.5 c 128,-1,11
 196 -229 196 -229 176 -217 c 1,12,-1
 204 -165 l 1,13,14
 236 -181 236 -181 271 -181 c 0,15,16
 330 -181 330 -181 330 -141 c 0,17,18
 330 -117 330 -117 308.5 -108.5 c 128,-1,19
 287 -100 287 -100 243 -100 c 1,20,-1
 250 -11 l 1,21,22
 183 -7 183 -7 127 18 c 128,-1,23
 71 43 71 43 30 86 c 1,24,-1
 89 140 l 1,25,26
 172 68 172 68 276 68 c 0,27,28
 353 68 353 68 396 103.5 c 128,-1,29
 439 139 439 139 439 202 c 0,30,31
 439 266 439 266 396.5 297.5 c 128,-1,32
 354 329 354 329 283 329 c 2,33,-1
 162 329 l 1,34,-1
 174 409 l 1,35,-1
 277 409 l 2,36,37
 339 409 339 409 379.5 436.5 c 128,-1,38
 420 464 420 464 420 518 c 0,39,40
 420 568 420 568 380.5 595.5 c 128,-1,41
 341 623 341 623 277 623 c 0,42,43
 224 623 224 623 181.5 606.5 c 128,-1,44
 139 590 139 590 98 559 c 1,45,-1
 45 615 l 1,46,47
 149 702 149 702 281 702 c 0,48,49
 354 702 354 702 408 679 c 128,-1,50
 462 656 462 656 491.5 615 c 128,-1,51
 521 574 521 574 521 521 c 0,52,53
 521 460 521 460 481 421.5 c 128,-1,54
 441 383 441 383 376 374 c 1,55,56
 448 368 448 368 496 323.5 c 128,-1,57
 544 279 544 279 544 204 c 0,58,0
 544 117 544 117 482.5 58.5 c 128,-1,1
EndSplineSet
EndChar

StartChar: uni049A
Encoding: 1178 1178 349
Width: 600
GlyphClass: 2
Flags: W
AnchorPoint: "Anchor-3" 320 689 basechar 0
AnchorPoint: "Anchor-2" 300 0 basechar 0
LayerCount: 2
Fore
SplineSet
537 81 m 1,0,-1
 590 81 l 1,1,-1
 590 -151 l 1,2,-1
 512 -151 l 1,3,-1
 497 0 l 1,4,-1
 473 0 l 1,5,-1
 264 322 l 1,6,-1
 187 322 l 1,7,-1
 187 0 l 1,8,-1
 88 0 l 1,9,-1
 88 689 l 1,10,-1
 187 689 l 1,11,-1
 187 402 l 1,12,-1
 265 402 l 1,13,-1
 467 689 l 1,14,-1
 571 689 l 1,15,-1
 348 367 l 1,16,-1
 537 81 l 1,0,-1
EndSplineSet
EndChar

StartChar: uni049C
Encoding: 1180 1180 350
Width: 600
GlyphClass: 2
Flags: W
AnchorPoint: "Anchor-3" 300 689 basechar 0
AnchorPoint: "Anchor-2" 300 0 basechar 0
LayerCount: 2
Fore
SplineSet
229 150 m 1,0,-1
 229 323 l 1,1,-1
 183 323 l 1,2,-1
 183 0 l 1,3,-1
 88 0 l 1,4,-1
 88 689 l 1,5,-1
 183 689 l 1,6,-1
 183 401 l 1,7,-1
 229 401 l 1,8,-1
 229 570 l 1,9,-1
 283 570 l 1,10,-1
 283 401 l 1,11,-1
 308 401 l 1,12,-1
 469 689 l 1,13,-1
 571 689 l 1,14,-1
 385 367 l 1,15,-1
 590 0 l 1,16,-1
 481 0 l 1,17,-1
 308 323 l 1,18,-1
 283 323 l 1,19,-1
 283 150 l 1,20,-1
 229 150 l 1,0,-1
EndSplineSet
EndChar

StartChar: uni049E
Encoding: 1182 1182 351
Width: 600
Flags: W
LayerCount: 2
Fore
SplineSet
365 367 m 1,0,-1
 587 0 l 1,1,-1
 470 0 l 1,2,-1
 281 322 l 1,3,-1
 204 322 l 1,4,-1
 204 0 l 1,5,-1
 105 0 l 1,6,-1
 105 525 l 1,7,-1
 33 525 l 1,8,-1
 33 599 l 1,9,-1
 105 599 l 1,10,-1
 105 689 l 1,11,-1
 204 689 l 1,12,-1
 204 599 l 1,13,-1
 313 599 l 1,14,-1
 313 525 l 1,15,-1
 204 525 l 1,16,-1
 204 402 l 1,17,-1
 282 402 l 1,18,-1
 464 689 l 1,19,-1
 568 689 l 1,20,-1
 365 367 l 1,0,-1
EndSplineSet
EndChar

StartChar: uni04A0
Encoding: 1184 1184 352
Width: 600
Flags: W
LayerCount: 2
Fore
SplineSet
292 322 m 1,0,-1
 224 322 l 1,1,-1
 224 0 l 1,2,-1
 126 0 l 1,3,-1
 126 606 l 1,4,-1
 9 606 l 1,5,-1
 9 689 l 1,6,-1
 224 689 l 1,7,-1
 224 402 l 1,8,-1
 293 402 l 1,9,-1
 477 689 l 1,10,-1
 581 689 l 1,11,-1
 376 367 l 1,12,-1
 600 0 l 1,13,-1
 484 0 l 1,14,-1
 292 322 l 1,0,-1
EndSplineSet
EndChar

StartChar: uni04A2
Encoding: 1186 1186 353
Width: 600
GlyphClass: 2
Flags: W
AnchorPoint: "Anchor-3" 300 689 basechar 0
AnchorPoint: "Anchor-2" 300 0 basechar 0
LayerCount: 2
Fore
SplineSet
522 81 m 1,0,-1
 581 81 l 1,1,-1
 581 -151 l 1,2,-1
 503 -151 l 1,3,-1
 488 0 l 1,4,-1
 423 0 l 1,5,-1
 423 321 l 1,6,-1
 177 321 l 1,7,-1
 177 0 l 1,8,-1
 78 0 l 1,9,-1
 78 689 l 1,10,-1
 177 689 l 1,11,-1
 177 403 l 1,12,-1
 423 403 l 1,13,-1
 423 689 l 1,14,-1
 522 689 l 1,15,-1
 522 81 l 1,0,-1
EndSplineSet
EndChar

StartChar: uni04A4
Encoding: 1188 1188 354
Width: 600
Flags: W
LayerCount: 2
Fore
SplineSet
607 689 m 1,0,-1
 596 608 l 1,1,-1
 465 608 l 1,2,-1
 465 0 l 1,3,-1
 366 0 l 1,4,-1
 366 321 l 1,5,-1
 161 321 l 1,6,-1
 161 0 l 1,7,-1
 62 0 l 1,8,-1
 62 689 l 1,9,-1
 161 689 l 1,10,-1
 161 403 l 1,11,-1
 366 403 l 1,12,-1
 366 689 l 1,13,-1
 607 689 l 1,0,-1
EndSplineSet
EndChar

StartChar: uni04A6
Encoding: 1190 1190 355
Width: 600
GlyphClass: 2
Flags: W
AnchorPoint: "Anchor-3" 300 689 basechar 0
AnchorPoint: "Anchor-2" 300 -203 basechar 0
LayerCount: 2
Fore
SplineSet
553.5 410.5 m 128,-1,1
 591 368 591 368 591 297 c 2,2,-1
 591 -56 l 2,3,4
 591 -132 591 -132 550 -173 c 128,-1,5
 509 -214 509 -214 442 -214 c 256,6,7
 375 -214 375 -214 326 -175 c 1,8,-1
 363 -114 l 1,9,10
 383 -126 383 -126 398.5 -131.5 c 128,-1,11
 414 -137 414 -137 436 -137 c 0,12,13
 497 -137 497 -137 497 -63 c 2,14,-1
 497 296 l 2,15,16
 497 334 497 334 480 352.5 c 128,-1,17
 463 371 463 371 432 371 c 0,18,19
 389 371 389 371 351 337 c 1,20,-1
 351 0 l 1,21,-1
 257 0 l 1,22,-1
 257 607 l 1,23,-1
 121 607 l 1,24,-1
 121 0 l 1,25,-1
 27 0 l 1,26,-1
 27 689 l 1,27,-1
 351 689 l 1,28,-1
 351 413 l 1,29,30
 393 453 393 453 451 453 c 0,31,0
 516 453 516 453 553.5 410.5 c 128,-1,1
EndSplineSet
EndChar

StartChar: uni0524
Encoding: 1316 1316 356
Width: 600
GlyphClass: 2
Flags: W
AnchorPoint: "Anchor-3" 300 689 basechar 0
AnchorPoint: "Anchor-2" 300 0 basechar 0
LayerCount: 2
Fore
SplineSet
522 81 m 1,0,-1
 581 81 l 1,1,-1
 581 -151 l 1,2,-1
 503 -151 l 1,3,-1
 488 0 l 1,4,-1
 423 0 l 1,5,-1
 423 606 l 1,6,-1
 177 606 l 1,7,-1
 177 0 l 1,8,-1
 78 0 l 1,9,-1
 78 689 l 1,10,-1
 522 689 l 1,11,-1
 522 81 l 1,0,-1
EndSplineSet
EndChar

StartChar: uni04A8
Encoding: 1192 1192 357
Width: 600
GlyphClass: 2
Flags: W
AnchorPoint: "Anchor-3" 300 689 basechar 0
AnchorPoint: "Anchor-2" 300 -203 basechar 0
LayerCount: 2
Fore
SplineSet
548.5 126.5 m 128,-1,1
 515 62 515 62 454 26 c 1,2,-1
 485 -15 l 2,3,4
 494 -27 494 -27 506.5 -43 c 128,-1,5
 519 -59 519 -59 533 -78 c 1,6,-1
 472 -124 l 1,7,-1
 380 -5 l 1,8,9
 343 -12 343 -12 313 -12 c 0,10,11
 229 -12 229 -12 166 29.5 c 128,-1,12
 103 71 103 71 68 151 c 128,-1,13
 33 231 33 231 33 345 c 0,14,15
 33 457 33 457 70 538 c 128,-1,16
 107 619 107 619 169 660.5 c 128,-1,17
 231 702 231 702 305 702 c 0,18,19
 365 702 365 702 407 685.5 c 128,-1,20
 449 669 449 669 493 633 c 1,21,-1
 443 570 l 1,22,23
 410 596 410 596 377.5 608.5 c 128,-1,24
 345 621 345 621 308 621 c 0,25,26
 235 621 235 621 187 555 c 128,-1,27
 139 489 139 489 139 345 c 0,28,29
 139 203 139 203 186 136.5 c 128,-1,30
 233 70 233 70 315 70 c 2,31,-1
 327 70 l 1,32,33
 295 120 295 120 278 165.5 c 128,-1,34
 261 211 261 211 261 257 c 0,35,36
 261 307 261 307 281 346.5 c 128,-1,37
 301 386 301 386 337.5 408.5 c 128,-1,38
 374 431 374 431 421 431 c 0,39,40
 496 431 496 431 539 385 c 128,-1,41
 582 339 582 339 582 262 c 0,42,0
 582 191 582 191 548.5 126.5 c 128,-1,1
365 173.5 m 128,-1,44
 379 134 379 134 407 91 c 1,45,46
 447 113 447 113 467 156.5 c 128,-1,47
 487 200 487 200 487 263 c 0,48,49
 487 357 487 357 421 357 c 0,50,51
 386 357 386 357 368.5 331 c 128,-1,52
 351 305 351 305 351 258 c 0,53,43
 351 213 351 213 365 173.5 c 128,-1,44
EndSplineSet
EndChar

StartChar: uni04AA
Encoding: 1194 1194 358
Width: 600
GlyphClass: 2
Flags: W
AnchorPoint: "Anchor-3" 365 689 basechar 0
AnchorPoint: "Anchor-2" 350 0 basechar 0
LayerCount: 2
Fore
SplineSet
471 -129 m 0,1,2
 471 -180 471 -180 436 -211 c 128,-1,3
 401 -242 401 -242 341 -242 c 0,4,5
 285 -242 285 -242 243 -217 c 1,6,-1
 266 -162 l 1,7,8
 285 -170 285 -170 299 -174.5 c 128,-1,9
 313 -179 313 -179 335 -179 c 0,10,11
 363 -179 363 -179 377.5 -164 c 128,-1,12
 392 -149 392 -149 392 -124 c 0,13,14
 392 -93 392 -93 373 -63.5 c 128,-1,15
 354 -34 354 -34 316 -9 c 1,16,17
 241 1 241 1 182.5 45.5 c 128,-1,18
 124 90 124 90 91 166 c 128,-1,19
 58 242 58 242 58 345 c 0,20,21
 58 457 58 457 98 538 c 128,-1,22
 138 619 138 619 206.5 660.5 c 128,-1,23
 275 702 275 702 358 702 c 0,24,25
 424 702 424 702 470.5 685 c 128,-1,26
 517 668 517 668 561 633 c 1,27,-1
 508 570 l 1,28,29
 447 621 447 621 364 621 c 0,30,31
 274 621 274 621 218 555 c 128,-1,32
 162 489 162 489 162 345 c 0,33,34
 162 203 162 203 216.5 137 c 128,-1,35
 271 71 271 71 363 71 c 0,36,37
 415 71 415 71 451 86.5 c 128,-1,38
 487 102 487 102 522 129 c 1,39,-1
 571 66 l 1,40,41
 505 0 505 0 395 -11 c 1,42,0
 471 -58 471 -58 471 -129 c 0,1,2
EndSplineSet
EndChar

StartChar: uni04AC
Encoding: 1196 1196 359
Width: 600
GlyphClass: 2
Flags: W
AnchorPoint: "Anchor-3" 299 689 basechar 0
AnchorPoint: "Anchor-2" 299 0 basechar 0
LayerCount: 2
Fore
SplineSet
553 606 m 1,0,-1
 348 606 l 1,1,-1
 348 81 l 1,2,-1
 407 81 l 1,3,-1
 407 -151 l 1,4,-1
 329 -151 l 1,5,-1
 314 0 l 1,6,-1
 249 0 l 1,7,-1
 249 606 l 1,8,-1
 37 606 l 1,9,-1
 37 689 l 1,10,-1
 563 689 l 1,11,-1
 553 606 l 1,0,-1
EndSplineSet
EndChar

StartChar: uni04B0
Encoding: 1200 1200 361
Width: 600
GlyphClass: 2
Flags: W
AnchorPoint: "Anchor-3" 303 689 basechar 0
AnchorPoint: "Anchor-2" 300 0 basechar 0
LayerCount: 2
Fore
SplineSet
582 689 m 1,0,-1
 377 315 l 1,1,-1
 476 315 l 1,2,-1
 476 243 l 1,3,-1
 350 243 l 1,4,-1
 350 0 l 1,5,-1
 250 0 l 1,6,-1
 250 243 l 1,7,-1
 124 243 l 1,8,-1
 124 315 l 1,9,-1
 222 315 l 1,10,-1
 18 689 l 1,11,-1
 128 689 l 1,12,-1
 302 352 l 1,13,-1
 478 689 l 1,14,-1
 582 689 l 1,0,-1
EndSplineSet
EndChar

StartChar: uni04B2
Encoding: 1202 1202 362
Width: 600
GlyphClass: 2
Flags: W
AnchorPoint: "Anchor-3" 300 689 basechar 0
AnchorPoint: "Anchor-2" 300 0 basechar 0
LayerCount: 2
Fore
SplineSet
527 81 m 1,0,-1
 578 81 l 1,1,-1
 578 -151 l 1,2,-1
 500 -151 l 1,3,-1
 485 0 l 1,4,-1
 461 0 l 1,5,-1
 298 303 l 1,6,-1
 133 0 l 1,7,-1
 27 0 l 1,8,-1
 239 367 l 1,9,-1
 44 689 l 1,10,-1
 157 689 l 1,11,-1
 300 432 l 1,12,-1
 445 689 l 1,13,-1
 551 689 l 1,14,-1
 357 372 l 1,15,-1
 527 81 l 1,0,-1
EndSplineSet
EndChar

StartChar: uni04B4
Encoding: 1204 1204 363
Width: 600
GlyphClass: 2
Flags: W
AnchorPoint: "Anchor-3" 300 689 basechar 0
AnchorPoint: "Anchor-2" 300 -203 basechar 0
LayerCount: 2
Fore
SplineSet
514 81 m 1,0,-1
 564 81 l 1,1,-1
 564 -151 l 1,2,-1
 487 -151 l 1,3,-1
 472 0 l 1,4,-1
 122 0 l 1,5,-1
 122 612 l 1,6,-1
 0 612 l 1,7,-1
 0 689 l 1,8,-1
 343 689 l 1,9,-1
 333 612 l 1,10,-1
 220 612 l 1,11,-1
 220 81 l 1,12,-1
 416 81 l 1,13,-1
 416 689 l 1,14,-1
 514 689 l 1,15,-1
 514 81 l 1,0,-1
EndSplineSet
EndChar

StartChar: uni04B6
Encoding: 1206 1206 364
Width: 600
GlyphClass: 2
Flags: W
AnchorPoint: "Anchor-3" 289 689 basechar 0
AnchorPoint: "Anchor-2" 300 0 basechar 0
LayerCount: 2
Fore
SplineSet
581 81 m 1,0,-1
 581 -151 l 1,1,-1
 503 -151 l 1,2,-1
 488 0 l 1,3,-1
 423 0 l 1,4,-1
 423 276 l 1,5,6
 380 244 380 244 340.5 230 c 128,-1,7
 301 216 301 216 249 216 c 0,8,9
 157 216 157 216 102 272.5 c 128,-1,10
 47 329 47 329 47 425 c 2,11,-1
 47 689 l 1,12,-1
 146 689 l 1,13,-1
 146 431 l 2,14,15
 146 299 146 299 275 299 c 0,16,17
 362 299 362 299 423 356 c 1,18,-1
 423 689 l 1,19,-1
 522 689 l 1,20,-1
 522 81 l 1,21,-1
 581 81 l 1,0,-1
EndSplineSet
EndChar

StartChar: uni04B8
Encoding: 1208 1208 365
Width: 600
GlyphClass: 2
Flags: W
AnchorPoint: "Anchor-3" 289 689 basechar 0
AnchorPoint: "Anchor-2" 300 0 basechar 0
LayerCount: 2
Fore
SplineSet
522 689 m 1,0,-1
 522 0 l 1,1,-1
 423 0 l 1,2,-1
 423 276 l 1,3,4
 370 236 370 236 319 224 c 1,5,-1
 319 120 l 1,6,-1
 260 120 l 1,7,-1
 260 216 l 1,8,-1
 249 216 l 2,9,10
 157 216 157 216 102 272.5 c 128,-1,11
 47 329 47 329 47 425 c 2,12,-1
 47 689 l 1,13,-1
 146 689 l 1,14,-1
 146 431 l 2,15,16
 146 307 146 307 260 299 c 1,17,-1
 260 541 l 1,18,-1
 319 541 l 1,19,-1
 319 303 l 1,20,21
 379 314 379 314 423 356 c 1,22,-1
 423 689 l 1,23,-1
 522 689 l 1,0,-1
EndSplineSet
EndChar

StartChar: uni04BA
Encoding: 1210 1210 366
Width: 600
GlyphClass: 2
Flags: W
AnchorPoint: "Anchor-3" 300 689 basechar 0
AnchorPoint: "Anchor-2" 300 0 basechar 0
LayerCount: 2
Fore
SplineSet
499.5 395 m 128,-1,1
 552 337 552 337 552 235 c 2,2,-1
 552 0 l 1,3,-1
 453 0 l 1,4,-1
 453 234 l 2,5,6
 453 370 453 370 334 370 c 0,7,8
 284 370 284 370 247 351.5 c 128,-1,9
 210 333 210 333 177 296 c 1,10,-1
 177 0 l 1,11,-1
 78 0 l 1,12,-1
 78 689 l 1,13,-1
 177 689 l 1,14,-1
 177 382 l 1,15,16
 248 453 248 453 354 453 c 0,17,0
 447 453 447 453 499.5 395 c 128,-1,1
EndSplineSet
EndChar

StartChar: uni0526
Encoding: 1318 1318 367
Width: 600
Flags: W
LayerCount: 2
Fore
SplineSet
601 81 m 1,0,-1
 601 -151 l 1,1,-1
 523 -151 l 1,2,-1
 508 0 l 1,3,-1
 445 0 l 1,4,-1
 445 234 l 2,5,6
 445 370 445 370 319 370 c 0,7,8
 274 370 274 370 240 351.5 c 128,-1,9
 206 333 206 333 177 297 c 1,10,-1
 177 0 l 1,11,-1
 78 0 l 1,12,-1
 78 689 l 1,13,-1
 177 689 l 1,14,-1
 177 385 l 1,15,16
 240 453 240 453 343 453 c 0,17,18
 438 453 438 453 491 395.5 c 128,-1,19
 544 338 544 338 544 235 c 2,20,-1
 544 81 l 1,21,-1
 601 81 l 1,0,-1
EndSplineSet
EndChar

StartChar: uni04BC
Encoding: 1212 1212 368
Width: 600
GlyphClass: 2
Flags: W
AnchorPoint: "Anchor-3" 300 689 basechar 0
AnchorPoint: "Anchor-2" 300 0 basechar 0
LayerCount: 2
Fore
SplineSet
565 305 m 1,1,-1
 230 305 l 1,2,3
 232 181 232 181 271 123 c 128,-1,4
 310 65 310 65 372 65 c 0,5,6
 411 65 411 65 437 76.5 c 128,-1,7
 463 88 463 88 496 110 c 1,8,-1
 540 53 l 1,9,10
 465 -12 465 -12 371 -12 c 0,11,12
 265 -12 265 -12 202 69 c 128,-1,13
 139 150 139 150 134 305 c 1,14,15
 70 306 70 306 35 340 c 128,-1,16
 0 374 0 374 0 425 c 0,17,18
 0 455 0 455 10 480 c 128,-1,19
 20 505 20 505 37 529 c 1,20,-1
 99 501 l 1,21,22
 89 480 89 480 84 464.5 c 128,-1,23
 79 449 79 449 79 432 c 0,24,25
 79 381 79 381 130 381 c 2,26,-1
 134 381 l 1,27,28
 139 481 139 481 168.5 553.5 c 128,-1,29
 198 626 198 626 247.5 664 c 128,-1,30
 297 702 297 702 361 702 c 0,31,32
 459 702 459 702 513.5 613.5 c 128,-1,33
 568 525 568 525 568 357 c 0,34,0
 568 332 568 332 565 305 c 1,1,-1
477 381 m 1,35,36
 473 510 473 510 443.5 567.5 c 128,-1,37
 414 625 414 625 360 625 c 0,38,39
 243 625 243 625 230 381 c 1,40,-1
 477 381 l 1,35,36
EndSplineSet
EndChar

StartChar: uni04BE
Encoding: 1214 1214 369
Width: 600
GlyphClass: 2
Flags: W
AnchorPoint: "Anchor-3" 300 689 basechar 0
AnchorPoint: "Anchor-2" 300 0 basechar 0
LayerCount: 2
Fore
SplineSet
565 305 m 1,1,-1
 230 305 l 1,2,3
 232 181 232 181 271 123 c 128,-1,4
 310 65 310 65 372 65 c 0,5,6
 411 65 411 65 437 76.5 c 128,-1,7
 463 88 463 88 496 110 c 1,8,-1
 540 53 l 1,9,10
 497 16 497 16 449 0 c 0,11,12
 378 -30 378 -30 352 -56.5 c 128,-1,13
 326 -83 326 -83 326 -114 c 0,14,15
 326 -162 326 -162 382 -162 c 0,16,17
 409 -162 409 -162 443 -155 c 1,18,-1
 434 -226 l 1,19,20
 399 -233 399 -233 371 -233 c 0,21,22
 313 -233 313 -233 278.5 -204.5 c 128,-1,23
 244 -176 244 -176 244 -131 c 0,24,25
 244 -93 244 -93 265 -63 c 128,-1,26
 286 -33 286 -33 328 -8 c 1,27,28
 240 7 240 7 189.5 86.5 c 128,-1,29
 139 166 139 166 134 305 c 1,30,31
 70 306 70 306 35 340 c 128,-1,32
 0 374 0 374 0 425 c 0,33,34
 0 455 0 455 10 480 c 128,-1,35
 20 505 20 505 37 529 c 1,36,-1
 99 501 l 1,37,38
 89 480 89 480 84 464.5 c 128,-1,39
 79 449 79 449 79 432 c 0,40,41
 79 381 79 381 130 381 c 2,42,-1
 134 381 l 1,43,44
 139 481 139 481 168.5 553.5 c 128,-1,45
 198 626 198 626 247.5 664 c 128,-1,46
 297 702 297 702 361 702 c 0,47,48
 459 702 459 702 513.5 613.5 c 128,-1,49
 568 525 568 525 568 357 c 0,50,0
 568 332 568 332 565 305 c 1,1,-1
477 381 m 1,51,52
 473 510 473 510 443.5 567.5 c 128,-1,53
 414 625 414 625 360 625 c 0,54,55
 243 625 243 625 230 381 c 1,56,-1
 477 381 l 1,51,52
EndSplineSet
EndChar

StartChar: uni04C3
Encoding: 1219 1219 372
Width: 600
GlyphClass: 2
Flags: W
AnchorPoint: "Anchor-3" 300 689 basechar 0
AnchorPoint: "Anchor-2" 300 -203 basechar 0
LayerCount: 2
Fore
SplineSet
495 323 m 128,-1,1
 538 269 538 269 538 176 c 2,2,-1
 538 -55 l 2,3,4
 538 -133 538 -133 497 -173.5 c 128,-1,5
 456 -214 456 -214 384 -214 c 0,6,7
 317 -214 317 -214 268 -175 c 1,8,-1
 305 -113 l 1,9,10
 325 -125 325 -125 340.5 -130 c 128,-1,11
 356 -135 356 -135 378 -135 c 0,12,13
 439 -135 439 -135 439 -62 c 2,14,-1
 439 175 l 2,15,16
 439 243 439 243 409 276 c 128,-1,17
 379 309 379 309 316 309 c 2,18,-1
 177 309 l 1,19,-1
 177 0 l 1,20,-1
 78 0 l 1,21,-1
 78 689 l 1,22,-1
 177 689 l 1,23,-1
 177 389 l 1,24,-1
 271 389 l 1,25,-1
 439 689 l 1,26,-1
 543 689 l 1,27,-1
 364 387 l 1,28,0
 452 377 452 377 495 323 c 128,-1,1
EndSplineSet
EndChar

StartChar: uni04C5
Encoding: 1221 1221 373
Width: 600
Flags: W
LayerCount: 2
Fore
SplineSet
586 82 m 1,0,-1
 504 -151 l 1,1,-1
 426 -151 l 1,2,-1
 461 0 l 1,3,-1
 396 0 l 1,4,-1
 396 607 l 1,5,-1
 254 607 l 1,6,-1
 231 418 l 2,7,8
 213 260 213 260 191.5 179.5 c 128,-1,9
 170 99 170 99 141 61 c 128,-1,10
 112 23 112 23 57 -12 c 1,11,-1
 14 59 l 1,12,13
 44 83 44 83 62 110 c 128,-1,14
 80 137 80 137 97.5 204 c 128,-1,15
 115 271 115 271 131 400 c 2,16,-1
 167 689 l 1,17,-1
 496 689 l 1,18,-1
 496 82 l 1,19,-1
 586 82 l 1,0,-1
EndSplineSet
EndChar

StartChar: uni04C7
Encoding: 1223 1223 374
Width: 600
GlyphClass: 2
Flags: W
AnchorPoint: "Anchor-3" 300 689 basechar 0
AnchorPoint: "Anchor-2" 300 0 basechar 0
LayerCount: 2
Fore
SplineSet
522 689 m 1,0,-1
 522 -55 l 2,1,2
 522 -133 522 -133 481 -173.5 c 128,-1,3
 440 -214 440 -214 368 -214 c 0,4,5
 301 -214 301 -214 252 -175 c 1,6,-1
 289 -113 l 1,7,8
 309 -125 309 -125 324.5 -130 c 128,-1,9
 340 -135 340 -135 362 -135 c 0,10,11
 423 -135 423 -135 423 -62 c 2,12,-1
 423 321 l 1,13,-1
 177 321 l 1,14,-1
 177 0 l 1,15,-1
 78 0 l 1,16,-1
 78 689 l 1,17,-1
 177 689 l 1,18,-1
 177 403 l 1,19,-1
 423 403 l 1,20,-1
 423 689 l 1,21,-1
 522 689 l 1,0,-1
EndSplineSet
EndChar

StartChar: uni04C9
Encoding: 1225 1225 375
Width: 600
Flags: W
LayerCount: 2
Fore
SplineSet
490 82 m 1,0,-1
 581 82 l 1,1,-1
 499 -151 l 1,2,-1
 421 -151 l 1,3,-1
 456 0 l 1,4,-1
 391 0 l 1,5,-1
 391 321 l 1,6,-1
 167 321 l 1,7,-1
 167 0 l 1,8,-1
 67 0 l 1,9,-1
 67 689 l 1,10,-1
 167 689 l 1,11,-1
 167 403 l 1,12,-1
 391 403 l 1,13,-1
 391 689 l 1,14,-1
 490 689 l 1,15,-1
 490 82 l 1,0,-1
EndSplineSet
EndChar

StartChar: uni04CB
Encoding: 1227 1227 376
Width: 600
GlyphClass: 2
Flags: W
AnchorPoint: "Anchor-3" 289 689 basechar 0
AnchorPoint: "Anchor-2" 300 0 basechar 0
LayerCount: 2
Fore
SplineSet
522 689 m 1,0,-1
 522 0 l 1,1,-1
 423 0 l 1,2,-1
 423 276 l 1,3,4
 380 244 380 244 340.5 230 c 128,-1,5
 301 216 301 216 249 216 c 0,6,7
 157 216 157 216 102 272.5 c 128,-1,8
 47 329 47 329 47 425 c 2,9,-1
 47 689 l 1,10,-1
 146 689 l 1,11,-1
 146 431 l 2,12,13
 146 299 146 299 275 299 c 0,14,15
 362 299 362 299 423 356 c 1,16,-1
 423 689 l 1,17,-1
 522 689 l 1,0,-1
244 81 m 1,18,-1
 349 81 l 1,19,-1
 361 0 l 1,20,-1
 337 0 l 1,21,-1
 322 -151 l 1,22,-1
 244 -151 l 1,23,-1
 244 81 l 1,18,-1
EndSplineSet
EndChar

StartChar: uni04CD
Encoding: 1229 1229 377
Width: 600
Flags: W
LayerCount: 2
Fore
SplineSet
608 82 m 1,0,-1
 527 -151 l 1,1,-1
 450 -151 l 1,2,-1
 485 0 l 1,3,-1
 439 0 l 1,4,-1
 419 350 l 2,5,6
 415 437 415 437 415 536 c 2,7,-1
 416 596 l 1,8,-1
 322 123 l 1,9,-1
 229 123 l 1,10,-1
 128 596 l 2,11,12
 129 575 129 575 129 491 c 0,13,14
 129 395 129 395 127 349 c 2,15,-1
 110 0 l 1,16,-1
 19 0 l 1,17,-1
 58 689 l 1,18,-1
 187 689 l 1,19,-1
 278 222 l 1,20,-1
 363 689 l 1,21,-1
 493 689 l 1,22,-1
 527 82 l 1,23,-1
 608 82 l 1,0,-1
EndSplineSet
EndChar

StartChar: uni04D8
Encoding: 1240 1240 382
Width: 600
GlyphClass: 2
Flags: W
AnchorPoint: "Anchor-3" 293 689 basechar 0
AnchorPoint: "Anchor-2" 300 0 basechar 0
LayerCount: 2
Fore
SplineSet
44 384 m 1,1,-1
 454 384 l 1,2,3
 450 510 450 510 408 567 c 128,-1,4
 366 624 366 624 288 624 c 0,5,6
 242 624 242 624 207 609.5 c 128,-1,7
 172 595 172 595 133 566 c 1,8,-1
 83 623 l 1,9,10
 127 661 127 661 178 681.5 c 128,-1,11
 229 702 229 702 293 702 c 0,12,13
 421 702 421 702 488 613.5 c 128,-1,14
 555 525 555 525 555 353 c 0,15,16
 555 239 555 239 524 156.5 c 128,-1,17
 493 74 493 74 435 31 c 128,-1,18
 377 -12 377 -12 297 -12 c 0,19,20
 175 -12 175 -12 108 76 c 128,-1,21
 41 164 41 164 41 332 c 0,22,0
 41 357 41 357 44 384 c 1,1,-1
454 306 m 1,24,-1
 136 306 l 1,25,26
 141 178 141 178 180.5 122 c 128,-1,27
 220 66 220 66 298 66 c 0,28,23
 443 66 443 66 454 306 c 1,24,-1
EndSplineSet
EndChar

StartChar: uni04E0
Encoding: 1248 1248 386
Width: 600
Flags: W
LayerCount: 2
Fore
SplineSet
478.5 349 m 128,-1,1
 535 298 535 298 535 206 c 0,2,3
 535 142 535 142 504 92.5 c 128,-1,4
 473 43 473 43 415.5 15.5 c 128,-1,5
 358 -12 358 -12 282 -12 c 0,6,7
 209 -12 209 -12 159.5 7 c 128,-1,8
 110 26 110 26 65 64 c 1,9,-1
 115 124 l 1,10,11
 157 95 157 95 193 81.5 c 128,-1,12
 229 68 229 68 282 68 c 0,13,14
 354 68 354 68 392.5 104.5 c 128,-1,15
 431 141 431 141 431 207 c 0,16,17
 431 327 431 327 292 327 c 2,18,-1
 175 327 l 1,19,-1
 175 395 l 1,20,-1
 391 609 l 1,21,-1
 94 609 l 1,22,-1
 94 689 l 1,23,-1
 504 689 l 1,24,-1
 504 610 l 1,25,-1
 288 400 l 1,26,-1
 304 400 l 2,27,0
 422 400 422 400 478.5 349 c 128,-1,1
EndSplineSet
EndChar

StartChar: uni04E8
Encoding: 1256 1256 390
Width: 600
GlyphClass: 2
Flags: W
AnchorPoint: "Anchor-3" 300 689 basechar 0
AnchorPoint: "Anchor-2" 300 0 basechar 0
LayerCount: 2
Fore
SplineSet
490.5 85 m 128,-1,1
 424 -12 424 -12 300 -12 c 0,2,3
 175 -12 175 -12 109 83.5 c 128,-1,4
 43 179 43 179 43 343 c 0,5,6
 43 506 43 506 109.5 604 c 128,-1,7
 176 702 176 702 300 702 c 0,8,9
 425 702 425 702 491 605.5 c 128,-1,10
 557 509 557 509 557 344 c 0,11,0
 557 182 557 182 490.5 85 c 128,-1,1
189 562.5 m 128,-1,13
 152 504 152 504 147 387 c 1,14,-1
 452 387 l 1,15,16
 447 504 447 504 410.5 562.5 c 128,-1,17
 374 621 374 621 300 621 c 256,18,12
 226 621 226 621 189 562.5 c 128,-1,13
413.5 129.5 m 128,-1,20
 450 191 450 191 453 315 c 1,21,-1
 146 315 l 1,22,23
 149 192 149 192 186.5 130 c 128,-1,24
 224 68 224 68 300 68 c 0,25,19
 377 68 377 68 413.5 129.5 c 128,-1,20
EndSplineSet
EndChar

StartChar: uni04F6
Encoding: 1270 1270 397
Width: 600
GlyphClass: 2
Flags: W
AnchorPoint: "Anchor-3" 346 689 basechar 0
AnchorPoint: "Anchor-2" 179 0 basechar 0
LayerCount: 2
Fore
SplineSet
536 604 m 1,0,-1
 228 604 l 1,1,-1
 228 81 l 1,2,-1
 288 81 l 1,3,-1
 288 -151 l 1,4,-1
 210 -151 l 1,5,-1
 195 0 l 1,6,-1
 129 0 l 1,7,-1
 129 689 l 1,8,-1
 547 689 l 1,9,-1
 536 604 l 1,0,-1
EndSplineSet
EndChar

StartChar: uni04FA
Encoding: 1274 1274 399
Width: 600
GlyphClass: 2
Flags: W
AnchorPoint: "Anchor-3" 390 689 basechar 0
AnchorPoint: "Anchor-2" 223 0 basechar 0
LayerCount: 2
Fore
SplineSet
272 604 m 1,0,-1
 272 433 l 1,1,-1
 427 433 l 1,2,-1
 427 361 l 1,3,-1
 272 361 l 1,4,-1
 272 81 l 1,5,-1
 333 81 l 1,6,-1
 333 -55 l 2,7,8
 333 -133 333 -133 292 -173.5 c 128,-1,9
 251 -214 251 -214 179 -214 c 0,10,11
 112 -214 112 -214 63 -175 c 1,12,-1
 100 -113 l 1,13,14
 120 -125 120 -125 135.5 -130 c 128,-1,15
 151 -135 151 -135 173 -135 c 0,16,17
 234 -135 234 -135 234 -62 c 2,18,-1
 234 0 l 1,19,-1
 173 0 l 1,20,-1
 173 361 l 1,21,-1
 75 361 l 1,22,-1
 75 433 l 1,23,-1
 173 433 l 1,24,-1
 173 689 l 1,25,-1
 591 689 l 1,26,-1
 580 604 l 1,27,-1
 272 604 l 1,0,-1
EndSplineSet
EndChar

StartChar: uni04FC
Encoding: 1276 1276 400
Width: 600
GlyphClass: 2
Flags: W
AnchorPoint: "Anchor-3" 286 689 basechar 0
AnchorPoint: "Anchor-2" 286 0 basechar 0
LayerCount: 2
Fore
SplineSet
582 81 m 1,0,-1
 582 -55 l 2,1,2
 582 -133 582 -133 541 -173.5 c 128,-1,3
 500 -214 500 -214 428 -214 c 0,4,5
 361 -214 361 -214 312 -175 c 1,6,-1
 349 -113 l 1,7,8
 369 -125 369 -125 384.5 -130 c 128,-1,9
 400 -135 400 -135 422 -135 c 0,10,11
 483 -135 483 -135 483 -62 c 2,12,-1
 483 0 l 1,13,-1
 447 0 l 1,14,-1
 284 303 l 1,15,-1
 119 0 l 1,16,-1
 13 0 l 1,17,-1
 225 367 l 1,18,-1
 30 689 l 1,19,-1
 143 689 l 1,20,-1
 286 432 l 1,21,-1
 431 689 l 1,22,-1
 537 689 l 1,23,-1
 343 372 l 1,24,-1
 513 81 l 1,25,-1
 582 81 l 1,0,-1
EndSplineSet
EndChar

StartChar: uni04FE
Encoding: 1278 1278 401
Width: 600
GlyphClass: 2
Flags: W
AnchorPoint: "Anchor-3" 300 689 basechar 0
AnchorPoint: "Anchor-2" 300 0 basechar 0
LayerCount: 2
Fore
SplineSet
380 332 m 1,0,-1
 574 0 l 1,1,-1
 461 0 l 1,2,-1
 298 303 l 1,3,-1
 133 0 l 1,4,-1
 27 0 l 1,5,-1
 219 332 l 1,6,-1
 36 332 l 1,7,-1
 36 404 l 1,8,-1
 217 404 l 1,9,-1
 44 689 l 1,10,-1
 157 689 l 1,11,-1
 300 432 l 1,12,-1
 445 689 l 1,13,-1
 551 689 l 1,14,-1
 377 404 l 1,15,-1
 564 404 l 1,16,-1
 564 332 l 1,17,-1
 380 332 l 1,0,-1
EndSplineSet
EndChar

StartChar: uni0500
Encoding: 1280 1280 402
Width: 600
GlyphClass: 2
Flags: W
AnchorPoint: "Anchor-3" 300 689 basechar 0
AnchorPoint: "Anchor-2" 300 0 basechar 0
LayerCount: 2
Fore
SplineSet
116 54 m 128,-1,1
 45 108 45 108 45 213 c 0,2,3
 45 316 45 316 115.5 374 c 128,-1,4
 186 432 186 432 309 432 c 2,5,-1
 413 432 l 1,6,-1
 413 689 l 1,7,-1
 512 689 l 1,8,-1
 512 0 l 1,9,-1
 303 0 l 2,10,0
 187 0 187 0 116 54 c 128,-1,1
413 79 m 1,11,-1
 413 355 l 1,12,-1
 309 355 l 2,13,14
 150 355 150 355 150 213 c 0,15,16
 150 79 150 79 305 79 c 2,17,-1
 413 79 l 1,11,-1
EndSplineSet
EndChar

StartChar: uni0502
Encoding: 1282 1282 403
Width: 600
GlyphClass: 2
Flags: W
AnchorPoint: "Anchor-3" 300 689 basechar 0
AnchorPoint: "Anchor-2" 300 0 basechar 0
LayerCount: 2
Fore
SplineSet
585 250 m 0,1,2
 585 116 585 116 539.5 51 c 128,-1,3
 494 -14 494 -14 417 -14 c 0,4,5
 375 -14 375 -14 343.5 5.5 c 128,-1,6
 312 25 312 25 294 63 c 1,7,8
 247 -14 247 -14 165 -14 c 0,9,10
 123 -14 123 -14 87.5 9.5 c 128,-1,11
 52 33 52 33 30.5 79.5 c 128,-1,12
 9 126 9 126 9 193 c 0,13,14
 9 305 9 305 66 367 c 128,-1,15
 123 429 123 429 229 429 c 2,16,-1
 274 429 l 1,17,-1
 274 689 l 1,18,-1
 367 689 l 1,19,-1
 367 152 l 2,20,21
 367 108 367 108 380 85 c 128,-1,22
 393 62 393 62 419 62 c 0,23,24
 492 62 492 62 492 248 c 0,25,26
 492 307 492 307 487 377 c 1,27,-1
 580 377 l 1,28,0
 585 312 585 312 585 250 c 0,1,2
233 81 m 128,-1,30
 254 100 254 100 274 142 c 1,31,-1
 274 356 l 1,32,-1
 228 356 l 2,33,34
 168 356 168 356 135 315.5 c 128,-1,35
 102 275 102 275 102 193 c 0,36,37
 102 125 102 125 124 93.5 c 128,-1,38
 146 62 146 62 182 62 c 0,39,29
 212 62 212 62 233 81 c 128,-1,30
EndSplineSet
EndChar

StartChar: uni0504
Encoding: 1284 1284 404
Width: 600
GlyphClass: 2
Flags: W
AnchorPoint: "Anchor-3" 300 689 basechar 0
AnchorPoint: "Anchor-2" 300 0 basechar 0
LayerCount: 2
Fore
SplineSet
576 255 m 0,1,2
 576 119 576 119 527.5 53.5 c 128,-1,3
 479 -12 479 -12 394 -12 c 0,4,5
 329 -12 329 -12 286.5 21 c 128,-1,6
 244 54 244 54 211 125 c 2,7,-1
 133 290 l 1,8,-1
 52 290 l 1,9,-1
 52 366 l 1,10,-1
 124 366 l 2,11,12
 198 366 198 366 235.5 396 c 128,-1,13
 273 426 273 426 273 493 c 0,14,15
 273 556 273 556 235 584.5 c 128,-1,16
 197 613 197 613 113 613 c 2,17,-1
 24 613 l 1,18,-1
 24 689 l 1,19,-1
 114 689 l 2,20,21
 244 689 244 689 311 639.5 c 128,-1,22
 378 590 378 590 378 493 c 0,23,24
 378 421 378 421 341.5 376.5 c 128,-1,25
 305 332 305 332 230 309 c 1,26,-1
 302 150 l 2,27,28
 323 103 323 103 343.5 84 c 128,-1,29
 364 65 364 65 394 65 c 0,30,31
 434 65 434 65 457 108.5 c 128,-1,32
 480 152 480 152 480 255 c 0,33,34
 480 310 480 310 475 380 c 1,35,-1
 571 380 l 1,36,0
 576 315 576 315 576 255 c 0,1,2
EndSplineSet
EndChar

StartChar: uni0506
Encoding: 1286 1286 405
Width: 600
GlyphClass: 2
Flags: W
AnchorPoint: "Anchor-3" 300 689 basechar 0
AnchorPoint: "Anchor-2" 300 -203 basechar 0
LayerCount: 2
Fore
SplineSet
557 81 m 1,0,-1
 557 -151 l 1,1,-1
 479 -151 l 1,2,-1
 464 0 l 1,3,-1
 424 0 l 1,4,-1
 242 290 l 1,5,-1
 99 290 l 1,6,-1
 99 366 l 1,7,-1
 251 366 l 2,8,9
 324 366 324 366 361.5 396 c 128,-1,10
 399 426 399 426 399 493 c 0,11,12
 399 556 399 556 363 584.5 c 128,-1,13
 327 613 327 613 250 613 c 2,14,-1
 70 613 l 1,15,-1
 70 689 l 1,16,-1
 241 689 l 2,17,18
 371 689 371 689 437.5 639.5 c 128,-1,19
 504 590 504 590 504 493 c 0,20,21
 504 420 504 420 459 371.5 c 128,-1,22
 414 323 414 323 341 303 c 1,23,-1
 488 81 l 1,24,-1
 557 81 l 1,0,-1
EndSplineSet
EndChar

StartChar: uni0508
Encoding: 1288 1288 406
Width: 600
GlyphClass: 2
Flags: W
AnchorPoint: "Anchor-3" 300 689 basechar 0
AnchorPoint: "Anchor-2" 300 0 basechar 0
LayerCount: 2
Fore
SplineSet
589 250 m 0,1,2
 589 117 589 117 543 51.5 c 128,-1,3
 497 -14 497 -14 421 -14 c 0,4,5
 358 -14 358 -14 317.5 30 c 128,-1,6
 277 74 277 74 277 157 c 2,7,-1
 277 611 l 1,8,-1
 189 611 l 1,9,-1
 173 378 l 2,10,11
 163 239 163 239 149 166 c 128,-1,12
 135 93 135 93 114.5 58 c 128,-1,13
 94 23 94 23 55 -12 c 1,14,-1
 3 53 l 1,15,16
 25 75 25 75 37.5 104 c 128,-1,17
 50 133 50 133 60.5 200 c 128,-1,18
 71 267 71 267 81 399 c 2,19,-1
 104 689 l 1,20,-1
 370 689 l 1,21,-1
 370 152 l 2,22,23
 370 108 370 108 383.5 85 c 128,-1,24
 397 62 397 62 423 62 c 0,25,26
 495 62 495 62 495 248 c 0,27,28
 495 307 495 307 490 377 c 1,29,-1
 584 377 l 1,30,0
 589 312 589 312 589 250 c 0,1,2
EndSplineSet
EndChar

StartChar: uni050A
Encoding: 1290 1290 407
Width: 600
GlyphClass: 2
Flags: W
AnchorPoint: "Anchor-3" 300 689 basechar 0
AnchorPoint: "Anchor-2" 300 0 basechar 0
LayerCount: 2
Fore
SplineSet
590 250 m 0,1,2
 590 116 590 116 544.5 51 c 128,-1,3
 499 -14 499 -14 422 -14 c 0,4,5
 359 -14 359 -14 318.5 30 c 128,-1,6
 278 74 278 74 278 157 c 2,7,-1
 278 321 l 1,8,-1
 140 321 l 1,9,-1
 140 0 l 1,10,-1
 46 0 l 1,11,-1
 46 689 l 1,12,-1
 140 689 l 1,13,-1
 140 400 l 1,14,-1
 278 400 l 1,15,-1
 278 689 l 1,16,-1
 371 689 l 1,17,-1
 371 152 l 2,18,19
 371 108 371 108 384.5 85 c 128,-1,20
 398 62 398 62 424 62 c 0,21,22
 497 62 497 62 497 248 c 0,23,24
 497 307 497 307 492 377 c 1,25,-1
 585 377 l 1,26,0
 590 312 590 312 590 250 c 0,1,2
EndSplineSet
EndChar

StartChar: uni050E
Encoding: 1294 1294 409
Width: 600
GlyphClass: 2
Flags: W
AnchorPoint: "Anchor-3" 300 689 basechar 0
AnchorPoint: "Anchor-2" 300 0 basechar 0
LayerCount: 2
Fore
SplineSet
570 254 m 0,1,2
 570 165 570 165 539.5 105 c 128,-1,3
 509 45 509 45 461 16.5 c 128,-1,4
 413 -12 413 -12 358 -12 c 0,5,6
 285 -12 285 -12 237.5 36.5 c 128,-1,7
 190 85 190 85 190 174 c 2,8,-1
 190 606 l 1,9,-1
 15 606 l 1,10,-1
 15 689 l 1,11,-1
 488 689 l 1,12,-1
 478 606 l 1,13,-1
 289 606 l 1,14,-1
 289 179 l 2,15,16
 289 64 289 64 362 64 c 0,17,18
 411 64 411 64 442 108 c 128,-1,19
 473 152 473 152 473 254 c 0,20,21
 473 309 473 309 468 379 c 1,22,-1
 565 379 l 1,23,0
 570 314 570 314 570 254 c 0,1,2
EndSplineSet
EndChar

StartChar: uni0510
Encoding: 1296 1296 410
Width: 600
Flags: W
LayerCount: 2
Fore
SplineSet
445.5 680.5 m 128,-1,1
 503 659 503 659 555 615 c 1,2,-1
 502 559 l 1,3,4
 461 591 461 591 419 607 c 128,-1,5
 377 623 377 623 324 623 c 0,6,7
 259 623 259 623 219.5 595.5 c 128,-1,8
 180 568 180 568 180 517 c 0,9,10
 180 464 180 464 220 436.5 c 128,-1,11
 260 409 260 409 323 409 c 2,12,-1
 439 409 l 1,13,-1
 427 329 l 1,14,-1
 317 329 l 2,15,16
 246 329 246 329 203.5 297.5 c 128,-1,17
 161 266 161 266 161 201 c 0,18,19
 161 139 161 139 203.5 103.5 c 128,-1,20
 246 68 246 68 323 68 c 0,21,22
 427 68 427 68 513 140 c 1,23,-1
 570 86 l 1,24,25
 524 39 524 39 459.5 13.5 c 128,-1,26
 395 -12 395 -12 319 -12 c 0,27,28
 239 -12 239 -12 179.5 15 c 128,-1,29
 120 42 120 42 88 90.5 c 128,-1,30
 56 139 56 139 56 200 c 0,31,32
 56 276 56 276 104 321 c 128,-1,33
 152 366 152 366 224 374 c 1,34,35
 160 383 160 383 119.5 420.5 c 128,-1,36
 79 458 79 458 79 517 c 0,37,38
 79 571 79 571 109.5 613 c 128,-1,39
 140 655 140 655 195 678.5 c 128,-1,40
 250 702 250 702 320 702 c 0,41,0
 388 702 388 702 445.5 680.5 c 128,-1,1
EndSplineSet
EndChar

StartChar: uni0512
Encoding: 1298 1298 411
Width: 600
GlyphClass: 2
Flags: W
AnchorPoint: "Anchor-3" 300 689 basechar 0
AnchorPoint: "Anchor-2" 300 0 basechar 0
LayerCount: 2
Fore
SplineSet
522 689 m 1,0,-1
 522 -55 l 2,1,2
 522 -133 522 -133 481 -173.5 c 128,-1,3
 440 -214 440 -214 368 -214 c 0,4,5
 301 -214 301 -214 252 -175 c 1,6,-1
 289 -113 l 1,7,8
 309 -125 309 -125 324.5 -130 c 128,-1,9
 340 -135 340 -135 362 -135 c 0,10,11
 423 -135 423 -135 423 -62 c 2,12,-1
 423 607 l 1,13,-1
 250 607 l 1,14,-1
 227 418 l 2,15,16
 209 260 209 260 187.5 179 c 128,-1,17
 166 98 166 98 137 60.5 c 128,-1,18
 108 23 108 23 53 -12 c 1,19,-1
 11 59 l 1,20,21
 41 83 41 83 58.5 110 c 128,-1,22
 76 137 76 137 93.5 204.5 c 128,-1,23
 111 272 111 272 127 400 c 2,24,-1
 163 689 l 1,25,-1
 522 689 l 1,0,-1
EndSplineSet
EndChar

StartChar: uni0514
Encoding: 1300 1300 412
Width: 600
GlyphClass: 2
Flags: W
AnchorPoint: "Anchor-3" 300 689 basechar 0
AnchorPoint: "Anchor-2" 300 0 basechar 0
LayerCount: 2
Fore
SplineSet
608 0 m 1,0,-1
 513 0 l 1,1,-1
 397 301 l 1,2,-1
 287 0 l 1,3,-1
 196 0 l 1,4,-1
 343 368 l 1,5,-1
 243 608 l 1,6,-1
 187 608 l 1,7,-1
 170 378 l 2,8,9
 160 239 160 239 146 166 c 128,-1,10
 132 93 132 93 111.5 58 c 128,-1,11
 91 23 91 23 52 -12 c 1,12,-1
 1 53 l 1,13,14
 23 75 23 75 35.5 104 c 128,-1,15
 48 133 48 133 58.5 200 c 128,-1,16
 69 267 69 267 79 399 c 2,17,-1
 101 689 l 1,18,-1
 105 686 l 1,19,-1
 102 689 l 1,20,-1
 305 689 l 1,21,-1
 403 432 l 1,22,-1
 500 689 l 1,23,-1
 590 689 l 1,24,-1
 457 369 l 1,25,-1
 608 0 l 1,0,-1
EndSplineSet
EndChar

StartChar: uni0516
Encoding: 1302 1302 413
Width: 600
GlyphClass: 2
Flags: W
AnchorPoint: "Anchor-3" 300 689 basechar 0
AnchorPoint: "Anchor-2" 300 0 basechar 0
LayerCount: 2
Fore
SplineSet
488 0 m 1,0,-1
 335 319 l 1,1,2
 306 287 306 287 266 269.5 c 128,-1,3
 226 252 226 252 179 252 c 2,4,-1
 143 252 l 1,5,-1
 143 0 l 1,6,-1
 49 0 l 1,7,-1
 49 689 l 1,8,-1
 178 689 l 2,9,10
 278 689 278 689 334.5 631 c 128,-1,11
 391 573 391 573 391 475 c 2,12,-1
 391 467 l 1,13,-1
 496 689 l 1,14,-1
 590 689 l 1,15,-1
 421 356 l 1,16,-1
 592 0 l 1,17,-1
 488 0 l 1,0,-1
267.5 363 m 128,-1,19
 302 397 302 397 302 475 c 0,20,21
 302 544 302 544 269.5 578.5 c 128,-1,22
 237 613 237 613 180 613 c 2,23,-1
 143 613 l 1,24,-1
 143 329 l 1,25,-1
 175 329 l 2,26,18
 233 329 233 329 267.5 363 c 128,-1,19
EndSplineSet
EndChar

StartChar: uni0518
Encoding: 1304 1304 414
Width: 600
GlyphClass: 2
Flags: W
AnchorPoint: "Anchor-3" 300 689 basechar 0
AnchorPoint: "Anchor-2" 300 0 basechar 0
LayerCount: 2
Fore
SplineSet
598 77 m 1,0,-1
 598 0 l 1,1,-1
 291 0 l 1,2,-1
 291 273 l 1,3,-1
 227 273 l 1,4,-1
 116 0 l 1,5,-1
 7 0 l 1,6,-1
 137 294 l 1,7,8
 78 321 78 321 48 368.5 c 128,-1,9
 18 416 18 416 18 481 c 0,10,11
 18 577 18 577 83 633 c 128,-1,12
 148 689 148 689 261 689 c 2,13,-1
 590 689 l 1,14,-1
 579 611 l 1,15,-1
 389 611 l 1,16,-1
 389 389 l 1,17,-1
 542 389 l 1,18,-1
 542 311 l 1,19,-1
 389 311 l 1,20,-1
 389 77 l 1,21,-1
 598 77 l 1,0,-1
291 613 m 1,22,-1
 252 613 l 2,23,24
 190 613 190 613 156 579.5 c 128,-1,25
 122 546 122 546 122 481 c 0,26,27
 122 415 122 415 153 382.5 c 128,-1,28
 184 350 184 350 237 350 c 2,29,-1
 291 350 l 1,30,-1
 291 613 l 1,22,-1
EndSplineSet
EndChar

StartChar: uni051E
Encoding: 1310 1310 417
Width: 600
GlyphClass: 2
Flags: W
AnchorPoint: "Anchor-3" 315 689 basechar 0
AnchorPoint: "Anchor-2" 295 0 basechar 0
LayerCount: 2
Fore
SplineSet
343 367 m 1,0,-1
 585 0 l 1,1,-1
 468 0 l 1,2,-1
 259 322 l 1,3,-1
 182 322 l 1,4,-1
 182 0 l 1,5,-1
 83 0 l 1,6,-1
 83 689 l 1,7,-1
 182 689 l 1,8,-1
 182 402 l 1,9,-1
 260 402 l 1,10,-1
 346 524 l 1,11,-1
 230 595 l 1,12,-1
 268 656 l 1,13,-1
 387 582 l 1,14,-1
 462 689 l 1,15,-1
 566 689 l 1,16,-1
 461 537 l 1,17,-1
 567 471 l 1,18,-1
 529 411 l 1,19,-1
 420 478 l 1,20,-1
 343 367 l 1,0,-1
EndSplineSet
EndChar

StartChar: uni0520
Encoding: 1312 1312 418
Width: 600
GlyphClass: 2
Flags: W
AnchorPoint: "Anchor-3" 300 689 basechar 0
AnchorPoint: "Anchor-2" 300 -203 basechar 0
LayerCount: 2
Fore
SplineSet
548 412 m 128,-1,1
 583 371 583 371 583 306 c 2,2,-1
 583 -56 l 2,3,4
 583 -132 583 -132 541.5 -173 c 128,-1,5
 500 -214 500 -214 434 -214 c 0,6,7
 369 -214 369 -214 318 -175 c 1,8,-1
 355 -114 l 1,9,10
 375 -126 375 -126 390.5 -131.5 c 128,-1,11
 406 -137 406 -137 428 -137 c 0,12,13
 489 -137 489 -137 489 -64 c 2,14,-1
 489 296 l 2,15,16
 489 371 489 371 432 371 c 0,17,18
 412 371 412 371 394.5 363 c 128,-1,19
 377 355 377 355 358 338 c 1,20,-1
 358 0 l 1,21,-1
 265 0 l 1,22,-1
 265 611 l 1,23,-1
 177 611 l 1,24,-1
 161 378 l 2,25,26
 151 239 151 239 137 166 c 128,-1,27
 123 93 123 93 102.5 58 c 128,-1,28
 82 23 82 23 43 -12 c 1,29,-1
 -9 53 l 1,30,31
 13 75 13 75 25.5 104 c 128,-1,32
 38 133 38 133 48.5 200 c 128,-1,33
 59 267 59 267 69 399 c 2,34,-1
 92 689 l 1,35,-1
 358 689 l 1,36,-1
 358 413 l 1,37,38
 398 453 398 453 452 453 c 0,39,0
 513 453 513 453 548 412 c 128,-1,1
EndSplineSet
EndChar

StartChar: uni0522
Encoding: 1314 1314 419
Width: 600
GlyphClass: 2
Flags: W
AnchorPoint: "Anchor-3" 300 689 basechar 0
AnchorPoint: "Anchor-2" 300 -203 basechar 0
LayerCount: 2
Fore
SplineSet
553.5 410.5 m 128,-1,1
 591 368 591 368 591 297 c 2,2,-1
 591 -56 l 2,3,4
 591 -132 591 -132 550 -173 c 128,-1,5
 509 -214 509 -214 442 -214 c 256,6,7
 375 -214 375 -214 326 -175 c 1,8,-1
 363 -114 l 1,9,10
 383 -126 383 -126 398.5 -131.5 c 128,-1,11
 414 -137 414 -137 436 -137 c 0,12,13
 497 -137 497 -137 497 -63 c 2,14,-1
 497 296 l 2,15,16
 497 334 497 334 480 352.5 c 128,-1,17
 463 371 463 371 432 371 c 0,18,19
 389 371 389 371 351 337 c 1,20,-1
 351 0 l 1,21,-1
 258 0 l 1,22,-1
 258 321 l 1,23,-1
 119 321 l 1,24,-1
 119 0 l 1,25,-1
 26 0 l 1,26,-1
 26 689 l 1,27,-1
 119 689 l 1,28,-1
 119 400 l 1,29,-1
 258 400 l 1,30,-1
 258 689 l 1,31,-1
 351 689 l 1,32,-1
 351 413 l 1,33,34
 393 453 393 453 451 453 c 0,35,0
 516 453 516 453 553.5 410.5 c 128,-1,1
EndSplineSet
EndChar

StartChar: uni048C
Encoding: 1164 1164 420
Width: 600
GlyphClass: 2
Flags: W
AnchorPoint: "Anchor-3" 300 689 basechar 0
AnchorPoint: "Anchor-2" 300 0 basechar 0
LayerCount: 2
Fore
SplineSet
501.5 378 m 128,-1,1
 570 325 570 325 570 222 c 0,2,3
 570 110 570 110 498 55 c 128,-1,4
 426 0 426 0 304 0 c 2,5,-1
 119 0 l 1,6,-1
 119 529 l 1,7,-1
 30 529 l 1,8,-1
 30 597 l 1,9,-1
 119 597 l 1,10,-1
 119 689 l 1,11,-1
 218 689 l 1,12,-1
 218 597 l 1,13,-1
 347 597 l 1,14,-1
 347 529 l 1,15,-1
 218 529 l 1,16,-1
 218 431 l 1,17,-1
 313 431 l 2,18,0
 433 431 433 431 501.5 378 c 128,-1,1
424.5 111 m 128,-1,20
 465 143 465 143 465 221 c 0,21,22
 465 291 465 291 426 322.5 c 128,-1,23
 387 354 387 354 313 354 c 2,24,-1
 218 354 l 1,25,-1
 218 79 l 1,26,-1
 311 79 l 2,27,19
 384 79 384 79 424.5 111 c 128,-1,20
EndSplineSet
EndChar

StartChar: uni048E
Encoding: 1166 1166 421
Width: 600
GlyphClass: 2
Flags: W
AnchorPoint: "Anchor-3" 300 689 basechar 0
AnchorPoint: "Anchor-2" 300 0 basechar 0
LayerCount: 2
Fore
SplineSet
536.5 371 m 128,-1,1
 513 326 513 326 470 298 c 1,2,-1
 550 168 l 1,3,-1
 471 168 l 1,4,-1
 409 269 l 1,5,6
 356 252 356 252 293 252 c 2,7,-1
 206 252 l 1,8,-1
 206 0 l 1,9,-1
 107 0 l 1,10,-1
 107 689 l 1,11,-1
 289 689 l 2,12,13
 419 689 419 689 489.5 635.5 c 128,-1,14
 560 582 560 582 560 474 c 0,15,0
 560 416 560 416 536.5 371 c 128,-1,1
368 337 m 1,17,-1
 281 479 l 1,18,-1
 360 479 l 1,19,-1
 426 371 l 1,20,21
 456 406 456 406 456 473 c 0,22,23
 456 546 456 546 414.5 579.5 c 128,-1,24
 373 613 373 613 300 613 c 2,25,-1
 206 613 l 1,26,-1
 206 329 l 1,27,-1
 298 329 l 2,28,16
 341 329 341 329 368 337 c 1,17,-1
EndSplineSet
EndChar

StartChar: uni0431
Encoding: 1073 1073 423
Width: 600
GlyphClass: 2
Flags: W
AnchorPoint: "Anchor-3" 300 739 basechar 0
AnchorPoint: "Anchor-2" 300 0 basechar 0
LayerCount: 2
Fore
SplineSet
436 464 m 128,-1,1
 480 435 480 435 504.5 380 c 128,-1,2
 529 325 529 325 529 251 c 0,3,4
 529 167 529 167 500 108 c 128,-1,5
 471 49 471 49 419 18.5 c 128,-1,6
 367 -12 367 -12 299 -12 c 0,7,8
 195 -12 195 -12 132.5 63.5 c 128,-1,9
 70 139 70 139 70 291 c 0,10,11
 70 405 70 405 87 479 c 128,-1,12
 104 553 104 553 146.5 600.5 c 128,-1,13
 189 648 189 648 266 674 c 0,14,15
 328 695 328 695 362.5 710.5 c 128,-1,16
 397 726 397 726 435 751 c 1,17,-1
 475 681 l 1,18,19
 409 639 409 639 312 604 c 0,20,21
 265 588 265 588 237.5 567 c 128,-1,22
 210 546 210 546 193.5 506.5 c 128,-1,23
 177 467 177 467 171 400 c 1,24,25
 197 444 197 444 239.5 468.5 c 128,-1,26
 282 493 282 493 335 493 c 0,27,0
 392 493 392 493 436 464 c 128,-1,1
392 105 m 128,-1,29
 426 146 426 146 426 248 c 0,30,31
 426 338 426 338 397.5 377.5 c 128,-1,32
 369 417 369 417 316 417 c 0,33,34
 273 417 273 417 235.5 393 c 128,-1,35
 198 369 198 369 173 321 c 1,36,-1
 173 256 l 2,37,38
 173 164 173 164 206.5 114 c 128,-1,39
 240 64 240 64 299 64 c 256,40,28
 358 64 358 64 392 105 c 128,-1,29
EndSplineSet
EndChar

StartChar: uni0432
Encoding: 1074 1074 424
Width: 600
Flags: W
LayerCount: 2
Fore
SplineSet
503 247 m 128,-1,1
 536 215 536 215 536 156 c 0,2,3
 536 78 536 78 471 39 c 128,-1,4
 406 0 406 0 308 0 c 2,5,-1
 106 0 l 1,6,-1
 106 520 l 1,7,8
 203 540 203 540 291 540 c 0,9,10
 392 540 392 540 451 503.5 c 128,-1,11
 510 467 510 467 510 401 c 0,12,13
 510 358 510 358 485 329 c 128,-1,14
 460 300 460 300 402 286 c 1,15,0
 470 279 470 279 503 247 c 128,-1,1
202 461 m 1,17,-1
 202 314 l 1,18,-1
 304 314 l 2,19,20
 357 314 357 314 384.5 332 c 128,-1,21
 412 350 412 350 412 392 c 0,22,23
 412 432 412 432 383 449.5 c 128,-1,24
 354 467 354 467 292 467 c 0,25,16
 246 467 246 467 202 461 c 1,17,-1
397.5 90.5 m 128,-1,27
 436 107 436 107 436 158 c 0,28,29
 436 245 436 245 310 245 c 2,30,-1
 202 245 l 1,31,-1
 202 74 l 1,32,-1
 294 74 l 2,33,26
 359 74 359 74 397.5 90.5 c 128,-1,27
EndSplineSet
EndChar

StartChar: uni0433
Encoding: 1075 1075 425
Width: 600
GlyphClass: 2
Flags: W
AnchorPoint: "Anchor-3" 340 527 basechar 0
AnchorPoint: "Anchor-2" 200 0 basechar 0
LayerCount: 2
Fore
SplineSet
248 0 m 1,0,-1
 152 0 l 1,1,-1
 152 527 l 1,2,-1
 527 527 l 1,3,-1
 515 448 l 1,4,-1
 248 448 l 1,5,-1
 248 0 l 1,0,-1
EndSplineSet
EndChar

StartChar: uni0491
Encoding: 1169 1169 427
Width: 600
GlyphClass: 2
Flags: W
AnchorPoint: "Anchor-3" 340 527 basechar 0
AnchorPoint: "Anchor-2" 200 0 basechar 0
LayerCount: 2
Fore
SplineSet
432 663 m 1,0,-1
 527 663 l 1,1,-1
 527 527 l 1,2,-1
 515 448 l 1,3,-1
 248 448 l 1,4,-1
 248 0 l 1,5,-1
 152 0 l 1,6,-1
 152 527 l 1,7,-1
 432 527 l 1,8,-1
 432 663 l 1,0,-1
EndSplineSet
EndChar

StartChar: uni0434
Encoding: 1076 1076 428
Width: 600
GlyphClass: 2
Flags: W
AnchorPoint: "Anchor-3" 300 527 basechar 0
AnchorPoint: "Anchor-2" 300 -203 basechar 0
LayerCount: 2
Fore
SplineSet
541 77 m 1,0,-1
 541 -151 l 1,1,-1
 463 -151 l 1,2,-1
 448 0 l 1,3,-1
 117 0 l 1,4,-1
 102 -151 l 1,5,-1
 24 -151 l 1,6,-1
 24 77 l 1,7,-1
 61 77 l 1,8,9
 85 98 85 98 99.5 127.5 c 128,-1,10
 114 157 114 157 124 211 c 128,-1,11
 134 265 134 265 141 357 c 2,12,-1
 153 527 l 1,13,-1
 500 527 l 1,14,-1
 500 77 l 1,15,-1
 541 77 l 1,0,-1
405 452 m 1,16,-1
 239 452 l 1,17,-1
 233 363 l 2,18,19
 226 266 226 266 216 212.5 c 128,-1,20
 206 159 206 159 189 129 c 128,-1,21
 172 99 172 99 142 77 c 1,22,-1
 405 77 l 1,23,-1
 405 452 l 1,16,-1
EndSplineSet
EndChar

StartChar: uni0435
Encoding: 1077 1077 429
Width: 600
GlyphClass: 2
Flags: W
AnchorPoint: "Anchor-3" 310 527 basechar 0
AnchorPoint: "Anchor-2" 300 0 basechar 0
LayerCount: 2
Fore
SplineSet
218.5 106.5 m 128,-1,1
 260 65 260 65 323 65 c 0,2,3
 361 65 361 65 394 76.5 c 128,-1,4
 427 88 427 88 463 112 c 1,5,-1
 506 51 l 1,6,7
 469 21 469 21 420 4.5 c 128,-1,8
 371 -12 371 -12 320 -12 c 0,9,10
 203 -12 203 -12 138 63 c 128,-1,11
 73 138 73 138 73 263 c 0,12,13
 73 343 73 343 101.5 405.5 c 128,-1,14
 130 468 130 468 183.5 504 c 128,-1,15
 237 540 237 540 308 540 c 0,16,17
 410 540 410 540 469 470 c 128,-1,18
 528 400 528 400 528 279 c 0,19,20
 528 255 528 255 526 231 c 1,21,-1
 173 231 l 1,22,0
 177 148 177 148 218.5 106.5 c 128,-1,1
214.5 423.5 m 128,-1,24
 178 382 178 382 173 301 c 1,25,-1
 435 301 l 1,26,27
 434 380 434 380 400.5 422.5 c 128,-1,28
 367 465 367 465 309 465 c 256,29,23
 251 465 251 465 214.5 423.5 c 128,-1,24
EndSplineSet
EndChar

StartChar: uni0436
Encoding: 1078 1078 432
Width: 600
GlyphClass: 2
Flags: W
AnchorPoint: "Anchor-3" 300 527 basechar 0
AnchorPoint: "Anchor-2" 300 0 basechar 0
LayerCount: 2
Fore
SplineSet
260 0 m 1,0,-1
 260 244 l 1,1,-1
 209 244 l 1,2,-1
 108 0 l 1,3,-1
 16 0 l 1,4,-1
 138 283 l 1,5,-1
 24 527 l 1,6,-1
 118 527 l 1,7,-1
 209 313 l 1,8,-1
 260 313 l 1,9,-1
 260 527 l 1,10,-1
 340 527 l 1,11,-1
 340 313 l 1,12,-1
 391 313 l 1,13,-1
 485 527 l 1,14,-1
 576 527 l 1,15,-1
 462 283 l 1,16,-1
 584 0 l 1,17,-1
 491 0 l 1,18,-1
 389 244 l 1,19,-1
 340 244 l 1,20,-1
 340 0 l 1,21,-1
 260 0 l 1,0,-1
EndSplineSet
EndChar

StartChar: uni0437
Encoding: 1079 1079 433
Width: 600
GlyphClass: 2
Flags: W
AnchorPoint: "Anchor-3" 293 527 basechar 0
AnchorPoint: "Anchor-2" 300 0 basechar 0
LayerCount: 2
Fore
SplineSet
283 312 m 2,0,1
 334 312 334 312 363 332.5 c 128,-1,2
 392 353 392 353 392 388 c 0,3,4
 392 465 392 465 273 465 c 0,5,6
 233 465 233 465 191 453.5 c 128,-1,7
 149 442 149 442 113 420 c 1,8,-1
 68 476 l 1,9,10
 109 506 109 506 165 523 c 128,-1,11
 221 540 221 540 278 540 c 0,12,13
 371 540 371 540 431 502 c 128,-1,14
 491 464 491 464 491 395 c 0,15,16
 491 352 491 352 461.5 323.5 c 128,-1,17
 432 295 432 295 381 281 c 1,18,19
 436 279 436 279 478 246 c 128,-1,20
 520 213 520 213 520 157 c 0,21,22
 520 76 520 76 452.5 32 c 128,-1,23
 385 -12 385 -12 276 -12 c 0,24,25
 140 -12 140 -12 49 61 c 1,26,-1
 94 121 l 1,27,28
 134 93 134 93 178.5 78.5 c 128,-1,29
 223 64 223 64 278 64 c 0,30,31
 346 64 346 64 381.5 88.5 c 128,-1,32
 417 113 417 113 417 156 c 0,33,34
 417 238 417 238 289 238 c 2,35,-1
 182 238 l 1,36,-1
 188 312 l 1,37,-1
 283 312 l 2,0,1
EndSplineSet
EndChar

StartChar: uni0438
Encoding: 1080 1080 434
Width: 600
GlyphClass: 2
Flags: W
AnchorPoint: "Anchor-3" 300 527 basechar 0
AnchorPoint: "Anchor-2" 300 0 basechar 0
LayerCount: 2
Fore
SplineSet
505 0 m 1,0,-1
 410 0 l 1,1,-1
 410 234 l 2,2,3
 410 295 410 295 414.5 349.5 c 128,-1,4
 419 404 419 404 422 421 c 1,5,-1
 208 0 l 1,6,-1
 95 0 l 1,7,-1
 95 527 l 1,8,-1
 190 527 l 1,9,-1
 190 293 l 2,10,11
 190 238 190 238 186 181.5 c 128,-1,12
 182 125 182 125 179 109 c 1,13,-1
 390 527 l 1,14,-1
 505 527 l 1,15,-1
 505 0 l 1,0,-1
EndSplineSet
EndChar

StartChar: uni048B
Encoding: 1163 1163 437
Width: 600
Flags: W
LayerCount: 2
Fore
SplineSet
182.5 673 m 128,-1,1
 141 705 141 705 135 760 c 1,2,-1
 197 774 l 1,3,4
 207 742 207 742 228.5 727.5 c 128,-1,5
 250 713 250 713 286 713 c 0,6,7
 358 713 358 713 378 774 c 1,8,-1
 440 760 l 1,9,10
 434 705 434 705 391.5 673 c 128,-1,11
 349 641 349 641 286 641 c 0,12,0
 224 641 224 641 182.5 673 c 128,-1,1
569 78 m 1,13,-1
 497 -151 l 1,14,-1
 419 -151 l 1,15,-1
 454 0 l 1,16,-1
 395 0 l 1,17,-1
 395 234 l 2,18,19
 395 339 395 339 406 438 c 1,20,-1
 200 0 l 1,21,-1
 88 0 l 1,22,-1
 88 527 l 1,23,-1
 181 527 l 1,24,-1
 181 293 l 2,25,26
 181 233 181 233 176.5 177 c 128,-1,27
 172 121 172 121 165 89 c 1,28,-1
 375 527 l 1,29,-1
 487 527 l 1,30,-1
 487 78 l 1,31,-1
 569 78 l 1,13,-1
EndSplineSet
EndChar

StartChar: uni043A
Encoding: 1082 1082 438
Width: 600
GlyphClass: 2
Flags: W
AnchorPoint: "Anchor-3" 320 527 basechar 0
AnchorPoint: "Anchor-2" 300 0 basechar 0
LayerCount: 2
Fore
SplineSet
100 0 m 1,0,-1
 100 527 l 1,1,-1
 196 527 l 1,2,-1
 196 316 l 1,3,-1
 296 316 l 1,4,-1
 442 527 l 1,5,-1
 547 527 l 1,6,-1
 374 283 l 1,7,-1
 572 0 l 1,8,-1
 459 0 l 1,9,-1
 294 242 l 1,10,-1
 196 242 l 1,11,-1
 196 0 l 1,12,-1
 100 0 l 1,0,-1
EndSplineSet
EndChar

StartChar: uni043B
Encoding: 1083 1083 440
Width: 600
GlyphClass: 2
Flags: W
AnchorPoint: "Anchor-3" 300 527 basechar 0
AnchorPoint: "Anchor-2" 300 0 basechar 0
LayerCount: 2
Fore
SplineSet
513 0 m 1,0,-1
 417 0 l 1,1,-1
 417 450 l 1,2,-1
 233 450 l 1,3,-1
 223 323 l 2,4,5
 214 204 214 204 199 142.5 c 128,-1,6
 184 81 184 81 157.5 48.5 c 128,-1,7
 131 16 131 16 78 -12 c 1,8,-1
 37 49 l 1,9,10
 66 67 66 67 82.5 90 c 128,-1,11
 99 113 99 113 111 165.5 c 128,-1,12
 123 218 123 218 131 319 c 2,13,-1
 147 527 l 1,14,-1
 513 527 l 1,15,-1
 513 0 l 1,0,-1
EndSplineSet
EndChar

StartChar: uni043C
Encoding: 1084 1084 441
Width: 600
GlyphClass: 2
Flags: W
AnchorPoint: "Anchor-3" 300 527 basechar 0
AnchorPoint: "Anchor-2" 300 0 basechar 0
LayerCount: 2
Fore
SplineSet
561 0 m 1,0,-1
 471 0 l 1,1,-1
 453 245 l 2,2,3
 448 315 448 315 448 379 c 0,4,5
 448 415 448 415 449 434 c 1,6,-1
 445 434 l 1,7,-1
 346 88 l 1,8,-1
 257 88 l 1,9,-1
 147 434 l 1,10,-1
 143 434 l 1,11,12
 144 413 144 413 144 368 c 0,13,14
 144 302 144 302 141 245 c 2,15,-1
 128 0 l 1,16,-1
 39 0 l 1,17,-1
 76 527 l 1,18,-1
 196 527 l 1,19,-1
 303 173 l 1,20,-1
 401 527 l 1,21,-1
 523 527 l 1,22,-1
 561 0 l 1,0,-1
EndSplineSet
EndChar

StartChar: uni043D
Encoding: 1085 1085 442
Width: 600
Flags: W
LayerCount: 2
Fore
SplineSet
409 0 m 1,0,-1
 409 231 l 1,1,-1
 191 231 l 1,2,-1
 191 0 l 1,3,-1
 95 0 l 1,4,-1
 95 527 l 1,5,-1
 191 527 l 1,6,-1
 191 307 l 1,7,-1
 409 307 l 1,8,-1
 409 527 l 1,9,-1
 505 527 l 1,10,-1
 505 0 l 1,11,-1
 409 0 l 1,0,-1
EndSplineSet
EndChar

StartChar: uni043E
Encoding: 1086 1086 443
Width: 600
GlyphClass: 2
Flags: W
AnchorPoint: "Anchor-3" 300 527 basechar 0
AnchorPoint: "Anchor-2" 300 0 basechar 0
LayerCount: 2
Fore
SplineSet
472 466 m 128,-1,1
 532 392 532 392 532 264 c 0,2,3
 532 138 532 138 471 63 c 128,-1,4
 410 -12 410 -12 300 -12 c 0,5,6
 188 -12 188 -12 128 61.5 c 128,-1,7
 68 135 68 135 68 263 c 0,8,9
 68 389 68 389 129 464.5 c 128,-1,10
 190 540 190 540 301 540 c 256,11,0
 412 540 412 540 472 466 c 128,-1,1
202.5 414 m 128,-1,13
 170 365 170 365 170 263 c 0,14,15
 170 162 170 162 202 113 c 128,-1,16
 234 64 234 64 300 64 c 256,17,18
 366 64 366 64 398 113 c 128,-1,19
 430 162 430 162 430 264 c 0,20,21
 430 365 430 365 398 414 c 128,-1,22
 366 463 366 463 301 463 c 0,23,12
 235 463 235 463 202.5 414 c 128,-1,13
EndSplineSet
EndChar

StartChar: uni043F
Encoding: 1087 1087 444
Width: 600
GlyphClass: 2
Flags: W
AnchorPoint: "Anchor-3" 300 527 basechar 0
AnchorPoint: "Anchor-2" 300 0 basechar 0
LayerCount: 2
Fore
SplineSet
409 0 m 1,0,-1
 409 451 l 1,1,-1
 191 451 l 1,2,-1
 191 0 l 1,3,-1
 95 0 l 1,4,-1
 95 527 l 1,5,-1
 505 527 l 1,6,-1
 505 0 l 1,7,-1
 409 0 l 1,0,-1
EndSplineSet
EndChar

StartChar: uni0442
Encoding: 1090 1090 447
Width: 600
GlyphClass: 2
Flags: W
AnchorPoint: "Anchor-3" 300 527 basechar 0
AnchorPoint: "Anchor-2" 300 0 basechar 0
LayerCount: 2
Fore
SplineSet
544 527 m 1,0,-1
 533 450 l 1,1,-1
 348 450 l 1,2,-1
 348 0 l 1,3,-1
 252 0 l 1,4,-1
 252 450 l 1,5,-1
 62 450 l 1,6,-1
 62 527 l 1,7,-1
 544 527 l 1,0,-1
EndSplineSet
EndChar

StartChar: uni0443
Encoding: 1091 1091 448
Width: 600
GlyphClass: 2
Flags: W
AnchorPoint: "Anchor-3" 300 527 basechar 0
AnchorPoint: "Anchor-2" 0 0 basechar 0
LayerCount: 2
Fore
SplineSet
360 -3 m 2,0,1
 329 -96 329 -96 272.5 -150 c 128,-1,2
 216 -204 216 -204 115 -214 c 1,3,-1
 102 -139 l 1,4,5
 154 -130 154 -130 186 -113 c 128,-1,6
 218 -96 218 -96 236.5 -69.5 c 128,-1,7
 255 -43 255 -43 270 0 c 1,8,-1
 237 0 l 1,9,-1
 56 527 l 1,10,-1
 158 527 l 1,11,-1
 302 70 l 1,12,-1
 445 527 l 1,13,-1
 544 527 l 1,14,-1
 360 -3 l 2,0,1
EndSplineSet
EndChar

StartChar: uni0444
Encoding: 1092 1092 450
Width: 600
GlyphClass: 2
Flags: W
AnchorPoint: "Anchor-3" 300 739 basechar 0
AnchorPoint: "Anchor-2" 300 -203 basechar 0
LayerCount: 2
Fore
SplineSet
341 739 m 1,0,-1
 341 487 l 1,1,2
 383 540 383 540 439 540 c 0,3,4
 514 540 514 540 544 469.5 c 128,-1,5
 574 399 574 399 574 264 c 0,6,7
 574 137 574 137 536.5 62.5 c 128,-1,8
 499 -12 499 -12 430 -12 c 0,9,10
 380 -12 380 -12 341 42 c 1,11,-1
 341 -202 l 1,12,-1
 259 -214 l 1,13,-1
 259 42 l 1,14,15
 240 15 240 15 216.5 1.5 c 128,-1,16
 193 -12 193 -12 168 -12 c 0,17,18
 99 -12 99 -12 62.5 62 c 128,-1,19
 26 136 26 136 26 264 c 0,20,21
 26 397 26 397 58.5 468.5 c 128,-1,22
 91 540 91 540 166 540 c 0,23,24
 219 540 219 540 259 489 c 1,25,-1
 259 751 l 1,26,-1
 341 739 l 1,0,-1
138 419 m 128,-1,28
 122 372 122 372 122 264 c 256,29,30
 122 156 122 156 138 108.5 c 128,-1,31
 154 61 154 61 190 61 c 0,32,33
 209 61 209 61 223.5 72 c 128,-1,34
 238 83 238 83 259 109 c 1,35,-1
 259 422 l 1,36,37
 240 446 240 446 225.5 456 c 128,-1,38
 211 466 211 466 190 466 c 0,39,27
 154 466 154 466 138 419 c 128,-1,28
376.5 455.5 m 128,-1,41
 360 445 360 445 341 421 c 1,42,-1
 341 109 l 1,43,44
 360 83 360 83 374.5 72 c 128,-1,45
 389 61 389 61 409 61 c 0,46,47
 444 61 444 61 461.5 109 c 128,-1,48
 479 157 479 157 479 264 c 0,49,50
 479 374 479 374 464.5 420 c 128,-1,51
 450 466 450 466 415 466 c 0,52,40
 393 466 393 466 376.5 455.5 c 128,-1,41
EndSplineSet
EndChar

StartChar: uni0447
Encoding: 1095 1095 452
Width: 600
GlyphClass: 2
Flags: W
AnchorPoint: "Anchor-3" 287 527 basechar 0
AnchorPoint: "Anchor-2" 300 0 basechar 0
LayerCount: 2
Fore
SplineSet
495 0 m 1,0,-1
 399 0 l 1,1,-1
 399 219 l 1,2,3
 369 192 369 192 326.5 176.5 c 128,-1,4
 284 161 284 161 236 161 c 0,5,6
 159 161 159 161 119 202 c 128,-1,7
 79 243 79 243 79 318 c 2,8,-1
 79 527 l 1,9,-1
 175 527 l 1,10,-1
 175 329 l 2,11,12
 175 280 175 280 196.5 258 c 128,-1,13
 218 236 218 236 263 236 c 0,14,15
 300 236 300 236 338 251.5 c 128,-1,16
 376 267 376 267 399 292 c 1,17,-1
 399 527 l 1,18,-1
 495 527 l 1,19,-1
 495 0 l 1,0,-1
EndSplineSet
EndChar

StartChar: uni0446
Encoding: 1094 1094 453
Width: 600
GlyphClass: 2
Flags: W
AnchorPoint: "Anchor-3" 0 0 basechar 0
AnchorPoint: "Anchor-2" 293 0 basechar 0
LayerCount: 2
Fore
SplineSet
498 77 m 1,0,-1
 577 77 l 1,1,-1
 577 -151 l 1,2,-1
 499 -151 l 1,3,-1
 484 0 l 1,4,-1
 88 0 l 1,5,-1
 88 527 l 1,6,-1
 184 527 l 1,7,-1
 184 78 l 1,8,-1
 402 78 l 1,9,-1
 402 527 l 1,10,-1
 498 527 l 1,11,-1
 498 77 l 1,0,-1
EndSplineSet
EndChar

StartChar: uni0448
Encoding: 1096 1096 454
Width: 600
GlyphClass: 2
Flags: W
AnchorPoint: "Anchor-3" 300 527 basechar 0
AnchorPoint: "Anchor-2" 300 0 basechar 0
LayerCount: 2
Fore
SplineSet
555 527 m 1,0,-1
 555 0 l 1,1,-1
 45 0 l 1,2,-1
 45 527 l 1,3,-1
 133 527 l 1,4,-1
 133 78 l 1,5,-1
 258 78 l 1,6,-1
 258 527 l 1,7,-1
 342 527 l 1,8,-1
 342 78 l 1,9,-1
 467 78 l 1,10,-1
 467 527 l 1,11,-1
 555 527 l 1,0,-1
EndSplineSet
EndChar

StartChar: uni0449
Encoding: 1097 1097 455
Width: 600
GlyphClass: 2
Flags: W
AnchorPoint: "Anchor-3" 300 527 basechar 0
AnchorPoint: "Anchor-2" 300 0 basechar 0
LayerCount: 2
Fore
SplineSet
555 77 m 1,0,-1
 623 77 l 1,1,-1
 623 -151 l 1,2,-1
 545 -151 l 1,3,-1
 530 0 l 1,4,-1
 45 0 l 1,5,-1
 45 527 l 1,6,-1
 133 527 l 1,7,-1
 133 78 l 1,8,-1
 258 78 l 1,9,-1
 258 527 l 1,10,-1
 342 527 l 1,11,-1
 342 78 l 1,12,-1
 467 78 l 1,13,-1
 467 527 l 1,14,-1
 555 527 l 1,15,-1
 555 77 l 1,0,-1
EndSplineSet
EndChar

StartChar: uni045F
Encoding: 1119 1119 456
Width: 600
GlyphClass: 2
Flags: W
AnchorPoint: "Anchor-3" 0 0 basechar 0
AnchorPoint: "Anchor-2" 300 0 basechar 0
LayerCount: 2
Fore
SplineSet
505 527 m 1,0,-1
 505 0 l 1,1,-1
 346 0 l 1,2,-1
 346 -151 l 1,3,-1
 268 -151 l 1,4,-1
 253 0 l 1,5,-1
 95 0 l 1,6,-1
 95 527 l 1,7,-1
 191 527 l 1,8,-1
 191 78 l 1,9,-1
 409 78 l 1,10,-1
 409 527 l 1,11,-1
 505 527 l 1,0,-1
EndSplineSet
EndChar

StartChar: uni044C
Encoding: 1100 1100 457
Width: 600
GlyphClass: 2
Flags: W
AnchorPoint: "Anchor-3" 300 527 basechar 0
AnchorPoint: "Anchor-2" 300 0 basechar 0
LayerCount: 2
Fore
SplineSet
216 363 m 1,0,-1
 311 363 l 2,1,2
 431 363 431 363 484 316.5 c 128,-1,3
 537 270 537 270 537 182 c 0,4,5
 537 91 537 91 477 45.5 c 128,-1,6
 417 0 417 0 328 0 c 2,7,-1
 120 0 l 1,8,-1
 120 527 l 1,9,-1
 216 527 l 1,10,-1
 216 363 l 1,0,-1
216 291 m 1,11,-1
 216 74 l 1,12,-1
 320 74 l 2,13,14
 375 74 375 74 405 99 c 128,-1,15
 435 124 435 124 435 183 c 0,16,17
 435 238 435 238 407 264.5 c 128,-1,18
 379 291 379 291 311 291 c 2,19,-1
 216 291 l 1,11,-1
EndSplineSet
EndChar

StartChar: uni044A
Encoding: 1098 1098 458
Width: 600
Flags: W
LayerCount: 2
Fore
SplineSet
248 363 m 1,0,-1
 307 363 l 2,1,2
 549 363 549 363 549 184 c 0,3,4
 549 88 549 88 485.5 44 c 128,-1,5
 422 0 422 0 310 0 c 2,6,-1
 152 0 l 1,7,-1
 152 455 l 1,8,-1
 30 455 l 1,9,-1
 30 527 l 1,10,-1
 248 527 l 1,11,-1
 248 363 l 1,0,-1
248 290 m 1,12,-1
 248 74 l 1,13,-1
 315 74 l 2,14,15
 378 74 378 74 412.5 98 c 128,-1,16
 447 122 447 122 447 184 c 0,17,18
 447 241 447 241 414 265.5 c 128,-1,19
 381 290 381 290 315 290 c 2,20,-1
 248 290 l 1,12,-1
EndSplineSet
EndChar

StartChar: uni044B
Encoding: 1099 1099 459
Width: 600
GlyphClass: 2
Flags: W
AnchorPoint: "Anchor-3" 300 527 basechar 0
AnchorPoint: "Anchor-2" 300 0 basechar 0
LayerCount: 2
Fore
SplineSet
145 358 m 1,0,-1
 177 358 l 2,1,2
 402 358 402 358 402 183 c 0,3,4
 402 90 402 90 343.5 45 c 128,-1,5
 285 0 285 0 179 0 c 2,6,-1
 56 0 l 1,7,-1
 56 527 l 1,8,-1
 145 527 l 1,9,-1
 145 358 l 1,0,-1
544 527 m 1,10,-1
 544 0 l 1,11,-1
 454 0 l 1,12,-1
 454 527 l 1,13,-1
 544 527 l 1,10,-1
145 290 m 1,14,-1
 145 71 l 1,15,-1
 181 71 l 2,16,17
 243 71 243 71 274.5 96 c 128,-1,18
 306 121 306 121 306 183 c 0,19,20
 306 240 306 240 276 265 c 128,-1,21
 246 290 246 290 181 290 c 2,22,-1
 145 290 l 1,14,-1
EndSplineSet
EndChar

StartChar: uni0459
Encoding: 1113 1113 460
Width: 600
GlyphClass: 2
Flags: W
AnchorPoint: "Anchor-3" 300 527 basechar 0
AnchorPoint: "Anchor-2" 300 0 basechar 0
LayerCount: 2
Fore
SplineSet
366 358 m 1,0,-1
 379 358 l 2,1,2
 483 358 483 358 538.5 315 c 128,-1,3
 594 272 594 272 594 183 c 0,4,5
 594 92 594 92 537.5 46 c 128,-1,6
 481 0 481 0 381 0 c 2,7,-1
 277 0 l 1,8,-1
 277 454 l 1,9,-1
 179 454 l 1,10,-1
 173 321 l 2,11,12
 168 208 168 208 153.5 145.5 c 128,-1,13
 139 83 139 83 112 50 c 128,-1,14
 85 17 85 17 35 -12 c 1,15,-1
 1 51 l 1,16,17
 25 70 25 70 40 93.5 c 128,-1,18
 55 117 55 117 66.5 169.5 c 128,-1,19
 78 222 78 222 83 318 c 2,20,-1
 93 527 l 1,21,-1
 366 527 l 1,22,-1
 366 358 l 1,0,-1
366 290 m 1,23,-1
 366 71 l 1,24,-1
 384 71 l 2,25,26
 443 71 443 71 470.5 95.5 c 128,-1,27
 498 120 498 120 498 183 c 0,28,29
 498 240 498 240 471 265 c 128,-1,30
 444 290 444 290 383 290 c 2,31,-1
 366 290 l 1,23,-1
EndSplineSet
EndChar

StartChar: uni045A
Encoding: 1114 1114 461
Width: 600
GlyphClass: 2
Flags: W
AnchorPoint: "Anchor-3" 300 527 basechar 0
AnchorPoint: "Anchor-2" 300 0 basechar 0
LayerCount: 2
Fore
SplineSet
369 331 m 1,0,-1
 382 331 l 2,1,2
 597 331 597 331 597 166 c 0,3,4
 597 0 597 0 383 0 c 2,5,-1
 280 0 l 1,6,-1
 280 263 l 1,7,-1
 156 263 l 1,8,-1
 156 0 l 1,9,-1
 66 0 l 1,10,-1
 66 527 l 1,11,-1
 156 527 l 1,12,-1
 156 331 l 1,13,-1
 280 331 l 1,14,-1
 280 527 l 1,15,-1
 369 527 l 1,16,-1
 369 331 l 1,0,-1
369 263 m 1,17,-1
 369 71 l 1,18,-1
 385 71 l 2,19,20
 425 71 425 71 449.5 78 c 128,-1,21
 474 85 474 85 487.5 106 c 128,-1,22
 501 127 501 127 501 167 c 0,23,24
 501 220 501 220 474 241.5 c 128,-1,25
 447 263 447 263 386 263 c 2,26,-1
 369 263 l 1,17,-1
EndSplineSet
EndChar

StartChar: uni0454
Encoding: 1108 1108 463
Width: 600
GlyphClass: 2
Flags: W
AnchorPoint: "Anchor-3" 300 527 basechar 0
AnchorPoint: "Anchor-2" 300 0 basechar 0
LayerCount: 2
Fore
SplineSet
520 480 m 1,1,-1
 476 420 l 1,2,3
 442 443 442 443 409.5 453.5 c 128,-1,4
 377 464 377 464 341 464 c 0,5,6
 279 464 279 464 238 423.5 c 128,-1,7
 197 383 197 383 188 306 c 1,8,-1
 423 306 l 1,9,-1
 423 234 l 1,10,-1
 187 234 l 1,11,12
 193 148 193 148 234 106.5 c 128,-1,13
 275 65 275 65 341 65 c 0,14,15
 378 65 378 65 410.5 76 c 128,-1,16
 443 87 443 87 477 110 c 1,17,-1
 520 50 l 1,18,19
 484 20 484 20 436 4 c 128,-1,20
 388 -12 388 -12 341 -12 c 0,21,22
 221 -12 221 -12 154.5 61.5 c 128,-1,23
 88 135 88 135 88 261 c 0,24,25
 88 341 88 341 118 404.5 c 128,-1,26
 148 468 148 468 205 504 c 128,-1,27
 262 540 262 540 340 540 c 0,28,0
 443 540 443 540 520 480 c 1,1,-1
EndSplineSet
EndChar

StartChar: uni044D
Encoding: 1101 1101 464
Width: 600
GlyphClass: 2
Flags: W
AnchorPoint: "Anchor-3" 295 527 basechar 0
AnchorPoint: "Anchor-2" 300 0 basechar 0
LayerCount: 2
Fore
SplineSet
458.5 466.5 m 128,-1,1
 520 393 520 393 520 266 c 256,2,3
 520 139 520 139 455 63.5 c 128,-1,4
 390 -12 390 -12 271 -12 c 0,5,6
 220 -12 220 -12 172 4.5 c 128,-1,7
 124 21 124 21 88 51 c 1,8,-1
 133 112 l 1,9,10
 196 65 196 65 270 65 c 0,11,12
 337 65 337 65 376 106 c 128,-1,13
 415 147 415 147 421 234 c 1,14,-1
 181 234 l 1,15,-1
 181 306 l 1,16,-1
 420 306 l 1,17,18
 413 386 413 386 375.5 425 c 128,-1,19
 338 464 338 464 275 464 c 0,20,21
 199 464 199 464 137 419 c 1,22,-1
 93 478 l 1,23,24
 129 508 129 508 177.5 524 c 128,-1,25
 226 540 226 540 278 540 c 0,26,0
 397 540 397 540 458.5 466.5 c 128,-1,1
EndSplineSet
EndChar

StartChar: uni044E
Encoding: 1102 1102 469
Width: 600
GlyphClass: 2
Flags: W
AnchorPoint: "Anchor-3" 300 527 basechar 0
AnchorPoint: "Anchor-2" 300 0 basechar 0
LayerCount: 2
Fore
SplineSet
525 468 m 128,-1,1
 571 396 571 396 571 264 c 0,2,3
 571 135 571 135 525.5 61.5 c 128,-1,4
 480 -12 480 -12 387 -12 c 0,5,6
 300 -12 300 -12 256 53.5 c 128,-1,7
 212 119 212 119 206 231 c 1,8,-1
 142 231 l 1,9,-1
 142 0 l 1,10,-1
 52 0 l 1,11,-1
 52 527 l 1,12,-1
 142 527 l 1,13,-1
 142 307 l 1,14,-1
 206 307 l 1,15,16
 213 418 213 418 257.5 479 c 128,-1,17
 302 540 302 540 387 540 c 0,18,0
 479 540 479 540 525 468 c 128,-1,1
319.5 418 m 128,-1,20
 301 371 301 371 301 263 c 0,21,22
 301 160 301 160 319 111.5 c 128,-1,23
 337 63 337 63 387 63 c 256,24,25
 437 63 437 63 455.5 111.5 c 128,-1,26
 474 160 474 160 474 264 c 0,27,28
 474 369 474 369 454.5 417 c 128,-1,29
 435 465 435 465 387 465 c 0,30,19
 338 465 338 465 319.5 418 c 128,-1,20
EndSplineSet
EndChar

StartChar: uni044F
Encoding: 1103 1103 470
Width: 600
GlyphClass: 2
Flags: W
AnchorPoint: "Anchor-3" 300 527 basechar 0
AnchorPoint: "Anchor-2" 300 0 basechar 0
LayerCount: 2
Fore
SplineSet
492 527 m 1,0,-1
 492 0 l 1,1,-1
 396 0 l 1,2,-1
 396 201 l 1,3,-1
 264 201 l 1,4,-1
 154 0 l 1,5,-1
 47 0 l 1,6,-1
 173 223 l 1,7,8
 81 267 81 267 81 365 c 0,9,10
 81 443 81 443 137 485 c 128,-1,11
 193 527 193 527 296 527 c 2,12,-1
 492 527 l 1,0,-1
396 273 m 1,13,-1
 396 455 l 1,14,-1
 294 455 l 2,15,16
 238 455 238 455 210 433.5 c 128,-1,17
 182 412 182 412 182 366 c 0,18,19
 182 317 182 317 208 295 c 128,-1,20
 234 273 234 273 292 273 c 2,21,-1
 396 273 l 1,13,-1
EndSplineSet
EndChar

StartChar: uni0452
Encoding: 1106 1106 471
Width: 600
GlyphClass: 2
Flags: W
AnchorPoint: "Anchor-3" 300 739 basechar 0
AnchorPoint: "Anchor-2" 300 -203 basechar 0
LayerCount: 2
Fore
SplineSet
191 668 m 1,0,-1
 356 668 l 1,1,-1
 356 597 l 1,2,-1
 191 597 l 1,3,-1
 191 461 l 1,4,5
 222 498 222 498 266.5 519 c 128,-1,6
 311 540 311 540 358 540 c 0,7,8
 432 540 432 540 469 499.5 c 128,-1,9
 506 459 506 459 506 383 c 2,10,-1
 506 35 l 2,11,12
 506 -40 506 -40 488 -85.5 c 128,-1,13
 470 -131 470 -131 435.5 -158.5 c 128,-1,14
 401 -186 401 -186 342 -213 c 1,15,-1
 306 -143 l 1,16,17
 345 -125 345 -125 366.5 -107.5 c 128,-1,18
 388 -90 388 -90 399 -58.5 c 128,-1,19
 410 -27 410 -27 410 27 c 2,20,-1
 410 377 l 2,21,22
 410 423 410 423 389.5 444 c 128,-1,23
 369 465 369 465 325 465 c 0,24,25
 286 465 286 465 250.5 440.5 c 128,-1,26
 215 416 215 416 191 381 c 1,27,-1
 191 0 l 1,28,-1
 95 0 l 1,29,-1
 95 597 l 1,30,-1
 17 597 l 1,31,-1
 17 668 l 1,32,-1
 95 668 l 1,33,-1
 95 738 l 1,34,-1
 191 749 l 1,35,-1
 191 668 l 1,0,-1
EndSplineSet
EndChar

StartChar: uni0463
Encoding: 1123 1123 473
Width: 600
GlyphClass: 2
Flags: W
AnchorPoint: "Anchor-3" 186 652 basechar 0
AnchorPoint: "Anchor-2" 300 0 basechar 0
LayerCount: 2
Fore
SplineSet
234 538 m 1,0,-1
 367 538 l 1,1,-1
 355 466 l 1,2,-1
 234 466 l 1,3,-1
 234 358 l 1,4,-1
 300 358 l 2,5,6
 543 358 543 358 543 181 c 0,7,8
 543 86 543 86 479.5 43 c 128,-1,9
 416 0 416 0 304 0 c 2,10,-1
 138 0 l 1,11,-1
 138 466 l 1,12,-1
 55 466 l 1,13,-1
 55 538 l 1,14,-1
 138 538 l 1,15,-1
 138 647 l 1,16,-1
 234 658 l 1,17,-1
 234 538 l 1,0,-1
234 286 m 1,18,-1
 234 74 l 1,19,-1
 309 74 l 2,20,21
 373 74 373 74 407 97 c 128,-1,22
 441 120 441 120 441 181 c 0,23,24
 441 236 441 236 407.5 261 c 128,-1,25
 374 286 374 286 309 286 c 2,26,-1
 234 286 l 1,18,-1
EndSplineSet
EndChar

StartChar: uni0465
Encoding: 1125 1125 474
Width: 600
GlyphClass: 2
Flags: W
AnchorPoint: "Anchor-3" 300 527 basechar 0
AnchorPoint: "Anchor-2" 300 0 basechar 0
LayerCount: 2
Fore
SplineSet
486 74 m 128,-1,1
 508 84 508 84 532 104 c 1,2,-1
 580 50 l 1,3,4
 550 20 550 20 512 4 c 128,-1,5
 474 -12 474 -12 436 -12 c 0,6,7
 342 -12 342 -12 286.5 53 c 128,-1,8
 231 118 231 118 224 231 c 1,9,-1
 163 231 l 1,10,-1
 163 0 l 1,11,-1
 70 0 l 1,12,-1
 70 527 l 1,13,-1
 163 527 l 1,14,-1
 163 307 l 1,15,-1
 225 307 l 1,16,17
 235 413 235 413 290.5 476.5 c 128,-1,18
 346 540 346 540 439 540 c 0,19,20
 480 540 480 540 515 526 c 128,-1,21
 550 512 550 512 583 483 c 1,22,-1
 536 428 l 1,23,24
 512 447 512 447 489 456 c 128,-1,25
 466 465 466 465 438 465 c 0,26,27
 384 465 384 465 355 424.5 c 128,-1,28
 326 384 326 384 317 306 c 1,29,-1
 506 306 l 1,30,-1
 506 234 l 1,31,-1
 316 234 l 1,32,33
 319 148 319 148 351 106 c 128,-1,34
 383 64 383 64 435 64 c 0,35,0
 464 64 464 64 486 74 c 128,-1,1
EndSplineSet
EndChar

StartChar: uni0467
Encoding: 1127 1127 475
Width: 600
GlyphClass: 2
Flags: W
AnchorPoint: "Anchor-3" 300 527 basechar 0
AnchorPoint: "Anchor-2" 300 0 basechar 0
LayerCount: 2
Fore
SplineSet
470 0 m 1,0,-1
 395 201 l 1,1,-1
 337 201 l 1,2,-1
 337 0 l 1,3,-1
 259 0 l 1,4,-1
 259 201 l 1,5,-1
 203 201 l 1,6,-1
 128 0 l 1,7,-1
 33 0 l 1,8,-1
 244 527 l 1,9,-1
 358 527 l 1,10,-1
 568 0 l 1,11,-1
 470 0 l 1,0,-1
230 274 m 1,12,-1
 368 274 l 1,13,-1
 299 458 l 1,14,-1
 230 274 l 1,12,-1
EndSplineSet
EndChar

StartChar: uni0469
Encoding: 1129 1129 476
Width: 600
GlyphClass: 2
Flags: W
AnchorPoint: "Anchor-3" 300 527 basechar 0
AnchorPoint: "Anchor-2" 300 0 basechar 0
LayerCount: 2
Fore
SplineSet
512 0 m 1,0,-1
 456 201 l 1,1,-1
 419 201 l 1,2,-1
 419 0 l 1,3,-1
 347 0 l 1,4,-1
 347 201 l 1,5,-1
 312 201 l 1,6,-1
 257 0 l 1,7,-1
 173 0 l 1,8,-1
 232 201 l 1,9,-1
 135 201 l 1,10,-1
 135 0 l 1,11,-1
 46 0 l 1,12,-1
 46 527 l 1,13,-1
 135 527 l 1,14,-1
 135 274 l 1,15,-1
 254 274 l 1,16,-1
 329 527 l 1,17,-1
 443 527 l 1,18,-1
 599 0 l 1,19,-1
 512 0 l 1,0,-1
333 274 m 1,20,-1
 436 274 l 1,21,-1
 384 460 l 1,22,-1
 333 274 l 1,20,-1
EndSplineSet
EndChar

StartChar: uni046B
Encoding: 1131 1131 477
Width: 600
GlyphClass: 2
Flags: W
AnchorPoint: "Anchor-3" 300 527 basechar 0
AnchorPoint: "Anchor-2" 300 0 basechar 0
LayerCount: 2
Fore
SplineSet
473 299 m 1,0,-1
 581 0 l 1,1,-1
 495 0 l 1,2,-1
 416 227 l 1,3,-1
 345 227 l 1,4,-1
 345 0 l 1,5,-1
 255 0 l 1,6,-1
 255 227 l 1,7,-1
 185 227 l 1,8,-1
 107 0 l 1,9,-1
 19 0 l 1,10,-1
 128 299 l 1,11,-1
 216 299 l 1,12,-1
 96 477 l 1,13,-1
 96 527 l 1,14,-1
 498 527 l 1,15,-1
 498 477 l 1,16,-1
 378 299 l 1,17,-1
 473 299 l 1,0,-1
197 459 m 1,18,-1
 299 299 l 1,19,-1
 400 459 l 1,20,-1
 197 459 l 1,18,-1
EndSplineSet
EndChar

StartChar: uni046D
Encoding: 1133 1133 478
Width: 600
GlyphClass: 2
Flags: W
AnchorPoint: "Anchor-3" 300 527 basechar 0
AnchorPoint: "Anchor-2" 300 0 basechar 0
LayerCount: 2
Fore
SplineSet
519 299 m 1,0,-1
 615 0 l 1,1,-1
 529 0 l 1,2,-1
 462 226 l 1,3,-1
 426 226 l 1,4,-1
 426 0 l 1,5,-1
 343 0 l 1,6,-1
 343 226 l 1,7,-1
 307 226 l 1,8,-1
 239 0 l 1,9,-1
 153 0 l 1,10,-1
 228 226 l 1,11,-1
 118 226 l 1,12,-1
 118 0 l 1,13,-1
 29 0 l 1,14,-1
 29 527 l 1,15,-1
 118 527 l 1,16,-1
 118 299 l 1,17,-1
 305 299 l 1,18,-1
 200 477 l 1,19,-1
 200 527 l 1,20,-1
 563 527 l 1,21,-1
 563 477 l 1,22,-1
 459 299 l 1,23,-1
 519 299 l 1,0,-1
296 461 m 1,24,-1
 384 299 l 1,25,-1
 471 461 l 1,26,-1
 296 461 l 1,24,-1
EndSplineSet
EndChar

StartChar: uni046F
Encoding: 1135 1135 479
Width: 600
GlyphClass: 2
Flags: W
AnchorPoint: "Anchor-3" 286 527 basechar 0
AnchorPoint: "Anchor-2" 0 0 basechar 0
LayerCount: 2
Fore
SplineSet
412 793 m 1,0,-1
 453 748 l 1,1,-1
 318 626 l 1,2,-1
 255 626 l 1,3,-1
 119 748 l 1,4,-1
 161 793 l 1,5,-1
 287 702 l 1,6,-1
 412 793 l 1,0,-1
115.5 -153.5 m 128,-1,8
 82 -119 82 -119 82 -75 c 0,9,10
 82 -24 82 -24 123 4 c 128,-1,11
 164 32 164 32 257 44 c 0,12,13
 317 51 317 51 351 61 c 128,-1,14
 385 71 385 71 401.5 88.5 c 128,-1,15
 418 106 418 106 418 136 c 0,16,17
 418 176 418 176 397 194 c 128,-1,18
 376 212 376 212 335 212 c 2,19,-1
 165 212 l 1,20,-1
 165 280 l 1,21,-1
 368 449 l 1,22,-1
 80 449 l 1,23,-1
 80 527 l 1,24,-1
 492 527 l 1,25,-1
 492 455 l 1,26,-1
 276 282 l 1,27,-1
 344 282 l 2,28,29
 428 282 428 282 474.5 245.5 c 128,-1,30
 521 209 521 209 521 135 c 0,31,32
 521 62 521 62 466 23 c 128,-1,33
 411 -16 411 -16 311 -29 c 0,34,35
 257 -36 257 -36 229 -43 c 128,-1,36
 201 -50 201 -50 190.5 -59 c 128,-1,37
 180 -68 180 -68 180 -83 c 0,38,39
 180 -102 180 -102 197 -118.5 c 128,-1,40
 214 -135 214 -135 250 -154 c 1,41,-1
 216 -216 l 1,42,7
 149 -188 149 -188 115.5 -153.5 c 128,-1,8
EndSplineSet
EndChar

StartChar: uni0475
Encoding: 1141 1141 482
Width: 600
GlyphClass: 2
Flags: W
AnchorPoint: "Anchor-3" 299 527 basechar 0
AnchorPoint: "Anchor-2" 300 0 basechar 0
LayerCount: 2
Fore
SplineSet
51 527 m 1,0,-1
 155 527 l 1,1,-1
 291 84 l 1,2,-1
 406 462 l 2,3,4
 424 523 424 523 449.5 548.5 c 128,-1,5
 475 574 475 574 524 574 c 0,6,7
 555 574 555 574 594 557 c 1,8,-1
 567 491 l 1,9,10
 554 497 554 497 537 497 c 0,11,12
 521 497 521 497 511.5 487.5 c 128,-1,13
 502 478 502 478 494 454 c 2,14,-1
 348 0 l 1,15,-1
 232 0 l 1,16,-1
 51 527 l 1,0,-1
EndSplineSet
EndChar

StartChar: uni0479
Encoding: 1145 1145 484
Width: 600
Flags: W
LayerCount: 2
Fore
SplineSet
37 60 m 128,-1,1
 -1 132 -1 132 -1 263 c 0,2,3
 -1 392 -1 392 37.5 466 c 128,-1,4
 76 540 76 540 155 540 c 0,5,6
 235 540 235 540 272.5 467.5 c 128,-1,7
 310 395 310 395 310 264 c 0,8,9
 310 135 310 135 271.5 61.5 c 128,-1,10
 233 -12 233 -12 154 -12 c 256,11,0
 75 -12 75 -12 37 60 c 128,-1,1
271 -149 m 1,12,13
 345 -133 345 -133 382 -100.5 c 128,-1,14
 419 -68 419 -68 434 0 c 1,15,-1
 394 0 l 1,16,-1
 304 527 l 1,17,-1
 394 527 l 1,18,-1
 457 70 l 1,19,-1
 519 527 l 1,20,-1
 606 527 l 1,21,-1
 516 6 l 2,22,23
 498 -95 498 -95 440.5 -149 c 128,-1,24
 383 -203 383 -203 285 -214 c 1,25,-1
 271 -149 l 1,12,13
207.5 105 m 128,-1,27
 222 153 222 153 222 264 c 256,28,29
 222 375 222 375 207.5 423 c 128,-1,30
 193 471 193 471 155 471 c 256,31,32
 117 471 117 471 102 422.5 c 128,-1,33
 87 374 87 374 87 263 c 0,34,35
 87 153 87 153 101.5 105 c 128,-1,36
 116 57 116 57 154 57 c 0,37,26
 193 57 193 57 207.5 105 c 128,-1,27
EndSplineSet
EndChar

StartChar: uni0493
Encoding: 1171 1171 485
Width: 600
GlyphClass: 2
Flags: W
AnchorPoint: "Anchor-3" 370 527 basechar 0
AnchorPoint: "Anchor-2" 230 0 basechar 0
LayerCount: 2
Fore
SplineSet
545 448 m 1,0,-1
 278 448 l 1,1,-1
 278 304 l 1,2,-1
 401 304 l 1,3,-1
 401 232 l 1,4,-1
 278 232 l 1,5,-1
 278 0 l 1,6,-1
 182 0 l 1,7,-1
 182 232 l 1,8,-1
 91 232 l 1,9,-1
 91 304 l 1,10,-1
 182 304 l 1,11,-1
 182 527 l 1,12,-1
 557 527 l 1,13,-1
 545 448 l 1,0,-1
EndSplineSet
EndChar

StartChar: uni0495
Encoding: 1173 1173 486
Width: 600
GlyphClass: 2
Flags: W
AnchorPoint: "Anchor-3" 300 527 basechar 0
AnchorPoint: "Anchor-2" 300 -203 basechar 0
LayerCount: 2
Fore
SplineSet
504 1 m 1,0,-1
 504 -55 l 2,1,2
 504 -132 504 -132 462.5 -173 c 128,-1,3
 421 -214 421 -214 350 -214 c 0,4,5
 283 -214 283 -214 234 -175 c 1,6,-1
 271 -116 l 1,7,8
 292 -127 292 -127 307 -132 c 128,-1,9
 322 -137 322 -137 344 -137 c 0,10,11
 408 -137 408 -137 408 -64 c 2,12,-1
 408 0 l 1,13,-1
 407 0 l 1,14,-1
 407 182 l 2,15,16
 407 274 407 274 328 274 c 0,17,18
 287 274 287 274 256 253.5 c 128,-1,19
 225 233 225 233 195 195 c 1,20,-1
 195 0 l 1,21,-1
 99 0 l 1,22,-1
 99 527 l 1,23,-1
 431 527 l 1,24,-1
 419 453 l 1,25,-1
 195 453 l 1,26,-1
 195 274 l 1,27,28
 224 308 224 308 264 328.5 c 128,-1,29
 304 349 304 349 352 349 c 0,30,31
 420 349 420 349 461.5 307 c 128,-1,32
 503 265 503 265 503 190 c 2,33,-1
 503 1 l 1,34,-1
 504 1 l 1,0,-1
EndSplineSet
EndChar

StartChar: uni0497
Encoding: 1175 1175 487
Width: 600
Flags: W
LayerCount: 2
Fore
SplineSet
547 77 m 1,0,-1
 604 77 l 1,1,-1
 604 -151 l 1,2,-1
 537 -151 l 1,3,-1
 521 0 l 1,4,-1
 485 0 l 1,5,-1
 389 244 l 1,6,-1
 340 244 l 1,7,-1
 340 0 l 1,8,-1
 260 0 l 1,9,-1
 260 244 l 1,10,-1
 209 244 l 1,11,-1
 113 0 l 1,12,-1
 21 0 l 1,13,-1
 138 283 l 1,14,-1
 30 527 l 1,15,-1
 123 527 l 1,16,-1
 209 313 l 1,17,-1
 260 313 l 1,18,-1
 260 527 l 1,19,-1
 340 527 l 1,20,-1
 340 313 l 1,21,-1
 391 313 l 1,22,-1
 480 527 l 1,23,-1
 570 527 l 1,24,-1
 462 283 l 1,25,-1
 547 77 l 1,0,-1
EndSplineSet
EndChar

StartChar: uni0499
Encoding: 1177 1177 488
Width: 600
GlyphClass: 2
Flags: W
AnchorPoint: "Anchor-3" 293 527 basechar 0
AnchorPoint: "Anchor-2" 300 0 basechar 0
LayerCount: 2
Fore
SplineSet
466 42.5 m 128,-1,1
 412 -1 412 -1 322 -10 c 1,2,-1
 322 -56 l 1,3,4
 369 -60 369 -60 392.5 -84 c 128,-1,5
 416 -108 416 -108 416 -141 c 0,6,7
 416 -189 416 -189 380 -215.5 c 128,-1,8
 344 -242 344 -242 290 -242 c 0,9,10
 259 -242 259 -242 231 -235.5 c 128,-1,11
 203 -229 203 -229 183 -217 c 1,12,-1
 211 -165 l 1,13,14
 243 -181 243 -181 278 -181 c 0,15,16
 337 -181 337 -181 337 -141 c 0,17,18
 337 -117 337 -117 315.5 -108.5 c 128,-1,19
 294 -100 294 -100 250 -100 c 1,20,-1
 257 -12 l 1,21,22
 135 -7 135 -7 49 61 c 1,23,-1
 94 121 l 1,24,25
 134 93 134 93 178.5 78.5 c 128,-1,26
 223 64 223 64 278 64 c 0,27,28
 346 64 346 64 381.5 88.5 c 128,-1,29
 417 113 417 113 417 156 c 0,30,31
 417 238 417 238 289 238 c 2,32,-1
 182 238 l 1,33,-1
 188 312 l 1,34,-1
 283 312 l 2,35,36
 334 312 334 312 363 332.5 c 128,-1,37
 392 353 392 353 392 388 c 0,38,39
 392 465 392 465 273 465 c 0,40,41
 233 465 233 465 191 453.5 c 128,-1,42
 149 442 149 442 113 420 c 1,43,-1
 68 476 l 1,44,45
 109 506 109 506 165 523 c 128,-1,46
 221 540 221 540 278 540 c 0,47,48
 371 540 371 540 431 502 c 128,-1,49
 491 464 491 464 491 395 c 0,50,51
 491 352 491 352 461.5 323.5 c 128,-1,52
 432 295 432 295 381 281 c 1,53,54
 436 279 436 279 478 246 c 128,-1,55
 520 213 520 213 520 157 c 0,56,0
 520 86 520 86 466 42.5 c 128,-1,1
EndSplineSet
EndChar

StartChar: uni049B
Encoding: 1179 1179 489
Width: 600
GlyphClass: 2
Flags: W
AnchorPoint: "Anchor-3" 320 527 basechar 0
AnchorPoint: "Anchor-2" 300 0 basechar 0
LayerCount: 2
Fore
SplineSet
518 77 m 1,0,-1
 588 77 l 1,1,-1
 588 -151 l 1,2,-1
 510 -151 l 1,3,-1
 495 0 l 1,4,-1
 459 0 l 1,5,-1
 294 242 l 1,6,-1
 196 242 l 1,7,-1
 196 0 l 1,8,-1
 100 0 l 1,9,-1
 100 527 l 1,10,-1
 196 527 l 1,11,-1
 196 316 l 1,12,-1
 296 316 l 1,13,-1
 442 527 l 1,14,-1
 547 527 l 1,15,-1
 374 283 l 1,16,-1
 518 77 l 1,0,-1
EndSplineSet
EndChar

StartChar: uni049D
Encoding: 1181 1181 490
Width: 600
GlyphClass: 2
Flags: W
AnchorPoint: "Anchor-3" 300 527 basechar 0
AnchorPoint: "Anchor-2" 300 0 basechar 0
LayerCount: 2
Fore
SplineSet
100 0 m 1,0,-1
 100 527 l 1,1,-1
 196 527 l 1,2,-1
 196 315 l 1,3,-1
 239 315 l 1,4,-1
 239 430 l 1,5,-1
 286 430 l 1,6,-1
 286 315 l 1,7,-1
 313 315 l 1,8,-1
 448 527 l 1,9,-1
 547 527 l 1,10,-1
 390 284 l 1,11,-1
 572 0 l 1,12,-1
 468 0 l 1,13,-1
 313 242 l 1,14,-1
 286 242 l 1,15,-1
 286 120 l 1,16,-1
 239 120 l 1,17,-1
 239 242 l 1,18,-1
 196 242 l 1,19,-1
 196 0 l 1,20,-1
 100 0 l 1,0,-1
EndSplineSet
EndChar

StartChar: uni049F
Encoding: 1183 1183 491
Width: 600
Flags: W
LayerCount: 2
Fore
SplineSet
368 283 m 1,0,-1
 565 0 l 1,1,-1
 453 0 l 1,2,-1
 288 242 l 1,3,-1
 210 242 l 1,4,-1
 210 0 l 1,5,-1
 114 0 l 1,6,-1
 114 567 l 1,7,-1
 35 567 l 1,8,-1
 35 638 l 1,9,-1
 114 638 l 1,10,-1
 114 739 l 1,11,-1
 210 751 l 1,12,-1
 210 638 l 1,13,-1
 354 638 l 1,14,-1
 354 567 l 1,15,-1
 210 567 l 1,16,-1
 210 316 l 1,17,-1
 290 316 l 1,18,-1
 436 527 l 1,19,-1
 540 527 l 1,20,-1
 368 283 l 1,0,-1
EndSplineSet
EndChar

StartChar: uni04A1
Encoding: 1185 1185 492
Width: 600
Flags: W
LayerCount: 2
Fore
SplineSet
393 283 m 1,0,-1
 590 0 l 1,1,-1
 477 0 l 1,2,-1
 313 242 l 1,3,-1
 224 242 l 1,4,-1
 224 0 l 1,5,-1
 128 0 l 1,6,-1
 128 455 l 1,7,-1
 7 455 l 1,8,-1
 7 527 l 1,9,-1
 224 527 l 1,10,-1
 224 316 l 1,11,-1
 315 316 l 1,12,-1
 460 527 l 1,13,-1
 564 527 l 1,14,-1
 393 283 l 1,0,-1
EndSplineSet
EndChar

StartChar: uni04A3
Encoding: 1187 1187 493
Width: 600
Flags: W
LayerCount: 2
Fore
SplineSet
490 77 m 1,0,-1
 569 77 l 1,1,-1
 569 -151 l 1,2,-1
 491 -151 l 1,3,-1
 476 0 l 1,4,-1
 394 0 l 1,5,-1
 394 231 l 1,6,-1
 176 231 l 1,7,-1
 176 0 l 1,8,-1
 80 0 l 1,9,-1
 80 527 l 1,10,-1
 176 527 l 1,11,-1
 176 307 l 1,12,-1
 394 307 l 1,13,-1
 394 527 l 1,14,-1
 490 527 l 1,15,-1
 490 77 l 1,0,-1
EndSplineSet
EndChar

StartChar: uni04A5
Encoding: 1189 1189 494
Width: 600
Flags: W
LayerCount: 2
Fore
SplineSet
603 527 m 1,0,-1
 592 451 l 1,1,-1
 461 451 l 1,2,-1
 461 0 l 1,3,-1
 365 0 l 1,4,-1
 365 231 l 1,5,-1
 178 231 l 1,6,-1
 178 0 l 1,7,-1
 82 0 l 1,8,-1
 82 527 l 1,9,-1
 178 527 l 1,10,-1
 178 307 l 1,11,-1
 365 307 l 1,12,-1
 365 527 l 1,13,-1
 603 527 l 1,0,-1
EndSplineSet
EndChar

StartChar: uni0525
Encoding: 1317 1317 495
Width: 600
GlyphClass: 2
Flags: W
AnchorPoint: "Anchor-3" 293 527 basechar 0
AnchorPoint: "Anchor-2" 293 0 basechar 0
LayerCount: 2
Fore
SplineSet
498 77 m 1,0,-1
 577 77 l 1,1,-1
 577 -151 l 1,2,-1
 499 -151 l 1,3,-1
 484 0 l 1,4,-1
 402 0 l 1,5,-1
 402 451 l 1,6,-1
 184 451 l 1,7,-1
 184 0 l 1,8,-1
 88 0 l 1,9,-1
 88 527 l 1,10,-1
 498 527 l 1,11,-1
 498 77 l 1,0,-1
EndSplineSet
EndChar

StartChar: uni04A7
Encoding: 1191 1191 496
Width: 600
GlyphClass: 2
Flags: W
AnchorPoint: "Anchor-3" 300 527 basechar 0
AnchorPoint: "Anchor-2" 300 -203 basechar 0
LayerCount: 2
Fore
SplineSet
560.5 310 m 128,-1,1
 597 271 597 271 597 208 c 2,2,-1
 597 -56 l 2,3,4
 597 -133 597 -133 556.5 -173.5 c 128,-1,5
 516 -214 516 -214 445 -214 c 0,6,7
 380 -214 380 -214 329 -175 c 1,8,-1
 366 -116 l 1,9,10
 386 -128 386 -128 401.5 -133 c 128,-1,11
 417 -138 417 -138 440 -138 c 0,12,13
 504 -138 504 -138 504 -65 c 2,14,-1
 504 202 l 2,15,16
 504 237 504 237 488 256 c 128,-1,17
 472 275 472 275 443 275 c 0,18,19
 418 275 418 275 398.5 266 c 128,-1,20
 379 257 379 257 360 239 c 1,21,-1
 360 0 l 1,22,-1
 266 0 l 1,23,-1
 266 451 l 1,24,-1
 121 451 l 1,25,-1
 121 0 l 1,26,-1
 26 0 l 1,27,-1
 26 527 l 1,28,-1
 360 527 l 1,29,-1
 360 308 l 1,30,31
 403 349 403 349 467 349 c 0,32,0
 524 349 524 349 560.5 310 c 128,-1,1
EndSplineSet
EndChar

StartChar: uni04A9
Encoding: 1193 1193 497
Width: 600
GlyphClass: 2
Flags: W
AnchorPoint: "Anchor-3" 300 527 basechar 0
AnchorPoint: "Anchor-2" 300 -203 basechar 0
LayerCount: 2
Fore
SplineSet
523.5 108 m 128,-1,1
 493 56 493 56 439 25 c 1,2,3
 461 -4 461 -4 523 -79 c 1,4,-1
 465 -124 l 1,5,-1
 447 -102 l 2,6,7
 394 -40 394 -40 366 -4 c 1,8,9
 331 -12 331 -12 295 -12 c 0,10,11
 184 -12 184 -12 119.5 60 c 128,-1,12
 55 132 55 132 55 259 c 0,13,14
 55 343 55 343 83 406.5 c 128,-1,15
 111 470 111 470 164 505 c 128,-1,16
 217 540 217 540 288 540 c 0,17,18
 356 540 356 540 412 509 c 1,19,-1
 375 441 l 1,20,21
 337 461 337 461 292 461 c 0,22,23
 229 461 229 461 193.5 411 c 128,-1,24
 158 361 158 361 158 261 c 0,25,26
 158 66 158 66 300 66 c 2,27,-1
 316 66 l 1,28,29
 290 107 290 107 276.5 143 c 128,-1,30
 263 179 263 179 263 215 c 0,31,32
 263 278 263 278 302.5 320.5 c 128,-1,33
 342 363 342 363 410 363 c 0,34,35
 476 363 476 363 515 324 c 128,-1,36
 554 285 554 285 554 218 c 0,37,0
 554 160 554 160 523.5 108 c 128,-1,1
395 86 m 1,39,40
 431 105 431 105 449 139.5 c 128,-1,41
 467 174 467 174 467 219 c 0,42,43
 467 254 467 254 452 273.5 c 128,-1,44
 437 293 437 293 410 293 c 0,45,46
 381 293 381 293 366 272 c 128,-1,47
 351 251 351 251 351 215 c 0,48,38
 351 155 351 155 395 86 c 1,39,40
EndSplineSet
EndChar

StartChar: uni04AB
Encoding: 1195 1195 498
Width: 600
GlyphClass: 2
Flags: W
AnchorPoint: "Anchor-3" 344 518 basechar 0
AnchorPoint: "Anchor-2" 339 0 basechar 0
LayerCount: 2
Fore
SplineSet
460 -129 m 0,1,2
 460 -180 460 -180 425 -211 c 128,-1,3
 390 -242 390 -242 330 -242 c 0,4,5
 274 -242 274 -242 232 -217 c 1,6,-1
 255 -162 l 1,7,8
 274 -170 274 -170 288 -174.5 c 128,-1,9
 302 -179 302 -179 324 -179 c 0,10,11
 352 -179 352 -179 366.5 -164 c 128,-1,12
 381 -149 381 -149 381 -124 c 0,13,14
 381 -58 381 -58 308 -11 c 1,15,16
 203 -1 203 -1 145.5 71.5 c 128,-1,17
 88 144 88 144 88 261 c 0,18,19
 88 341 88 341 118 404.5 c 128,-1,20
 148 468 148 468 205 504 c 128,-1,21
 262 540 262 540 340 540 c 0,22,23
 442 540 442 540 519 477 c 1,24,-1
 474 415 l 1,25,26
 407 461 407 461 341 461 c 0,27,28
 272 461 272 461 231.5 410.5 c 128,-1,29
 191 360 191 360 191 261 c 0,30,31
 191 163 191 163 231.5 116 c 128,-1,32
 272 69 272 69 341 69 c 0,33,34
 407 69 407 69 475 114 c 1,35,-1
 520 52 l 1,36,37
 493 29 493 29 456.5 13 c 128,-1,38
 420 -3 420 -3 381 -9 c 1,39,0
 460 -57 460 -57 460 -129 c 0,1,2
EndSplineSet
EndChar

StartChar: uni04AD
Encoding: 1197 1197 499
Width: 600
GlyphClass: 2
Flags: W
AnchorPoint: "Anchor-3" 300 527 basechar 0
AnchorPoint: "Anchor-2" 300 0 basechar 0
LayerCount: 2
Fore
SplineSet
533 450 m 1,0,-1
 348 450 l 1,1,-1
 348 77 l 1,2,-1
 427 77 l 1,3,-1
 427 -151 l 1,4,-1
 349 -151 l 1,5,-1
 334 0 l 1,6,-1
 252 0 l 1,7,-1
 252 450 l 1,8,-1
 62 450 l 1,9,-1
 62 527 l 1,10,-1
 544 527 l 1,11,-1
 533 450 l 1,0,-1
EndSplineSet
EndChar

StartChar: uni04AF
Encoding: 1199 1199 500
Width: 600
GlyphClass: 2
Flags: W
AnchorPoint: "Anchor-3" 300 527 basechar 0
AnchorPoint: "Anchor-2" 300 -203 basechar 0
LayerCount: 2
Fore
SplineSet
253 -214 m 1,0,-1
 253 14 l 1,1,-1
 52 527 l 1,2,-1
 155 527 l 1,3,-1
 302 103 l 1,4,-1
 449 527 l 1,5,-1
 548 527 l 1,6,-1
 347 14 l 1,7,-1
 347 -202 l 1,8,-1
 253 -214 l 1,0,-1
EndSplineSet
EndChar

StartChar: uni04B1
Encoding: 1201 1201 501
Width: 600
GlyphClass: 2
Flags: W
AnchorPoint: "Anchor-3" 300 527 basechar 0
AnchorPoint: "Anchor-2" 300 -203 basechar 0
LayerCount: 2
Fore
SplineSet
548 527 m 1,0,-1
 370 72 l 1,1,-1
 450 72 l 1,2,-1
 450 1 l 1,3,-1
 347 1 l 1,4,-1
 347 -202 l 1,5,-1
 253 -214 l 1,6,-1
 253 1 l 1,7,-1
 150 1 l 1,8,-1
 150 72 l 1,9,-1
 230 72 l 1,10,-1
 52 527 l 1,11,-1
 155 527 l 1,12,-1
 302 103 l 1,13,-1
 449 527 l 1,14,-1
 548 527 l 1,0,-1
EndSplineSet
EndChar

StartChar: uni04B3
Encoding: 1203 1203 502
Width: 600
GlyphClass: 2
Flags: W
AnchorPoint: "Anchor-3" 300 527 basechar 0
AnchorPoint: "Anchor-2" 300 0 basechar 0
LayerCount: 2
Fore
SplineSet
158 0 m 1,0,-1
 50 0 l 1,1,-1
 243 278 l 1,2,-1
 73 527 l 1,3,-1
 185 527 l 1,4,-1
 301 336 l 1,5,-1
 418 527 l 1,6,-1
 526 527 l 1,7,-1
 357 282 l 1,8,-1
 550 0 l 1,9,-1
 435 0 l 1,10,-1
 297 222 l 1,11,-1
 158 0 l 1,0,-1
346 77 m 1,12,-1
 346 -151 l 1,13,-1
 268 -151 l 1,14,-1
 253 0 l 1,15,-1
 217 0 l 1,16,-1
 215 77 l 1,17,-1
 346 77 l 1,12,-1
EndSplineSet
EndChar

